<svg width="109" height="35" viewBox="0 0 109 35" fill="none" xmlns="http://www.w3.org/2000/svg">
<path d="M0.0976562 5.36719C0.63151 5.43229 1.17188 5.47786 1.71875 5.50391C2.27865 5.52995 2.78646 5.54297 3.24219 5.54297C3.77604 5.54297 4.29688 5.52995 4.80469 5.50391C5.32552 5.49089 5.8724 5.46484 6.44531 5.42578C6.9401 5.39974 7.5 5.36719 8.125 5.32812C8.75 5.28906 9.40104 5.25 10.0781 5.21094L10.1953 6.91016C10.1953 7.02734 10.2018 7.17708 10.2148 7.35938C10.2148 7.51562 10.2148 7.71094 10.2148 7.94531C10.2279 8.17969 10.2409 8.45312 10.2539 8.76562C9.78516 9.16927 9.36198 9.55339 8.98438 9.91797C8.61979 10.2695 8.30729 10.582 8.04688 10.8555C7.73438 11.181 7.46094 11.4805 7.22656 11.7539C6.92708 12.1055 6.60807 12.5352 6.26953 13.043C5.93099 13.5378 5.61198 14.026 5.3125 14.5078C5.02604 14.9766 4.79167 15.3997 4.60938 15.7773C4.42708 16.1419 4.34896 16.3698 4.375 16.4609C4.38802 16.526 4.51823 16.5651 4.76562 16.5781C5.01302 16.5781 5.3125 16.5651 5.66406 16.5391C6.02865 16.513 6.42578 16.474 6.85547 16.4219C7.29818 16.3568 7.70833 16.2917 8.08594 16.2266C8.47656 16.1484 8.82161 16.0703 9.12109 15.9922C9.42057 15.9141 9.61589 15.8359 9.70703 15.7578C9.82422 15.6536 9.95443 15.4648 10.0977 15.1914C10.2279 14.957 10.3711 14.6315 10.5273 14.2148C10.6966 13.7852 10.8854 13.2122 11.0938 12.4961C11.1068 13.0299 11.1133 13.4857 11.1133 13.8633C11.1263 14.2409 11.1458 14.5599 11.1719 14.8203C11.1849 15.1198 11.2044 15.3672 11.2305 15.5625C11.2435 15.7708 11.2695 16.0052 11.3086 16.2656C11.3346 16.487 11.3672 16.7669 11.4062 17.1055C11.4453 17.444 11.4974 17.8216 11.5625 18.2383C10.625 18.1211 9.83724 18.043 9.19922 18.0039C8.5612 17.9518 8.04688 17.9193 7.65625 17.9062C7.20052 17.8932 6.83594 17.8932 6.5625 17.9062C6.27604 17.9453 5.88542 18.0039 5.39062 18.082C4.97396 18.1471 4.42057 18.2513 3.73047 18.3945C3.04036 18.5247 2.17448 18.7005 1.13281 18.9219C1.10677 18.6745 1.08073 18.4596 1.05469 18.2773C1.02865 18.0951 1.0026 17.9323 0.976562 17.7891C0.950521 17.6458 0.924479 17.5091 0.898438 17.3789C0.872396 17.2617 0.839844 17.099 0.800781 16.8906C0.77474 16.7083 0.729167 16.487 0.664062 16.2266C0.611979 15.9531 0.546875 15.6146 0.46875 15.2109C1.25 14.4036 1.89453 13.7266 2.40234 13.1797C2.92318 12.6198 3.33984 12.1641 3.65234 11.8125C4.01693 11.3958 4.30339 11.0638 4.51172 10.8164C4.70703 10.569 4.96094 10.2695 5.27344 9.91797C5.53385 9.61849 5.8724 9.2474 6.28906 8.80469C6.70573 8.34896 7.20703 7.80859 7.79297 7.18359C7.19401 7.15755 6.63411 7.15755 6.11328 7.18359C5.60547 7.20964 5.16276 7.2487 4.78516 7.30078C4.34245 7.35286 3.93229 7.42448 3.55469 7.51562C3.20312 7.61979 2.84505 7.78906 2.48047 8.02344C2.16797 8.21875 1.82943 8.49219 1.46484 8.84375C1.10026 9.19531 0.755208 9.65104 0.429688 10.2109C0.403646 9.78125 0.384115 9.41667 0.371094 9.11719C0.358073 8.81771 0.345052 8.57031 0.332031 8.375C0.31901 8.15365 0.30599 7.97135 0.292969 7.82812C0.292969 7.6849 0.279948 7.49609 0.253906 7.26172C0.227865 7.06641 0.201823 6.81901 0.175781 6.51953C0.14974 6.20703 0.123698 5.82292 0.0976562 5.36719ZM17.5 10.25C17.8385 10.25 18.1901 10.3151 18.5547 10.4453C18.9193 10.5625 19.2708 10.7188 19.6094 10.9141C19.9479 11.0964 20.2539 11.2982 20.5273 11.5195C20.8138 11.7279 21.0482 11.9297 21.2305 12.125C21.556 12.4766 21.7773 12.9518 21.8945 13.5508C22.0247 14.1367 22.0508 14.7422 21.9727 15.3672C21.8945 15.9792 21.7122 16.5586 21.4258 17.1055C21.1393 17.6523 20.7422 18.056 20.2344 18.3164C19.8698 18.4987 19.5117 18.6419 19.1602 18.7461C18.8086 18.8503 18.4701 18.9284 18.1445 18.9805C17.819 19.0326 17.513 19.0586 17.2266 19.0586C16.9401 19.0586 16.6927 19.0521 16.4844 19.0391C16.0938 19.013 15.6836 18.8763 15.2539 18.6289C14.8372 18.3815 14.4401 18.0755 14.0625 17.7109C13.6979 17.3464 13.3854 16.9492 13.125 16.5195C12.8646 16.0768 12.7083 15.6602 12.6562 15.2695C12.5781 14.7357 12.5651 14.1758 12.6172 13.5898C12.6693 13.0039 12.8581 12.4635 13.1836 11.9688C13.5221 11.474 14.0299 11.0638 14.707 10.7383C15.3971 10.4128 16.3281 10.25 17.5 10.25ZM16.8555 17.8281C16.9987 17.8542 17.194 17.8216 17.4414 17.7305C17.6888 17.6263 17.9297 17.4635 18.1641 17.2422C18.4115 17.0208 18.6263 16.7409 18.8086 16.4023C19.0039 16.0508 19.1211 15.6276 19.1602 15.1328C19.1992 14.651 19.1992 14.2083 19.1602 13.8047C19.1341 13.401 19.0755 13.0495 18.9844 12.75C18.8932 12.4375 18.7891 12.1836 18.6719 11.9883C18.5547 11.793 18.431 11.6562 18.3008 11.5781C18.0794 11.4609 17.8125 11.3698 17.5 11.3047C17.1875 11.2266 16.9206 11.2396 16.6992 11.3438C16.5951 11.3958 16.4648 11.5065 16.3086 11.6758C16.1523 11.8451 15.9961 12.0599 15.8398 12.3203C15.6836 12.5677 15.5404 12.8542 15.4102 13.1797C15.293 13.5052 15.2083 13.8438 15.1562 14.1953C15.1042 14.5469 15.0911 14.9245 15.1172 15.3281C15.1562 15.7318 15.2409 16.1159 15.3711 16.4805C15.5013 16.832 15.6836 17.138 15.918 17.3984C16.1654 17.6458 16.4779 17.7891 16.8555 17.8281ZM22.8125 9.74219C23.112 9.71615 23.3659 9.6901 23.5742 9.66406C23.7956 9.63802 23.9779 9.61198 24.1211 9.58594C24.2904 9.5599 24.4336 9.53385 24.5508 9.50781C24.668 9.49479 24.7982 9.46875 24.9414 9.42969C25.0716 9.40365 25.2148 9.37109 25.3711 9.33203C25.5404 9.27995 25.7227 9.22135 25.918 9.15625L25.8008 11.6367C26.0872 11.181 26.4193 10.8359 26.7969 10.6016C27.1745 10.3542 27.5326 10.1719 27.8711 10.0547C28.2747 9.91146 28.6784 9.82682 29.082 9.80078C29.4987 9.8138 29.8828 9.87891 30.2344 9.99609C30.5339 10.1003 30.8333 10.263 31.1328 10.4844C31.4453 10.7057 31.6862 11.0312 31.8555 11.4609C32.2982 11.0052 32.7344 10.6536 33.1641 10.4062C33.6068 10.1458 33.9974 9.95052 34.3359 9.82031C34.7396 9.67708 35.1172 9.59245 35.4688 9.56641C35.9375 9.55339 36.3672 9.63151 36.7578 9.80078C37.1615 9.97005 37.513 10.1849 37.8125 10.4453C38.112 10.6927 38.3529 10.9596 38.5352 11.2461C38.7174 11.5195 38.8216 11.7604 38.8477 11.9688C38.8867 12.2552 38.8672 12.6263 38.7891 13.082C38.7109 13.5247 38.6198 13.9805 38.5156 14.4492C38.4115 14.9049 38.3138 15.3281 38.2227 15.7188C38.1445 16.0964 38.112 16.3633 38.125 16.5195C38.1641 16.6497 38.2552 16.806 38.3984 16.9883C38.5286 17.1445 38.7174 17.3398 38.9648 17.5742C39.2253 17.7956 39.5964 18.056 40.0781 18.3555C39.6615 18.3424 39.2904 18.3294 38.9648 18.3164C38.6523 18.3034 38.3854 18.2839 38.1641 18.2578C37.9036 18.2318 37.6758 18.2122 37.4805 18.1992C37.3242 18.1992 37.1354 18.1862 36.9141 18.1602C36.7318 18.1471 36.4909 18.1276 36.1914 18.1016C35.9049 18.0755 35.5729 18.0495 35.1953 18.0234C35.3385 17.9844 35.4557 17.9128 35.5469 17.8086C35.638 17.6914 35.7161 17.5807 35.7812 17.4766C35.8464 17.3464 35.8984 17.2031 35.9375 17.0469C35.9635 16.9167 35.9896 16.7083 36.0156 16.4219C36.0417 16.1354 36.0612 15.8099 36.0742 15.4453C36.1003 15.0807 36.1133 14.6966 36.1133 14.293C36.1263 13.8893 36.1263 13.5052 36.1133 13.1406C36.1003 12.776 36.0742 12.444 36.0352 12.1445C35.9961 11.8451 35.944 11.6172 35.8789 11.4609C35.8268 11.3438 35.7357 11.2526 35.6055 11.1875C35.4753 11.1094 35.3255 11.0638 35.1562 11.0508C34.987 11.0247 34.8177 11.0312 34.6484 11.0703C34.4792 11.0964 34.3294 11.1484 34.1992 11.2266C34.082 11.3177 33.9258 11.4414 33.7305 11.5977C33.5612 11.7409 33.3398 11.9362 33.0664 12.1836C32.793 12.431 32.4479 12.7435 32.0312 13.1211C31.9922 13.9414 31.9596 14.6055 31.9336 15.1133C31.9206 15.6081 31.9076 15.9857 31.8945 16.2461C31.8815 16.5586 31.875 16.7734 31.875 16.8906C31.862 16.9948 31.8685 17.0924 31.8945 17.1836C31.9206 17.3789 31.9987 17.5612 32.1289 17.7305C31.9727 17.6914 31.8034 17.6654 31.6211 17.6523C31.4518 17.6393 31.2956 17.6263 31.1523 17.6133C30.9831 17.6003 30.8138 17.5938 30.6445 17.5938C30.5013 17.5938 30.3451 17.6003 30.1758 17.6133C30.0326 17.6263 29.8568 17.6458 29.6484 17.6719C29.4401 17.6849 29.2122 17.7044 28.9648 17.7305C29.069 17.6654 29.1536 17.5872 29.2188 17.4961C29.2839 17.4049 29.3359 17.3203 29.375 17.2422C29.4271 17.151 29.4661 17.0664 29.4922 16.9883C29.5052 16.9102 29.5312 16.7214 29.5703 16.4219C29.6094 16.1094 29.6354 15.7448 29.6484 15.3281C29.6615 14.9115 29.6615 14.4753 29.6484 14.0195C29.6354 13.5508 29.5898 13.1276 29.5117 12.75C29.4336 12.3594 29.3099 12.0404 29.1406 11.793C28.9844 11.5456 28.776 11.4349 28.5156 11.4609C28.2031 11.487 27.8841 11.5651 27.5586 11.6953C27.2852 11.7995 26.9922 11.9557 26.6797 12.1641C26.3672 12.3724 26.0742 12.6523 25.8008 13.0039C25.7487 13.9805 25.7161 14.7552 25.7031 15.3281C25.7031 15.901 25.7096 16.3372 25.7227 16.6367C25.7357 16.9883 25.7487 17.2292 25.7617 17.3594C25.7747 17.4505 25.8073 17.5417 25.8594 17.6328C25.8984 17.7109 25.944 17.8021 25.9961 17.9062C26.0612 18.0104 26.1328 18.1081 26.2109 18.1992L23.1055 18.043C23.2096 17.9909 23.3008 17.9258 23.3789 17.8477C23.457 17.7565 23.5221 17.6654 23.5742 17.5742C23.6263 17.4701 23.6784 17.3659 23.7305 17.2617C23.7695 17.1706 23.8021 16.9557 23.8281 16.6172C23.8672 16.2786 23.8997 15.8815 23.9258 15.4258C23.9518 14.957 23.9714 14.4688 23.9844 13.9609C24.0104 13.4401 24.0234 12.9583 24.0234 12.5156C24.0365 12.0599 24.043 11.6758 24.043 11.3633C24.043 11.0378 24.0365 10.8424 24.0234 10.7773C23.9844 10.6471 23.9128 10.5104 23.8086 10.3672C23.7174 10.263 23.5938 10.1523 23.4375 10.0352C23.2812 9.90495 23.0729 9.80729 22.8125 9.74219ZM40.1758 5.28906C40.4753 5.36719 40.7487 5.42578 40.9961 5.46484C41.2565 5.49089 41.4779 5.51042 41.6602 5.52344C41.8815 5.53646 42.0833 5.54297 42.2656 5.54297C42.4479 5.54297 42.6758 5.52995 42.9492 5.50391C43.431 5.46484 44.1146 5.36719 45 5.21094C44.8568 5.3151 44.7201 5.41927 44.5898 5.52344C44.4727 5.61458 44.3685 5.70573 44.2773 5.79688L43.9844 6.08984C43.8151 6.32422 43.6458 6.72135 43.4766 7.28125C43.3333 7.76302 43.1771 8.4401 43.0078 9.3125C42.8516 10.1849 42.7083 11.3438 42.5781 12.7891C43.2161 12.1641 43.8151 11.6953 44.375 11.3828C44.9479 11.0573 45.4492 10.8229 45.8789 10.6797C46.3867 10.5234 46.849 10.4388 47.2656 10.4258C47.7995 10.4648 48.2617 10.5755 48.6523 10.7578C49.056 10.9271 49.3945 11.1354 49.668 11.3828C49.9544 11.6172 50.1823 11.8646 50.3516 12.125C50.5339 12.3724 50.6706 12.5938 50.7617 12.7891C50.8138 12.9193 50.8529 13.1602 50.8789 13.5117C50.918 13.8503 50.9245 14.2409 50.8984 14.6836C50.8724 15.1263 50.8008 15.5951 50.6836 16.0898C50.5794 16.5716 50.4036 17.0208 50.1562 17.4375C49.9219 17.8411 49.6094 18.1797 49.2188 18.4531C48.8411 18.7266 48.3659 18.8763 47.793 18.9023C47.1289 18.9023 46.4844 18.8242 45.8594 18.668C45.3255 18.5378 44.7591 18.3099 44.1602 17.9844C43.5742 17.6458 43.0729 17.1641 42.6562 16.5391C42.6562 16.6953 42.6562 16.8516 42.6562 17.0078C42.6562 17.151 42.6628 17.2747 42.6758 17.3789C42.6888 17.5221 42.7018 17.6458 42.7148 17.75C42.7279 17.8672 42.7604 17.9909 42.8125 18.1211C42.8516 18.2253 42.9102 18.3555 42.9883 18.5117C43.0794 18.6549 43.1966 18.7982 43.3398 18.9414C43.1966 18.9284 43.0534 18.9219 42.9102 18.9219C42.7669 18.9089 42.6237 18.9089 42.4805 18.9219C42.3242 18.9349 42.168 18.9479 42.0117 18.9609C41.8555 18.974 41.6927 18.9935 41.5234 19.0195C41.3802 19.0456 41.2109 19.0781 41.0156 19.1172C40.8203 19.1562 40.6185 19.2018 40.4102 19.2539C40.4492 19.1367 40.4818 18.9674 40.5078 18.7461C40.5339 18.5117 40.5599 18.2578 40.5859 17.9844C40.625 17.6979 40.651 17.3984 40.6641 17.0859C40.6901 16.7734 40.7161 16.4609 40.7422 16.1484C40.7943 15.4323 40.8398 14.651 40.8789 13.8047C40.918 12.4896 40.9245 11.2656 40.8984 10.1328C40.8854 9.65104 40.8594 9.16276 40.8203 8.66797C40.7943 8.17318 40.7552 7.71094 40.7031 7.28125C40.651 6.83854 40.5794 6.44792 40.4883 6.10938C40.4102 5.75781 40.306 5.48438 40.1758 5.28906ZM42.7148 14.8008C42.9232 15.1784 43.1445 15.5039 43.3789 15.7773C43.6133 16.0378 43.8477 16.2591 44.082 16.4414C44.3164 16.6237 44.5443 16.7669 44.7656 16.8711C45 16.9753 45.2214 17.0534 45.4297 17.1055C45.9115 17.2357 46.3867 17.2487 46.8555 17.1445C47.3242 17.0143 47.6888 16.7539 47.9492 16.3633C48.2096 15.9727 48.4115 15.5299 48.5547 15.0352C48.6198 14.8008 48.6589 14.5013 48.6719 14.1367C48.6979 13.7721 48.6589 13.4206 48.5547 13.082C48.4635 12.7305 48.2943 12.4245 48.0469 12.1641C47.7995 11.8906 47.4414 11.7279 46.9727 11.6758C46.6471 11.6758 46.2695 11.7669 45.8398 11.9492C45.4622 12.1055 45.013 12.3659 44.4922 12.7305C43.9714 13.082 43.3789 13.6094 42.7148 14.3125V14.8008ZM57.0508 10.25C57.3893 10.25 57.7409 10.3151 58.1055 10.4453C58.4701 10.5625 58.8216 10.7188 59.1602 10.9141C59.4987 11.0964 59.8047 11.2982 60.0781 11.5195C60.3646 11.7279 60.599 11.9297 60.7812 12.125C61.1068 12.4766 61.3281 12.9518 61.4453 13.5508C61.5755 14.1367 61.6016 14.7422 61.5234 15.3672C61.4453 15.9792 61.263 16.5586 60.9766 17.1055C60.6901 17.6523 60.293 18.056 59.7852 18.3164C59.4206 18.4987 59.0625 18.6419 58.7109 18.7461C58.3594 18.8503 58.0208 18.9284 57.6953 18.9805C57.3698 19.0326 57.0638 19.0586 56.7773 19.0586C56.4909 19.0586 56.2435 19.0521 56.0352 19.0391C55.6445 19.013 55.2344 18.8763 54.8047 18.6289C54.388 18.3815 53.9909 18.0755 53.6133 17.7109C53.2487 17.3464 52.9362 16.9492 52.6758 16.5195C52.4154 16.0768 52.2591 15.6602 52.207 15.2695C52.1289 14.7357 52.1159 14.1758 52.168 13.5898C52.2201 13.0039 52.4089 12.4635 52.7344 11.9688C53.0729 11.474 53.5807 11.0638 54.2578 10.7383C54.9479 10.4128 55.8789 10.25 57.0508 10.25ZM56.4062 17.8281C56.5495 17.8542 56.7448 17.8216 56.9922 17.7305C57.2396 17.6263 57.4805 17.4635 57.7148 17.2422C57.9622 17.0208 58.1771 16.7409 58.3594 16.4023C58.5547 16.0508 58.6719 15.6276 58.7109 15.1328C58.75 14.651 58.75 14.2083 58.7109 13.8047C58.6849 13.401 58.6263 13.0495 58.5352 12.75C58.444 12.4375 58.3398 12.1836 58.2227 11.9883C58.1055 11.793 57.9818 11.6562 57.8516 11.5781C57.6302 11.4609 57.3633 11.3698 57.0508 11.3047C56.7383 11.2266 56.4714 11.2396 56.25 11.3438C56.1458 11.3958 56.0156 11.5065 55.8594 11.6758C55.7031 11.8451 55.5469 12.0599 55.3906 12.3203C55.2344 12.5677 55.0911 12.8542 54.9609 13.1797C54.8438 13.5052 54.7591 13.8438 54.707 14.1953C54.6549 14.5469 54.6419 14.9245 54.668 15.3281C54.707 15.7318 54.7917 16.1159 54.9219 16.4805C55.0521 16.832 55.2344 17.138 55.4688 17.3984C55.7161 17.6458 56.0286 17.7891 56.4062 17.8281ZM62.4609 10.2695L66.0547 10.3086C65.8464 11.1029 65.6901 11.7799 65.5859 12.3398C65.4948 12.8997 65.4362 13.3685 65.4102 13.7461C65.3581 14.1758 65.3451 14.5404 65.3711 14.8398C65.4102 15.1133 65.4753 15.4062 65.5664 15.7188C65.6445 15.9792 65.7617 16.2786 65.918 16.6172C66.0742 16.9557 66.2826 17.2943 66.543 17.6328C66.3867 17.5807 66.2174 17.5417 66.0352 17.5156C65.8529 17.4896 65.6836 17.4701 65.5273 17.457C65.3451 17.444 65.1628 17.444 64.9805 17.457C64.7982 17.4701 64.5964 17.4896 64.375 17.5156C64.1927 17.5417 63.9714 17.5742 63.7109 17.6133C63.4505 17.6523 63.1771 17.7044 62.8906 17.7695C63.0859 17.1836 63.2357 16.6758 63.3398 16.2461C63.457 15.8164 63.5417 15.4583 63.5938 15.1719C63.6458 14.8333 63.6784 14.5599 63.6914 14.3516C63.6914 14.0911 63.6914 13.7982 63.6914 13.4727C63.6914 13.1341 63.6914 12.8086 63.6914 12.4961C63.6914 12.1836 63.6849 11.9102 63.6719 11.6758C63.6589 11.4284 63.6328 11.2721 63.5938 11.207L63.3984 11.0117C63.3203 10.9466 63.2031 10.8555 63.0469 10.7383C62.9036 10.6081 62.7083 10.4518 62.4609 10.2695ZM63.8477 7.26172C64.1211 7.11849 64.3945 7.07943 64.668 7.14453C64.9544 7.20964 65.1758 7.33333 65.332 7.51562C65.4883 7.69792 65.5404 7.91276 65.4883 8.16016C65.4492 8.40755 65.2409 8.64844 64.8633 8.88281C64.4857 9.10417 64.1536 9.18229 63.8672 9.11719C63.5807 9.05208 63.3789 8.91536 63.2617 8.70703C63.1445 8.4987 63.125 8.25781 63.2031 7.98438C63.2812 7.69792 63.4961 7.45703 63.8477 7.26172ZM76.8359 4.03906C77.0833 4.05208 77.3503 4.05859 77.6367 4.05859C77.8841 4.05859 78.1641 4.0651 78.4766 4.07812C78.8021 4.07812 79.1406 4.0651 79.4922 4.03906C79.1797 4.18229 78.9062 4.39062 78.6719 4.66406C78.4375 4.9375 78.2487 5.21094 78.1055 5.48438C77.9232 5.8099 77.7734 6.14844 77.6562 6.5C77.5911 6.70833 77.5391 7.07943 77.5 7.61328C77.4609 8.13411 77.4284 8.74609 77.4023 9.44922C77.3893 10.1523 77.3828 10.8945 77.3828 11.6758C77.3828 12.457 77.3893 13.2057 77.4023 13.9219C77.4154 14.625 77.4349 15.25 77.4609 15.7969C77.487 16.3438 77.5195 16.7279 77.5586 16.9492C77.6107 17.2096 77.6758 17.457 77.7539 17.6914C77.819 17.8997 77.9036 18.1146 78.0078 18.3359C78.112 18.5443 78.2422 18.7135 78.3984 18.8438L76.4062 19.7422C76.3021 19.599 76.2174 19.4492 76.1523 19.293C76.0872 19.1497 76.0352 19.0195 75.9961 18.9023C75.944 18.7591 75.9115 18.6289 75.8984 18.5117C75.8724 18.3555 75.8464 18.1862 75.8203 18.0039C75.7943 17.8086 75.7617 17.6263 75.7227 17.457C75.6966 17.2747 75.6771 17.125 75.6641 17.0078C75.651 16.8906 75.651 16.819 75.6641 16.793C75.6771 16.7669 75.599 16.8841 75.4297 17.1445C75.2604 17.3919 75.0065 17.6849 74.668 18.0234C74.3424 18.349 73.9388 18.668 73.457 18.9805C72.9753 19.2799 72.4349 19.4688 71.8359 19.5469C71.224 19.625 70.6576 19.5078 70.1367 19.1953C69.6289 18.8828 69.1927 18.4466 68.8281 17.8867C68.4635 17.3138 68.1836 16.6562 67.9883 15.9141C67.806 15.1589 67.7344 14.3906 67.7734 13.6094C67.7995 13.0885 67.9167 12.6263 68.125 12.2227C68.3333 11.806 68.5938 11.4479 68.9062 11.1484C69.2318 10.8359 69.5833 10.5755 69.9609 10.3672C70.3516 10.1458 70.7292 9.96354 71.0938 9.82031C71.4714 9.67708 71.8229 9.57292 72.1484 9.50781C72.474 9.44271 72.7344 9.39714 72.9297 9.37109C73.1641 9.35807 73.431 9.39714 73.7305 9.48828C73.9909 9.56641 74.2904 9.69661 74.6289 9.87891C74.9805 10.0612 75.3711 10.3346 75.8008 10.6992C75.7227 9.39714 75.651 8.35547 75.5859 7.57422C75.5208 6.77995 75.4557 6.17448 75.3906 5.75781C75.3255 5.26302 75.2669 4.92448 75.2148 4.74219C75.1497 4.61198 75.0651 4.48177 74.9609 4.35156C74.8698 4.2474 74.7526 4.14323 74.6094 4.03906C74.4792 3.92188 74.3229 3.83073 74.1406 3.76562C74.4792 3.83073 74.8047 3.8763 75.1172 3.90234C75.4297 3.92839 75.7161 3.95443 75.9766 3.98047C76.276 4.00651 76.5625 4.02604 76.8359 4.03906ZM71.9336 11.3242C71.6862 11.4154 71.4844 11.5716 71.3281 11.793C71.1849 12.0143 71.0677 12.2812 70.9766 12.5938C70.8854 12.8932 70.8203 13.2188 70.7812 13.5703C70.7552 13.9089 70.7357 14.2409 70.7227 14.5664C70.7227 14.8789 70.7227 15.1654 70.7227 15.4258C70.7227 15.6862 70.7227 15.8815 70.7227 16.0117C70.7227 16.0898 70.7357 16.2331 70.7617 16.4414C70.8008 16.6367 70.8789 16.8451 70.9961 17.0664C71.1133 17.2747 71.276 17.4635 71.4844 17.6328C71.7057 17.8021 71.9987 17.8867 72.3633 17.8867C72.6628 17.8607 72.9818 17.7565 73.3203 17.5742C73.6198 17.418 73.9583 17.1706 74.3359 16.832C74.7266 16.4805 75.1432 15.9792 75.5859 15.3281C75.5599 14.9115 75.5404 14.5664 75.5273 14.293C75.5273 14.0195 75.5208 13.7982 75.5078 13.6289C75.4948 13.4336 75.4883 13.2773 75.4883 13.1602V12.8672C75.4883 12.7891 75.4883 12.7044 75.4883 12.6133C75.4883 12.5221 75.4948 12.4375 75.5078 12.3594C75.1432 12.099 74.8177 11.8776 74.5312 11.6953C74.2578 11.5 73.9844 11.3568 73.7109 11.2656C73.4505 11.1615 73.1771 11.1159 72.8906 11.1289C72.6172 11.1289 72.2982 11.194 71.9336 11.3242Z" fill="#A4A4A4"/>
<path d="M87.9302 19.9535H88.4884V20.5116H87.9302V19.9535ZM87.3721 19.9535H87.9302V20.5116H87.3721V19.9535ZM87.3721 20.5116H87.9302V21.0698H87.3721V20.5116ZM87.3721 21.0698H87.9302V21.6279H87.3721V21.0698ZM87.9302 21.0698H88.4884V21.6279H87.9302V21.0698ZM87.9302 20.5116H88.4884V21.0698H87.9302V20.5116ZM85.6977 21.6279H86.2558V22.186H85.6977V21.6279ZM85.6977 22.186H86.2558V22.7442H85.6977V22.186ZM85.6977 22.7442H86.2558V23.3023H85.6977V22.7442ZM85.1395 22.7442H85.6977V23.3023H85.1395V22.7442ZM85.1395 22.186H85.6977V22.7442H85.1395V22.186ZM85.1395 21.6279H85.6977V22.186H85.1395V21.6279ZM84.0233 21.6279H84.5814V22.186H84.0233V21.6279ZM84.0233 22.186H84.5814V22.7442H84.0233V22.186ZM84.0233 22.7442H84.5814V23.3023H84.0233V22.7442ZM84.0233 23.3023H84.5814V23.8605H84.0233V23.3023ZM84.5814 22.7442H85.1395V23.3023H84.5814V22.7442ZM84.5814 22.186H85.1395V22.7442H84.5814V22.186ZM84.5814 21.6279H85.1395V22.186H84.5814V21.6279ZM83.4651 22.7442H84.0233V23.3023H83.4651V22.7442ZM82.907 22.7442H83.4651V23.3023H82.907V22.7442ZM82.3488 22.7442H82.907V23.3023H82.3488V22.7442ZM81.7907 22.7442H82.3488V23.3023H81.7907V22.7442ZM81.7907 23.3023H82.3488V23.8605H81.7907V23.3023ZM82.3488 23.3023H82.907V23.8605H82.3488V23.3023ZM82.907 23.3023H83.4651V23.8605H82.907V23.3023ZM83.4651 23.3023H84.0233V23.8605H83.4651V23.3023ZM84.5814 23.3023H85.1395V23.8605H84.5814V23.3023ZM85.1395 23.3023H85.6977V23.8605H85.1395V23.3023ZM85.6977 23.3023H86.2558V23.8605H85.6977V23.3023ZM89.6047 16.0465H90.1628V16.6047H89.6047V16.0465ZM90.1628 16.0465H90.7209V16.6047H90.1628V16.0465ZM90.1628 16.6047H90.7209V17.1628H90.1628V16.6047ZM90.1628 17.1628H90.7209V17.7209H90.1628V17.1628ZM90.1628 17.7209H90.7209V18.2791H90.1628V17.7209ZM89.6047 17.7209H90.1628V18.2791H89.6047V17.7209ZM89.6047 18.2791H90.1628V18.8372H89.6047V18.2791ZM89.6047 18.8372H90.1628V19.3953H89.6047V18.8372ZM89.6047 19.3953H90.1628V19.9535H89.6047V19.3953ZM89.6047 19.9535H90.1628V20.5116H89.6047V19.9535ZM89.6047 20.5116H90.1628V21.0698H89.6047V20.5116ZM89.6047 21.0698H90.1628V21.6279H89.6047V21.0698ZM90.1628 20.5116H90.7209V21.0698H90.1628V20.5116ZM90.1628 19.9535H90.7209V20.5116H90.1628V19.9535ZM90.1628 19.3953H90.7209V19.9535H90.1628V19.3953ZM90.1628 18.8372H90.7209V19.3953H90.1628V18.8372ZM90.1628 18.2791H90.7209V18.8372H90.1628V18.2791ZM90.1628 21.0698H90.7209V21.6279H90.1628V21.0698ZM90.7209 17.1628H91.2791V17.7209H90.7209V17.1628ZM91.2791 17.1628H91.8372V17.7209H91.2791V17.1628ZM91.2791 17.7209H91.8372V18.2791H91.2791V17.7209ZM91.2791 18.2791H91.8372V18.8372H91.2791V18.2791ZM91.2791 18.8372H91.8372V19.3953H91.2791V18.8372ZM90.7209 18.8372H91.2791V19.3953H90.7209V18.8372ZM90.7209 19.3953H91.2791V19.9535H90.7209V19.3953ZM90.7209 19.9535H91.2791V20.5116H90.7209V19.9535ZM90.7209 20.5116H91.2791V21.0698H90.7209V20.5116ZM90.7209 18.2791H91.2791V18.8372H90.7209V18.2791ZM90.7209 17.7209H91.2791V18.2791H90.7209V17.7209ZM90.7209 21.0698H91.2791V21.6279H90.7209V21.0698ZM91.2791 20.5116H91.8372V21.0698H91.2791V20.5116ZM91.2791 19.9535H91.8372V20.5116H91.2791V19.9535ZM91.2791 19.3953H91.8372V19.9535H91.2791V19.3953ZM89.6047 21.6279H90.1628V22.186H89.6047V21.6279ZM89.6047 22.186H90.1628V22.7442H89.6047V22.186ZM90.1628 21.6279H90.7209V22.186H90.1628V21.6279ZM91.8372 17.1628H92.3953V17.7209H91.8372V17.1628ZM92.3953 17.1628H92.9535V17.7209H92.3953V17.1628ZM91.8372 17.7209H92.3953V18.2791H91.8372V17.7209ZM92.9535 16.6047H93.5116V17.1628H92.9535V16.6047ZM90.7209 16.6047H91.2791V17.1628H90.7209V16.6047ZM92.3953 16.6047H92.9535V17.1628H92.3953V16.6047ZM87.9302 17.1628H88.4884V17.7209H87.9302V17.1628ZM87.9302 17.7209H88.4884V18.2791H87.9302V17.7209ZM87.3721 17.7209H87.9302V18.2791H87.3721V17.7209ZM86.814 18.2791H87.3721V18.8372H86.814V18.2791ZM86.814 18.8372H87.3721V19.3953H86.814V18.8372ZM86.2558 18.8372H86.814V19.3953H86.2558V18.8372ZM88.4884 16.6047H89.0465V17.1628H88.4884V16.6047ZM89.0465 16.0465H89.6047V16.6047H89.0465V16.0465ZM89.0465 16.6047H89.6047V17.1628H89.0465V16.6047ZM89.6047 16.6047H90.1628V17.1628H89.6047V16.6047ZM89.6047 17.1628H90.1628V17.7209H89.6047V17.1628ZM92.9535 16.0465H93.5116V16.6047H92.9535V16.0465ZM87.3721 18.2791H87.9302V18.8372H87.3721V18.2791ZM86.2558 19.3953H86.814V19.9535H86.2558V19.3953ZM88.4884 17.1628H89.0465V17.7209H88.4884V17.1628ZM89.0465 22.7442H89.6047V23.3023H89.0465V22.7442ZM88.4884 22.7442H89.0465V23.3023H88.4884V22.7442ZM88.4884 23.3023H89.0465V23.8605H88.4884V23.3023ZM89.0465 23.3023H89.6047V23.8605H89.0465V23.3023ZM87.9302 22.7442H88.4884V23.3023H87.9302V22.7442ZM87.3721 22.7442H87.9302V23.3023H87.3721V22.7442ZM87.3721 23.3023H87.9302V23.8605H87.3721V23.3023ZM87.9302 23.3023H88.4884V23.8605H87.9302V23.3023ZM84.0233 23.8605H84.5814V24.4186H84.0233V23.8605ZM84.0233 24.4186H84.5814V24.9767H84.0233V24.4186ZM84.5814 24.4186H85.1395V24.9767H84.5814V24.4186ZM84.5814 23.8605H85.1395V24.4186H84.5814V23.8605ZM84.5814 24.9767H85.1395V25.5349H84.5814V24.9767ZM84.5814 25.5349H85.1395V26.093H84.5814V25.5349ZM84.0233 25.5349H84.5814V26.093H84.0233V25.5349ZM84.0233 24.9767H84.5814V25.5349H84.0233V24.9767ZM85.1395 24.9767H85.6977V25.5349H85.1395V24.9767ZM85.1395 24.4186H85.6977V24.9767H85.1395V24.4186ZM85.1395 23.8605H85.6977V24.4186H85.1395V23.8605ZM85.6977 23.8605H86.2558V24.4186H85.6977V23.8605ZM85.6977 24.4186H86.2558V24.9767H85.6977V24.4186ZM85.6977 24.9767H86.2558V25.5349H85.6977V24.9767ZM85.6977 25.5349H86.2558V26.093H85.6977V25.5349ZM85.1395 25.5349H85.6977V26.093H85.1395V25.5349ZM87.3721 24.9767H87.9302V25.5349H87.3721V24.9767ZM87.9302 24.9767H88.4884V25.5349H87.9302V24.9767ZM87.9302 25.5349H88.4884V26.093H87.9302V25.5349ZM87.3721 25.5349H87.9302V26.093H87.3721V25.5349ZM87.3721 26.093H87.9302V26.6512H87.3721V26.093ZM87.9302 26.093H88.4884V26.6512H87.9302V26.093ZM87.3721 27.2093H87.9302V27.7674H87.3721V27.2093ZM89.6047 23.8605H90.1628V24.4186H89.6047V23.8605ZM90.1628 23.8605H90.7209V24.4186H90.1628V23.8605ZM90.1628 24.4186H90.7209V24.9767H90.1628V24.4186ZM90.1628 24.9767H90.7209V25.5349H90.1628V24.9767ZM90.1628 25.5349H90.7209V26.093H90.1628V25.5349ZM89.6047 25.5349H90.1628V26.093H89.6047V25.5349ZM89.6047 26.093H90.1628V26.6512H89.6047V26.093ZM89.6047 24.9767H90.1628V25.5349H89.6047V24.9767ZM89.6047 24.4186H90.1628V24.9767H89.6047V24.4186ZM89.6047 27.2093H90.1628V27.7674H89.6047V27.2093ZM90.1628 27.2093H90.7209V27.7674H90.1628V27.2093ZM90.1628 26.093H90.7209V26.6512H90.1628V26.093ZM90.7209 24.4186H91.2791V24.9767H90.7209V24.4186ZM91.2791 24.9767H91.8372V25.5349H91.2791V24.9767ZM91.2791 25.5349H91.8372V26.093H91.2791V25.5349ZM90.7209 25.5349H91.2791V26.093H90.7209V25.5349ZM90.7209 24.9767H91.2791V25.5349H90.7209V24.9767ZM90.7209 26.093H91.2791V26.6512H90.7209V26.093ZM91.2791 26.093H91.8372V26.6512H91.2791V26.093ZM90.7209 27.2093H91.2791V27.7674H90.7209V27.2093ZM91.2791 27.2093H91.8372V27.7674H91.2791V27.2093ZM84.0233 26.093H84.5814V26.6512H84.0233V26.093ZM84.5814 26.093H85.1395V26.6512H84.5814V26.093ZM85.1395 26.093H85.6977V26.6512H85.1395V26.093ZM85.1395 27.2093H85.6977V27.7674H85.1395V27.2093ZM85.6977 27.2093H86.2558V27.7674H85.6977V27.2093ZM85.6977 26.093H86.2558V26.6512H85.6977V26.093ZM84.5814 27.2093H85.1395V27.7674H84.5814V27.2093ZM84.0233 26.6512H84.5814V27.2093H84.0233V26.6512ZM84.5814 26.6512H85.1395V27.2093H84.5814V26.6512ZM85.1395 26.6512H85.6977V27.2093H85.1395V26.6512ZM85.6977 26.6512H86.2558V27.2093H85.6977V26.6512ZM89.6047 26.6512H90.1628V27.2093H89.6047V26.6512ZM90.1628 26.6512H90.7209V27.2093H90.1628V26.6512ZM90.7209 26.6512H91.2791V27.2093H90.7209V26.6512ZM91.2791 26.6512H91.8372V27.2093H91.2791V26.6512ZM89.6047 27.7674H90.1628V28.3256H89.6047V27.7674ZM89.6047 28.3256H90.1628V28.8837H89.6047V28.3256ZM90.1628 28.3256H90.7209V28.8837H90.1628V28.3256ZM90.7209 28.3256H91.2791V28.8837H90.7209V28.3256ZM91.2791 28.3256H91.8372V28.8837H91.2791V28.3256ZM91.2791 27.7674H91.8372V28.3256H91.2791V27.7674ZM90.7209 27.7674H91.2791V28.3256H90.7209V27.7674ZM90.1628 27.7674H90.7209V28.3256H90.1628V27.7674ZM91.2791 28.8837H91.8372V29.4419H91.2791V28.8837ZM90.7209 28.8837H91.2791V29.4419H90.7209V28.8837ZM90.7209 29.4419H91.2791V30H90.7209V29.4419ZM91.2791 29.4419H91.8372V30H91.2791V29.4419ZM91.8372 29.4419H92.3953V30H91.8372V29.4419ZM91.8372 28.8837H92.3953V29.4419H91.8372V28.8837ZM92.3953 28.8837H92.9535V29.4419H92.3953V28.8837ZM92.3953 29.4419H92.9535V30H92.3953V29.4419ZM93.5116 27.7674H94.0698V28.3256H93.5116V27.7674ZM93.5116 28.3256H94.0698V28.8837H93.5116V28.3256ZM92.9535 28.3256H93.5116V28.8837H92.9535V28.3256ZM85.6977 18.8372H86.2558V19.3953H85.6977V18.8372ZM85.6977 19.3953H86.2558V19.9535H85.6977V19.3953ZM85.6977 19.9535H86.2558V20.5116H85.6977V19.9535ZM85.6977 20.5116H86.2558V21.0698H85.6977V20.5116ZM85.6977 21.0698H86.2558V21.6279H85.6977V21.0698ZM85.1395 21.0698H85.6977V21.6279H85.1395V21.0698ZM84.0233 19.3953H84.5814V19.9535H84.0233V19.3953ZM84.0233 21.0698H84.5814V21.6279H84.0233V21.0698ZM84.5814 21.0698H85.1395V21.6279H84.5814V21.0698ZM84.5814 17.1628H85.1395V17.7209H84.5814V17.1628ZM84.5814 17.7209H85.1395V18.2791H84.5814V17.7209ZM85.1395 17.1628H85.6977V17.7209H85.1395V17.1628ZM85.1395 17.7209H85.6977V18.2791H85.1395V17.7209ZM85.6977 17.7209H86.2558V18.2791H85.6977V17.7209ZM85.6977 18.2791H86.2558V18.8372H85.6977V18.2791ZM85.1395 18.2791H85.6977V18.8372H85.1395V18.2791ZM84.0233 18.8372H84.5814V19.3953H84.0233V18.8372ZM84.0233 17.7209H84.5814V18.2791H84.0233V17.7209ZM84.0233 18.2791H84.5814V18.8372H84.0233V18.2791ZM84.0233 16.0465H84.5814V16.6047H84.0233V16.0465ZM84.0233 16.6047H84.5814V17.1628H84.0233V16.6047ZM84.5814 16.6047H85.1395V17.1628H84.5814V16.6047ZM83.4651 16.0465H84.0233V16.6047H83.4651V16.0465ZM82.907 16.0465H83.4651V16.6047H82.907V16.0465ZM83.4651 16.6047H84.0233V17.1628H83.4651V16.6047ZM82.3488 16.6047H82.907V17.1628H82.3488V16.6047ZM82.3488 16.0465H82.907V16.6047H82.3488V16.0465ZM84.0233 17.1628H84.5814V17.7209H84.0233V17.1628ZM83.4651 17.1628H84.0233V17.7209H83.4651V17.1628ZM82.3488 17.1628H82.907V17.7209H82.3488V17.1628ZM83.4651 17.7209H84.0233V18.2791H83.4651V17.7209ZM82.907 17.7209H83.4651V18.2791H82.907V17.7209ZM82.3488 17.7209H82.907V18.2791H82.3488V17.7209ZM82.907 17.1628H83.4651V17.7209H82.907V17.1628ZM82.907 16.6047H83.4651V17.1628H82.907V16.6047ZM81.7907 20.5116H82.3488V21.0698H81.7907V20.5116ZM82.3488 20.5116H82.907V21.0698H82.3488V20.5116ZM82.907 20.5116H83.4651V21.0698H82.907V20.5116ZM83.4651 20.5116H84.0233V21.0698H83.4651V20.5116ZM83.4651 21.0698H84.0233V21.6279H83.4651V21.0698ZM82.907 21.0698H83.4651V21.6279H82.907V21.0698ZM82.3488 21.0698H82.907V21.6279H82.3488V21.0698ZM81.7907 21.0698H82.3488V21.6279H81.7907V21.0698ZM84.0233 19.9535H84.5814V20.5116H84.0233V19.9535ZM84.0233 20.5116H84.5814V21.0698H84.0233V20.5116ZM84.5814 18.2791H85.1395V18.8372H84.5814V18.2791ZM84.5814 18.8372H85.1395V19.3953H84.5814V18.8372ZM84.5814 19.3953H85.1395V19.9535H84.5814V19.3953ZM84.5814 19.9535H85.1395V20.5116H84.5814V19.9535ZM84.5814 20.5116H85.1395V21.0698H84.5814V20.5116ZM85.1395 20.5116H85.6977V21.0698H85.1395V20.5116ZM85.1395 19.9535H85.6977V20.5116H85.1395V19.9535ZM85.1395 19.3953H85.6977V19.9535H85.1395V19.3953ZM85.1395 18.8372H85.6977V19.3953H85.1395V18.8372ZM86.2558 18.2791H86.814V18.8372H86.2558V18.2791ZM82.907 18.2791H83.4651V18.8372H82.907V18.2791ZM83.4651 18.8372H84.0233V19.3953H83.4651V18.8372ZM83.4651 18.2791H84.0233V18.8372H83.4651V18.2791ZM85.6977 29.4419H86.2558V30H85.6977V29.4419ZM85.1395 29.4419H85.6977V30H85.1395V29.4419ZM85.1395 28.8837H85.6977V29.4419H85.1395V28.8837ZM85.6977 28.8837H86.2558V29.4419H85.6977V28.8837ZM86.2558 28.3256H86.814V28.8837H86.2558V28.3256ZM86.814 27.7674H87.3721V28.3256H86.814V27.7674ZM86.814 28.3256H87.3721V28.8837H86.814V28.3256ZM87.3721 26.6512H87.9302V27.2093H87.3721V26.6512ZM87.9302 26.6512H88.4884V27.2093H87.9302V26.6512ZM87.9302 27.2093H88.4884V27.7674H87.9302V27.2093ZM83.4651 27.7674H84.0233V28.3256H83.4651V27.7674ZM82.907 27.7674H83.4651V28.3256H82.907V27.7674ZM82.907 28.3256H83.4651V28.8837H82.907V28.3256ZM83.4651 28.3256H84.0233V28.8837H83.4651V28.3256ZM84.5814 28.8837H85.1395V29.4419H84.5814V28.8837ZM84.0233 28.8837H84.5814V29.4419H84.0233V28.8837ZM84.0233 29.4419H84.5814V30H84.0233V29.4419ZM84.5814 29.4419H85.1395V30H84.5814V29.4419ZM84.0233 27.7674H84.5814V28.3256H84.0233V27.7674ZM84.5814 27.7674H85.1395V28.3256H84.5814V27.7674ZM85.6977 28.3256H86.2558V28.8837H85.6977V28.3256ZM85.1395 28.3256H85.6977V28.8837H85.1395V28.3256ZM84.5814 28.3256H85.1395V28.8837H84.5814V28.3256ZM84.0233 28.3256H84.5814V28.8837H84.0233V28.3256ZM83.4651 27.2093H84.0233V27.7674H83.4651V27.2093ZM82.907 27.2093H83.4651V27.7674H82.907V27.2093ZM82.3488 27.7674H82.907V28.3256H82.3488V27.7674ZM81.7907 27.7674H82.3488V28.3256H81.7907V27.7674ZM81.7907 28.3256H82.3488V28.8837H81.7907V28.3256ZM82.3488 28.3256H82.907V28.8837H82.3488V28.3256ZM81.2326 27.7674H81.7907V28.3256H81.2326V27.7674ZM81.2326 28.3256H81.7907V28.8837H81.2326V28.3256ZM80.6744 28.3256H81.2326V28.8837H80.6744V28.3256ZM80.6744 27.7674H81.2326V28.3256H80.6744V27.7674ZM80.1163 28.8837H80.6744V29.4419H80.1163V28.8837ZM79.5581 28.8837H80.1163V29.4419H79.5581V28.8837ZM79.5581 29.4419H80.1163V30H79.5581V29.4419ZM80.1163 28.3256H80.6744V28.8837H80.1163V28.3256ZM81.7907 27.2093H82.3488V27.7674H81.7907V27.2093ZM82.3488 27.2093H82.907V27.7674H82.3488V27.2093ZM86.2558 28.8837H86.814V29.4419H86.2558V28.8837ZM87.3721 27.7674H87.9302V28.3256H87.3721V27.7674ZM83.4651 28.8837H84.0233V29.4419H83.4651V28.8837ZM82.907 28.8837H83.4651V29.4419H82.907V28.8837ZM84.0233 27.2093H84.5814V27.7674H84.0233V27.2093ZM82.3488 28.8837H82.907V29.4419H82.3488V28.8837ZM82.907 29.4419H83.4651V30H82.907V29.4419ZM83.4651 29.4419H84.0233V30H83.4651V29.4419ZM90.1628 28.8837H90.7209V29.4419H90.1628V28.8837ZM92.9535 28.8837H93.5116V29.4419H92.9535V28.8837ZM91.8372 28.3256H92.3953V28.8837H91.8372V28.3256ZM89.0465 17.1628H89.6047V17.7209H89.0465V17.1628ZM89.0465 17.7209H89.6047V18.2791H89.0465V17.7209ZM88.4884 17.7209H89.0465V18.2791H88.4884V17.7209ZM89.0465 18.2791H89.6047V18.8372H89.0465V18.2791ZM81.7907 16.6047H82.3488V17.1628H81.7907V16.6047ZM81.2326 17.1628H81.7907V17.7209H81.2326V17.1628ZM81.7907 17.1628H82.3488V17.7209H81.7907V17.1628ZM80.6744 16.6047H81.2326V17.1628H80.6744V16.6047ZM80.1163 16.6047H80.6744V17.1628H80.1163V16.6047ZM80.1163 16.0465H80.6744V16.6047H80.1163V16.0465ZM80.6744 17.1628H81.2326V17.7209H80.6744V17.1628ZM81.2326 17.7209H81.7907V18.2791H81.2326V17.7209ZM81.7907 17.7209H82.3488V18.2791H81.7907V17.7209ZM101.884 19.9535H102.442V20.5116H101.884V19.9535ZM101.326 19.9535H101.884V20.5116H101.326V19.9535ZM101.326 20.5116H101.884V21.0698H101.326V20.5116ZM101.326 21.0698H101.884V21.6279H101.326V21.0698ZM101.326 21.6279H101.884V22.186H101.326V21.6279ZM101.326 22.186H101.884V22.7442H101.326V22.186ZM101.326 22.7442H101.884V23.3023H101.326V22.7442ZM101.884 22.7442H102.442V23.3023H101.884V22.7442ZM101.884 22.186H102.442V22.7442H101.884V22.186ZM101.884 21.6279H102.442V22.186H101.884V21.6279ZM101.884 21.0698H102.442V21.6279H101.884V21.0698ZM101.884 20.5116H102.442V21.0698H101.884V20.5116ZM99.6517 18.8372H100.21V19.3953H99.6517V18.8372ZM99.6517 19.3953H100.21V19.9535H99.6517V19.3953ZM99.6517 19.9535H100.21V20.5116H99.6517V19.9535ZM99.6517 20.5116H100.21V21.0698H99.6517V20.5116ZM99.6517 21.0698H100.21V21.6279H99.6517V21.0698ZM99.6517 21.6279H100.21V22.186H99.6517V21.6279ZM99.6517 22.186H100.21V22.7442H99.6517V22.186ZM99.6517 22.7442H100.21V23.3023H99.6517V22.7442ZM99.0936 22.7442H99.6517V23.3023H99.0936V22.7442ZM99.0936 22.186H99.6517V22.7442H99.0936V22.186ZM99.0936 21.6279H99.6517V22.186H99.0936V21.6279ZM99.0936 21.0698H99.6517V21.6279H99.0936V21.0698ZM99.0936 20.5116H99.6517V21.0698H99.0936V20.5116ZM99.0936 19.9535H99.6517V20.5116H99.0936V19.9535ZM99.0936 19.3953H99.6517V19.9535H99.0936V19.3953ZM99.0936 18.8372H99.6517V19.3953H99.0936V18.8372ZM97.9773 19.3953H98.5354V19.9535H97.9773V19.3953ZM97.9773 19.9535H98.5354V20.5116H97.9773V19.9535ZM97.9773 20.5116H98.5354V21.0698H97.9773V20.5116ZM97.9773 21.0698H98.5354V21.6279H97.9773V21.0698ZM97.9773 21.6279H98.5354V22.186H97.9773V21.6279ZM97.9773 22.186H98.5354V22.7442H97.9773V22.186ZM97.9773 22.7442H98.5354V23.3023H97.9773V22.7442ZM97.9773 23.3023H98.5354V23.8605H97.9773V23.3023ZM98.5354 22.7442H99.0936V23.3023H98.5354V22.7442ZM98.5354 22.186H99.0936V22.7442H98.5354V22.186ZM98.5354 21.6279H99.0936V22.186H98.5354V21.6279ZM98.5354 21.0698H99.0936V21.6279H98.5354V21.0698ZM98.5354 19.9535H99.0936V20.5116H98.5354V19.9535ZM98.5354 19.3953H99.0936V19.9535H98.5354V19.3953ZM98.5354 18.8372H99.0936V19.3953H98.5354V18.8372ZM98.5354 20.5116H99.0936V21.0698H98.5354V20.5116ZM97.4191 20.5116H97.9773V21.0698H97.4191V20.5116ZM96.861 20.5116H97.4191V21.0698H96.861V20.5116ZM96.3029 20.5116H96.861V21.0698H96.3029V20.5116ZM95.7447 20.5116H96.3029V21.0698H95.7447V20.5116ZM95.7447 21.0698H96.3029V21.6279H95.7447V21.0698ZM96.3029 21.0698H96.861V21.6279H96.3029V21.0698ZM96.861 21.0698H97.4191V21.6279H96.861V21.0698ZM97.4191 21.0698H97.9773V21.6279H97.4191V21.0698ZM97.4191 22.7442H97.9773V23.3023H97.4191V22.7442ZM96.861 22.7442H97.4191V23.3023H96.861V22.7442ZM96.3029 22.7442H96.861V23.3023H96.3029V22.7442ZM95.7447 22.7442H96.3029V23.3023H95.7447V22.7442ZM95.7447 23.3023H96.3029V23.8605H95.7447V23.3023ZM96.3029 23.3023H96.861V23.8605H96.3029V23.3023ZM96.861 23.3023H97.4191V23.8605H96.861V23.3023ZM97.4191 23.3023H97.9773V23.8605H97.4191V23.3023ZM98.5354 23.3023H99.0936V23.8605H98.5354V23.3023ZM99.0936 23.3023H99.6517V23.8605H99.0936V23.3023ZM99.6517 23.3023H100.21V23.8605H99.6517V23.3023ZM101.326 23.3023H101.884V23.8605H101.326V23.3023ZM101.884 23.3023H102.442V23.8605H101.884V23.3023ZM97.9773 23.8605H98.5354V24.4186H97.9773V23.8605ZM97.9773 24.4186H98.5354V24.9767H97.9773V24.4186ZM98.5354 24.4186H99.0936V24.9767H98.5354V24.4186ZM99.0936 24.4186H99.6517V24.9767H99.0936V24.4186ZM99.6517 24.4186H100.21V24.9767H99.6517V24.4186ZM99.6517 23.8605H100.21V24.4186H99.6517V23.8605ZM99.0936 23.8605H99.6517V24.4186H99.0936V23.8605ZM98.5354 23.8605H99.0936V24.4186H98.5354V23.8605ZM101.326 23.8605H101.884V24.4186H101.326V23.8605ZM101.884 23.8605H102.442V24.4186H101.884V23.8605ZM101.884 24.4186H102.442V24.9767H101.884V24.4186ZM101.326 24.4186H101.884V24.9767H101.326V24.4186ZM103.559 16.0465H104.117V16.6047H103.559V16.0465ZM104.117 16.0465H104.675V16.6047H104.117V16.0465ZM104.117 16.6047H104.675V17.1628H104.117V16.6047ZM104.117 17.1628H104.675V17.7209H104.117V17.1628ZM104.117 17.7209H104.675V18.2791H104.117V17.7209ZM103.559 17.7209H104.117V18.2791H103.559V17.7209ZM103.559 18.2791H104.117V18.8372H103.559V18.2791ZM103.559 18.8372H104.117V19.3953H103.559V18.8372ZM103.559 19.3953H104.117V19.9535H103.559V19.3953ZM103.559 19.9535H104.117V20.5116H103.559V19.9535ZM103.559 20.5116H104.117V21.0698H103.559V20.5116ZM103.559 21.0698H104.117V21.6279H103.559V21.0698ZM104.117 20.5116H104.675V21.0698H104.117V20.5116ZM104.117 19.9535H104.675V20.5116H104.117V19.9535ZM104.117 19.3953H104.675V19.9535H104.117V19.3953ZM104.117 18.8372H104.675V19.3953H104.117V18.8372ZM104.117 18.2791H104.675V18.8372H104.117V18.2791ZM104.117 21.0698H104.675V21.6279H104.117V21.0698ZM104.675 17.1628H105.233V17.7209H104.675V17.1628ZM105.233 17.1628H105.791V17.7209H105.233V17.1628ZM105.233 17.7209H105.791V18.2791H105.233V17.7209ZM105.233 18.2791H105.791V18.8372H105.233V18.2791ZM105.233 18.8372H105.791V19.3953H105.233V18.8372ZM104.675 18.8372H105.233V19.3953H104.675V18.8372ZM104.675 19.3953H105.233V19.9535H104.675V19.3953ZM104.675 19.9535H105.233V20.5116H104.675V19.9535ZM104.675 20.5116H105.233V21.0698H104.675V20.5116ZM104.675 18.2791H105.233V18.8372H104.675V18.2791ZM104.675 17.7209H105.233V18.2791H104.675V17.7209ZM104.675 21.0698H105.233V21.6279H104.675V21.0698ZM105.233 20.5116H105.791V21.0698H105.233V20.5116ZM105.233 19.9535H105.791V20.5116H105.233V19.9535ZM105.233 19.3953H105.791V19.9535H105.233V19.3953ZM105.233 21.0698H105.791V21.6279H105.233V21.0698ZM103.559 21.6279H104.117V22.186H103.559V21.6279ZM103.559 22.186H104.117V22.7442H103.559V22.186ZM103.559 22.7442H104.117V23.3023H103.559V22.7442ZM103.559 23.3023H104.117V23.8605H103.559V23.3023ZM103.559 23.8605H104.117V24.4186H103.559V23.8605ZM103.559 24.4186H104.117V24.9767H103.559V24.4186ZM104.117 24.4186H104.675V24.9767H104.117V24.4186ZM104.675 24.4186H105.233V24.9767H104.675V24.4186ZM105.233 24.4186H105.791V24.9767H105.233V24.4186ZM105.233 23.8605H105.791V24.4186H105.233V23.8605ZM105.233 23.3023H105.791V23.8605H105.233V23.3023ZM105.233 22.7442H105.791V23.3023H105.233V22.7442ZM105.233 22.186H105.791V22.7442H105.233V22.186ZM105.233 21.6279H105.791V22.186H105.233V21.6279ZM104.675 21.6279H105.233V22.186H104.675V21.6279ZM104.675 22.186H105.233V22.7442H104.675V22.186ZM104.675 22.7442H105.233V23.3023H104.675V22.7442ZM104.675 23.3023H105.233V23.8605H104.675V23.3023ZM104.675 23.8605H105.233V24.4186H104.675V23.8605ZM104.117 23.8605H104.675V24.4186H104.117V23.8605ZM104.117 23.3023H104.675V23.8605H104.117V23.3023ZM104.117 22.7442H104.675V23.3023H104.117V22.7442ZM104.117 22.186H104.675V22.7442H104.117V22.186ZM104.117 21.6279H104.675V22.186H104.117V21.6279ZM101.326 27.2093H101.884V27.7674H101.326V27.2093ZM101.326 26.6512H101.884V27.2093H101.326V26.6512ZM101.884 26.6512H102.442V27.2093H101.884V26.6512ZM101.884 27.2093H102.442V27.7674H101.884V27.2093ZM101.326 26.093H101.884V26.6512H101.326V26.093ZM101.884 26.093H102.442V26.6512H101.884V26.093ZM101.884 25.5349H102.442V26.093H101.884V25.5349ZM101.884 24.9767H102.442V25.5349H101.884V24.9767ZM101.326 25.5349H101.884V26.093H101.326V25.5349ZM101.326 24.9767H101.884V25.5349H101.326V24.9767ZM99.6517 24.9767H100.21V25.5349H99.6517V24.9767ZM98.5354 24.9767H99.0936V25.5349H98.5354V24.9767ZM99.0936 24.9767H99.6517V25.5349H99.0936V24.9767ZM97.9773 24.9767H98.5354V25.5349H97.9773V24.9767ZM97.9773 26.093H98.5354V26.6512H97.9773V26.093ZM97.9773 25.5349H98.5354V26.093H97.9773V25.5349ZM98.5354 25.5349H99.0936V26.093H98.5354V25.5349ZM99.0936 25.5349H99.6517V26.093H99.0936V25.5349ZM99.6517 25.5349H100.21V26.093H99.6517V25.5349ZM99.6517 26.093H100.21V26.6512H99.6517V26.093ZM99.0936 26.093H99.6517V26.6512H99.0936V26.093ZM98.5354 26.093H99.0936V26.6512H98.5354V26.093ZM103.559 27.2093H104.117V27.7674H103.559V27.2093ZM103.559 26.6512H104.117V27.2093H103.559V26.6512ZM103.559 26.093H104.117V26.6512H103.559V26.093ZM103.559 25.5349H104.117V26.093H103.559V25.5349ZM103.559 24.9767H104.117V25.5349H103.559V24.9767ZM104.117 24.9767H104.675V25.5349H104.117V24.9767ZM104.675 24.9767H105.233V25.5349H104.675V24.9767ZM105.233 24.9767H105.791V25.5349H105.233V24.9767ZM105.233 25.5349H105.791V26.093H105.233V25.5349ZM105.233 26.093H105.791V26.6512H105.233V26.093ZM105.233 26.6512H105.791V27.2093H105.233V26.6512ZM105.233 27.2093H105.791V27.7674H105.233V27.2093ZM104.675 27.2093H105.233V27.7674H104.675V27.2093ZM104.117 27.2093H104.675V27.7674H104.117V27.2093ZM104.117 26.6512H104.675V27.2093H104.117V26.6512ZM104.117 26.093H104.675V26.6512H104.117V26.093ZM104.117 25.5349H104.675V26.093H104.117V25.5349ZM104.675 25.5349H105.233V26.093H104.675V25.5349ZM104.675 26.093H105.233V26.6512H104.675V26.093ZM104.675 26.6512H105.233V27.2093H104.675V26.6512ZM103.559 27.7674H104.117V28.3256H103.559V27.7674ZM103.559 28.3256H104.117V28.8837H103.559V28.3256ZM104.117 28.3256H104.675V28.8837H104.117V28.3256ZM104.117 27.7674H104.675V28.3256H104.117V27.7674ZM105.791 17.1628H106.349V17.7209H105.791V17.1628ZM106.349 17.1628H106.908V17.7209H106.349V17.1628ZM105.791 17.7209H106.349V18.2791H105.791V17.7209ZM106.908 16.6047H107.466V17.1628H106.908V16.6047ZM104.675 16.6047H105.233V17.1628H104.675V16.6047ZM106.349 16.6047H106.908V17.1628H106.349V16.6047ZM98.5354 17.1628H99.0936V17.7209H98.5354V17.1628ZM98.5354 17.7209H99.0936V18.2791H98.5354V17.7209ZM99.0936 17.1628H99.6517V17.7209H99.0936V17.1628ZM99.0936 17.7209H99.6517V18.2791H99.0936V17.7209ZM99.6517 17.7209H100.21V18.2791H99.6517V17.7209ZM99.6517 18.2791H100.21V18.8372H99.6517V18.2791ZM99.0936 18.2791H99.6517V18.8372H99.0936V18.2791ZM98.5354 18.2791H99.0936V18.8372H98.5354V18.2791ZM97.9773 18.8372H98.5354V19.3953H97.9773V18.8372ZM101.884 17.1628H102.442V17.7209H101.884V17.1628ZM101.884 17.7209H102.442V18.2791H101.884V17.7209ZM101.326 17.7209H101.884V18.2791H101.326V17.7209ZM97.9773 17.7209H98.5354V18.2791H97.9773V17.7209ZM97.9773 18.2791H98.5354V18.8372H97.9773V18.2791ZM97.9773 16.0465H98.5354V16.6047H97.9773V16.0465ZM97.9773 16.6047H98.5354V17.1628H97.9773V16.6047ZM98.5354 16.6047H99.0936V17.1628H98.5354V16.6047ZM97.4191 16.0465H97.9773V16.6047H97.4191V16.0465ZM96.861 16.0465H97.4191V16.6047H96.861V16.0465ZM96.861 16.6047H97.4191V17.1628H96.861V16.6047ZM97.4191 16.6047H97.9773V17.1628H97.4191V16.6047ZM96.3029 16.6047H96.861V17.1628H96.3029V16.6047ZM96.3029 16.0465H96.861V16.6047H96.3029V16.0465ZM97.9773 17.1628H98.5354V17.7209H97.9773V17.1628ZM97.4191 17.1628H97.9773V17.7209H97.4191V17.1628ZM96.861 17.1628H97.4191V17.7209H96.861V17.1628ZM96.3029 17.1628H96.861V17.7209H96.3029V17.1628ZM100.768 18.2791H101.326V18.8372H100.768V18.2791ZM100.768 18.8372H101.326V19.3953H100.768V18.8372ZM100.21 18.8372H100.768V19.3953H100.21V18.8372ZM102.442 16.6047H103.001V17.1628H102.442V16.6047ZM103.001 16.0465H103.559V16.6047H103.001V16.0465ZM103.001 16.6047H103.559V17.1628H103.001V16.6047ZM103.559 16.6047H104.117V17.1628H103.559V16.6047ZM103.559 17.1628H104.117V17.7209H103.559V17.1628ZM106.908 16.0465H107.466V16.6047H106.908V16.0465ZM101.884 28.8837H102.442V29.4419H101.884V28.8837ZM101.326 28.8837H101.884V29.4419H101.326V28.8837ZM101.326 29.4419H101.884V30H101.326V29.4419ZM101.884 29.4419H102.442V30H101.884V29.4419ZM101.884 28.3256H102.442V28.8837H101.884V28.3256ZM101.884 27.7674H102.442V28.3256H101.884V27.7674ZM101.326 27.7674H101.884V28.3256H101.326V27.7674ZM101.326 28.3256H101.884V28.8837H101.326V28.3256ZM100.768 28.8837H101.326V29.4419H100.768V28.8837ZM100.768 29.4419H101.326V30H100.768V29.4419ZM100.21 29.4419H100.768V30H100.21V29.4419ZM100.21 28.8837H100.768V29.4419H100.21V28.8837ZM99.6517 26.6512H100.21V27.2093H99.6517V26.6512ZM99.6517 27.2093H100.21V27.7674H99.6517V27.2093ZM99.6517 27.7674H100.21V28.3256H99.6517V27.7674ZM99.6517 29.4419H100.21V30H99.6517V29.4419ZM99.6517 30H100.21V30.5581H99.6517V30ZM99.6517 28.8837H100.21V29.4419H99.6517V28.8837ZM99.6517 28.3256H100.21V28.8837H99.6517V28.3256ZM99.0936 28.8837H99.6517V29.4419H99.0936V28.8837ZM99.0936 28.3256H99.6517V28.8837H99.0936V28.3256ZM99.0936 27.7674H99.6517V28.3256H99.0936V27.7674ZM98.5354 27.2093H99.0936V27.7674H98.5354V27.2093ZM98.5354 26.6512H99.0936V27.2093H98.5354V26.6512ZM97.9773 26.6512H98.5354V27.2093H97.9773V26.6512ZM97.9773 27.2093H98.5354V27.7674H97.9773V27.2093ZM97.9773 28.3256H98.5354V28.8837H97.9773V28.3256ZM97.9773 28.8837H98.5354V29.4419H97.9773V28.8837ZM97.9773 29.4419H98.5354V30H97.9773V29.4419ZM97.9773 30H98.5354V30.5581H97.9773V30ZM98.5354 30H99.0936V30.5581H98.5354V30ZM98.5354 29.4419H99.0936V30H98.5354V29.4419ZM99.0936 29.4419H99.6517V30H99.0936V29.4419ZM99.0936 27.2093H99.6517V27.7674H99.0936V27.2093ZM99.0936 26.6512H99.6517V27.2093H99.0936V26.6512ZM98.5354 27.7674H99.0936V28.3256H98.5354V27.7674ZM98.5354 28.3256H99.0936V28.8837H98.5354V28.3256ZM98.5354 28.8837H99.0936V29.4419H98.5354V28.8837ZM97.9773 27.7674H98.5354V28.3256H97.9773V27.7674ZM97.9773 32.7907H98.5354V33.3488H97.9773V32.7907ZM97.9773 32.2326H98.5354V32.7907H97.9773V32.2326ZM97.9773 31.6744H98.5354V32.2326H97.9773V31.6744ZM97.9773 30.5581H98.5354V31.1163H97.9773V30.5581ZM97.9773 31.1163H98.5354V31.6744H97.9773V31.1163ZM98.5354 32.2326H99.0936V32.7907H98.5354V32.2326ZM99.0936 31.6744H99.6517V32.2326H99.0936V31.6744ZM99.6517 31.1163H100.21V31.6744H99.6517V31.1163ZM99.6517 30.5581H100.21V31.1163H99.6517V30.5581ZM99.0936 30.5581H99.6517V31.1163H99.0936V30.5581ZM99.0936 31.1163H99.6517V31.6744H99.0936V31.1163ZM99.0936 30H99.6517V30.5581H99.0936V30ZM98.5354 30.5581H99.0936V31.1163H98.5354V30.5581ZM98.5354 31.1163H99.0936V31.6744H98.5354V31.1163ZM98.5354 31.6744H99.0936V32.2326H98.5354V31.6744ZM104.675 27.7674H105.233V28.3256H104.675V27.7674ZM103.559 28.8837H104.117V29.4419H103.559V28.8837ZM103.001 28.8837H103.559V29.4419H103.001V28.8837ZM102.442 28.8837H103.001V29.4419H102.442V28.8837ZM102.442 29.4419H103.001V30H102.442V29.4419ZM103.001 29.4419H103.559V30H103.001V29.4419ZM102.442 28.3256H103.001V28.8837H102.442V28.3256ZM103.001 28.3256H103.559V28.8837H103.001V28.3256ZM103.001 27.7674H103.559V28.3256H103.001V27.7674ZM101.326 18.2791H101.884V18.8372H101.326V18.2791ZM100.21 19.3953H100.768V19.9535H100.21V19.3953ZM102.442 17.1628H103.001V17.7209H102.442V17.1628ZM97.4191 17.7209H97.9773V18.2791H97.4191V17.7209ZM96.861 17.7209H97.4191V18.2791H96.861V17.7209ZM97.4191 18.2791H97.9773V18.8372H97.4191V18.2791ZM96.3029 17.7209H96.861V18.2791H96.3029V17.7209ZM96.861 18.2791H97.4191V18.8372H96.861V18.2791ZM97.4191 18.8372H97.9773V19.3953H97.4191V18.8372ZM100.21 18.2791H100.768V18.8372H100.21V18.2791ZM95.7447 16.6047H96.3029V17.1628H95.7447V16.6047ZM95.1866 17.1628H95.7447V17.7209H95.1866V17.1628ZM95.7447 17.1628H96.3029V17.7209H95.7447V17.1628ZM94.6285 16.6047H95.1866V17.1628H94.6285V16.6047ZM94.0703 16.6047H94.6285V17.1628H94.0703V16.6047ZM94.0703 16.0465H94.6285V16.6047H94.0703V16.0465ZM94.6285 17.1628H95.1866V17.7209H94.6285V17.1628ZM95.1866 17.7209H95.7447V18.2791H95.1866V17.7209ZM95.7447 17.7209H96.3029V18.2791H95.7447V17.7209Z" fill="#A00A10"/>
</svg>
