<svg width="137" height="39" viewBox="0 0 137 39" fill="none" xmlns="http://www.w3.org/2000/svg">
<path d="M0.126953 7.27734C0.820964 7.36198 1.52344 7.42122 2.23438 7.45508C2.96224 7.48893 3.6224 7.50586 4.21484 7.50586C4.90885 7.50586 5.58594 7.48893 6.24609 7.45508C6.92318 7.43815 7.63411 7.4043 8.37891 7.35352C9.02214 7.31966 9.75 7.27734 10.5625 7.22656C11.375 7.17578 12.2214 7.125 13.1016 7.07422L13.2539 9.2832C13.2539 9.43555 13.2624 9.63021 13.2793 9.86719C13.2793 10.0703 13.2793 10.3242 13.2793 10.6289C13.2962 10.9336 13.3132 11.2891 13.3301 11.6953C12.7207 12.2201 12.1706 12.7194 11.6797 13.1934C11.2057 13.6504 10.7995 14.0566 10.4609 14.4121C10.0547 14.8353 9.69922 15.2246 9.39453 15.5801C9.00521 16.0371 8.59049 16.5957 8.15039 17.2559C7.71029 17.8991 7.29557 18.5339 6.90625 19.1602C6.53385 19.7695 6.22917 20.3197 5.99219 20.8105C5.75521 21.2845 5.65365 21.5807 5.6875 21.6992C5.70443 21.7839 5.8737 21.8346 6.19531 21.8516C6.51693 21.8516 6.90625 21.8346 7.36328 21.8008C7.83724 21.7669 8.35352 21.7161 8.91211 21.6484C9.48763 21.5638 10.0208 21.4792 10.5117 21.3945C11.0195 21.293 11.4681 21.1914 11.8574 21.0898C12.2467 20.9883 12.5007 20.8867 12.6191 20.7852C12.7715 20.6497 12.9408 20.4043 13.127 20.0488C13.2962 19.7441 13.4824 19.321 13.6855 18.7793C13.9056 18.2207 14.151 17.4759 14.4219 16.5449C14.4388 17.2389 14.4473 17.8314 14.4473 18.3223C14.4642 18.8132 14.4896 19.2279 14.5234 19.5664C14.5404 19.9557 14.5658 20.2773 14.5996 20.5312C14.6165 20.8021 14.6504 21.1068 14.7012 21.4453C14.735 21.7331 14.7773 22.097 14.8281 22.5371C14.8789 22.9772 14.9466 23.4681 15.0312 24.0098C13.8125 23.8574 12.7884 23.7559 11.959 23.7051C11.1296 23.6374 10.4609 23.5951 9.95312 23.5781C9.36068 23.5612 8.88672 23.5612 8.53125 23.5781C8.15885 23.6289 7.65104 23.7051 7.00781 23.8066C6.46615 23.8913 5.74674 24.0267 4.84961 24.2129C3.95247 24.3822 2.82682 24.6107 1.47266 24.8984C1.4388 24.5768 1.40495 24.2975 1.37109 24.0605C1.33724 23.8236 1.30339 23.612 1.26953 23.4258C1.23568 23.2396 1.20182 23.0618 1.16797 22.8926C1.13411 22.7402 1.0918 22.5286 1.04102 22.2578C1.00716 22.0208 0.947917 21.7331 0.863281 21.3945C0.795573 21.0391 0.710938 20.599 0.609375 20.0742C1.625 19.0247 2.46289 18.1445 3.12305 17.4336C3.80013 16.7057 4.3418 16.1133 4.74805 15.6562C5.22201 15.1146 5.5944 14.6829 5.86523 14.3613C6.11914 14.0397 6.44922 13.6504 6.85547 13.1934C7.19401 12.804 7.63411 12.3216 8.17578 11.7461C8.71745 11.1536 9.36914 10.4512 10.1309 9.63867C9.35221 9.60482 8.62435 9.60482 7.94727 9.63867C7.28711 9.67253 6.71159 9.72331 6.2207 9.79102C5.64518 9.85872 5.11198 9.95182 4.62109 10.0703C4.16406 10.2057 3.69857 10.4258 3.22461 10.7305C2.81836 10.9844 2.37826 11.3398 1.9043 11.7969C1.43034 12.2539 0.981771 12.8464 0.558594 13.5742C0.52474 13.0156 0.499349 12.5417 0.482422 12.1523C0.465495 11.763 0.448568 11.4414 0.431641 11.1875C0.414714 10.8997 0.397786 10.6628 0.380859 10.4766C0.380859 10.2904 0.363932 10.0449 0.330078 9.74023C0.296224 9.48633 0.26237 9.16471 0.228516 8.77539C0.194661 8.36914 0.160807 7.86979 0.126953 7.27734ZM22.75 13.625C23.1901 13.625 23.6471 13.7096 24.1211 13.8789C24.5951 14.0312 25.0521 14.2344 25.4922 14.4883C25.9323 14.7253 26.3301 14.9876 26.6855 15.2754C27.0579 15.5462 27.3626 15.8086 27.5996 16.0625C28.0228 16.5195 28.3105 17.1374 28.4629 17.916C28.6322 18.6777 28.666 19.4648 28.5645 20.2773C28.4629 21.0729 28.2259 21.8262 27.8535 22.5371C27.4811 23.248 26.9648 23.7728 26.3047 24.1113C25.8307 24.3483 25.3652 24.5345 24.9082 24.6699C24.4512 24.8053 24.0111 24.9069 23.5879 24.9746C23.1647 25.0423 22.7669 25.0762 22.3945 25.0762C22.0221 25.0762 21.7005 25.0677 21.4297 25.0508C20.9219 25.0169 20.3887 24.8392 19.8301 24.5176C19.2884 24.196 18.7721 23.7982 18.2812 23.3242C17.8073 22.8503 17.401 22.334 17.0625 21.7754C16.724 21.1999 16.5208 20.6582 16.4531 20.1504C16.3516 19.4564 16.3346 18.7285 16.4023 17.9668C16.4701 17.2051 16.7155 16.5026 17.1387 15.8594C17.5788 15.2161 18.2389 14.6829 19.1191 14.2598C20.0163 13.8366 21.2266 13.625 22.75 13.625ZM21.9121 23.4766C22.0983 23.5104 22.3522 23.4681 22.6738 23.3496C22.9954 23.2142 23.3086 23.0026 23.6133 22.7148C23.9349 22.4271 24.2142 22.0632 24.4512 21.623C24.7051 21.166 24.8574 20.6159 24.9082 19.9727C24.959 19.3464 24.959 18.7708 24.9082 18.2461C24.8743 17.7214 24.7982 17.2643 24.6797 16.875C24.5612 16.4688 24.4258 16.1387 24.2734 15.8848C24.1211 15.6309 23.9603 15.4531 23.791 15.3516C23.5033 15.1992 23.1562 15.0807 22.75 14.9961C22.3438 14.8945 21.9967 14.9115 21.709 15.0469C21.5736 15.1146 21.4043 15.2585 21.2012 15.4785C20.998 15.6986 20.7949 15.9779 20.5918 16.3164C20.3887 16.638 20.2025 17.0104 20.0332 17.4336C19.8809 17.8568 19.7708 18.2969 19.7031 18.7539C19.6354 19.2109 19.6185 19.7018 19.6523 20.2266C19.7031 20.7513 19.8132 21.2507 19.9824 21.7246C20.1517 22.1816 20.3887 22.5794 20.6934 22.918C21.015 23.2396 21.4212 23.4258 21.9121 23.4766ZM29.6562 12.9648C30.0456 12.931 30.3757 12.8971 30.6465 12.8633C30.9342 12.8294 31.1712 12.7956 31.3574 12.7617C31.5775 12.7279 31.7637 12.694 31.916 12.6602C32.0684 12.6432 32.2376 12.6094 32.4238 12.5586C32.5931 12.5247 32.7793 12.4824 32.9824 12.4316C33.2025 12.3639 33.4395 12.2878 33.6934 12.2031L33.541 15.4277C33.9134 14.8353 34.3451 14.3867 34.8359 14.082C35.3268 13.7604 35.7923 13.5234 36.2324 13.3711C36.7572 13.1849 37.2819 13.0749 37.8066 13.041C38.3483 13.0579 38.8477 13.1426 39.3047 13.2949C39.694 13.4303 40.0833 13.6419 40.4727 13.9297C40.8789 14.2174 41.1921 14.6406 41.4121 15.1992C41.9876 14.6068 42.5547 14.1497 43.1133 13.8281C43.6888 13.4896 44.1966 13.2357 44.6367 13.0664C45.1615 12.8802 45.6523 12.7702 46.1094 12.7363C46.7188 12.7194 47.2773 12.821 47.7852 13.041C48.3099 13.2611 48.7669 13.5404 49.1562 13.8789C49.5456 14.2005 49.8587 14.5475 50.0957 14.9199C50.3327 15.2754 50.4681 15.5885 50.502 15.8594C50.5527 16.2318 50.5273 16.7142 50.4258 17.3066C50.3242 17.8822 50.2057 18.4746 50.0703 19.084C49.9349 19.6764 49.8079 20.2266 49.6895 20.7344C49.5879 21.2253 49.5456 21.5723 49.5625 21.7754C49.6133 21.9447 49.7318 22.1478 49.918 22.3848C50.0872 22.5879 50.3327 22.8418 50.6543 23.1465C50.9928 23.4342 51.4753 23.7728 52.1016 24.1621C51.5599 24.1452 51.0775 24.1283 50.6543 24.1113C50.248 24.0944 49.901 24.069 49.6133 24.0352C49.2747 24.0013 48.9785 23.9759 48.7246 23.959C48.5215 23.959 48.276 23.9421 47.9883 23.9082C47.7513 23.8913 47.4382 23.8659 47.0488 23.832C46.6764 23.7982 46.2448 23.7643 45.7539 23.7305C45.9401 23.6797 46.0924 23.5866 46.2109 23.4512C46.3294 23.2988 46.431 23.1549 46.5156 23.0195C46.6003 22.8503 46.668 22.6641 46.7188 22.4609C46.7526 22.2917 46.7865 22.0208 46.8203 21.6484C46.8542 21.276 46.8796 20.8529 46.8965 20.3789C46.9303 19.9049 46.9473 19.4056 46.9473 18.8809C46.9642 18.3561 46.9642 17.8568 46.9473 17.3828C46.9303 16.9089 46.8965 16.4772 46.8457 16.0879C46.7949 15.6986 46.7272 15.4023 46.6426 15.1992C46.5749 15.0469 46.4564 14.9284 46.2871 14.8438C46.1178 14.7422 45.9232 14.6829 45.7031 14.666C45.4831 14.6322 45.263 14.6406 45.043 14.6914C44.8229 14.7253 44.6283 14.793 44.459 14.8945C44.3066 15.013 44.1035 15.1738 43.8496 15.377C43.6296 15.5632 43.3418 15.8171 42.9863 16.1387C42.6309 16.4603 42.1823 16.8665 41.6406 17.3574C41.5898 18.4238 41.5475 19.2871 41.5137 19.9473C41.4967 20.5905 41.4798 21.0814 41.4629 21.4199C41.446 21.8262 41.4375 22.1055 41.4375 22.2578C41.4206 22.3932 41.429 22.5202 41.4629 22.6387C41.4967 22.8926 41.5983 23.1296 41.7676 23.3496C41.5645 23.2988 41.3444 23.265 41.1074 23.248C40.8874 23.2311 40.6842 23.2142 40.498 23.1973C40.278 23.1803 40.0579 23.1719 39.8379 23.1719C39.6517 23.1719 39.4486 23.1803 39.2285 23.1973C39.0423 23.2142 38.8138 23.2396 38.543 23.2734C38.2721 23.2904 37.9759 23.3158 37.6543 23.3496C37.7897 23.265 37.8997 23.1634 37.9844 23.0449C38.069 22.9264 38.1367 22.8164 38.1875 22.7148C38.2552 22.5964 38.306 22.4863 38.3398 22.3848C38.3568 22.2832 38.3906 22.0378 38.4414 21.6484C38.4922 21.2422 38.526 20.7682 38.543 20.2266C38.5599 19.6849 38.5599 19.1178 38.543 18.5254C38.526 17.916 38.4668 17.3659 38.3652 16.875C38.2637 16.3672 38.1029 15.9525 37.8828 15.6309C37.6797 15.3092 37.4089 15.1654 37.0703 15.1992C36.6641 15.2331 36.2493 15.3346 35.8262 15.5039C35.4707 15.6393 35.0898 15.8424 34.6836 16.1133C34.2773 16.3841 33.8965 16.748 33.541 17.2051C33.4733 18.4746 33.431 19.4818 33.4141 20.2266C33.4141 20.9714 33.4225 21.5384 33.4395 21.9277C33.4564 22.3848 33.4733 22.6979 33.4902 22.8672C33.5072 22.9857 33.5495 23.1042 33.6172 23.2227C33.668 23.3242 33.7272 23.4427 33.7949 23.5781C33.8796 23.7135 33.9727 23.8405 34.0742 23.959L30.0371 23.7559C30.1725 23.6882 30.291 23.6035 30.3926 23.502C30.4941 23.3835 30.5788 23.265 30.6465 23.1465C30.7142 23.0111 30.7819 22.8757 30.8496 22.7402C30.9004 22.6217 30.9427 22.3424 30.9766 21.9023C31.0273 21.4622 31.0697 20.946 31.1035 20.3535C31.1374 19.7441 31.1628 19.1094 31.1797 18.4492C31.2135 17.7721 31.2305 17.1458 31.2305 16.5703C31.2474 15.9779 31.2559 15.4785 31.2559 15.0723C31.2559 14.6491 31.2474 14.3952 31.2305 14.3105C31.1797 14.1413 31.0866 13.9635 30.9512 13.7773C30.8327 13.6419 30.6719 13.498 30.4688 13.3457C30.2656 13.1764 29.9948 13.0495 29.6562 12.9648ZM52.2285 7.17578C52.6178 7.27734 52.9733 7.35352 53.2949 7.4043C53.6335 7.43815 53.9212 7.46354 54.1582 7.48047C54.446 7.4974 54.7083 7.50586 54.9453 7.50586C55.1823 7.50586 55.4785 7.48893 55.834 7.45508C56.4603 7.4043 57.349 7.27734 58.5 7.07422C58.3138 7.20964 58.1361 7.34505 57.9668 7.48047C57.8145 7.59896 57.679 7.71745 57.5605 7.83594L57.1797 8.2168C56.9596 8.52148 56.7396 9.03776 56.5195 9.76562C56.3333 10.3919 56.1302 11.2721 55.9102 12.4062C55.707 13.5404 55.5208 15.0469 55.3516 16.9258C56.181 16.1133 56.9596 15.5039 57.6875 15.0977C58.4323 14.6745 59.084 14.3698 59.6426 14.1836C60.3027 13.9805 60.9036 13.8704 61.4453 13.8535C62.1393 13.9043 62.7402 14.0482 63.248 14.2852C63.7728 14.5052 64.2129 14.776 64.5684 15.0977C64.9408 15.4023 65.237 15.724 65.457 16.0625C65.694 16.3841 65.8717 16.6719 65.9902 16.9258C66.0579 17.0951 66.1087 17.4082 66.1426 17.8652C66.1934 18.3053 66.2018 18.8132 66.168 19.3887C66.1341 19.9642 66.041 20.5736 65.8887 21.2168C65.7533 21.8431 65.5247 22.4271 65.2031 22.9688C64.8984 23.4935 64.4922 23.9336 63.9844 24.2891C63.4935 24.6445 62.8757 24.8392 62.1309 24.873C61.2676 24.873 60.4297 24.7715 59.6172 24.5684C58.9232 24.3991 58.1868 24.1029 57.4082 23.6797C56.6465 23.2396 55.9948 22.6133 55.4531 21.8008C55.4531 22.0039 55.4531 22.207 55.4531 22.4102C55.4531 22.5964 55.4616 22.7572 55.4785 22.8926C55.4954 23.0788 55.5124 23.2396 55.5293 23.375C55.5462 23.5273 55.5885 23.6882 55.6562 23.8574C55.707 23.9928 55.7832 24.1621 55.8848 24.3652C56.0033 24.5514 56.1556 24.7376 56.3418 24.9238C56.1556 24.9069 55.9694 24.8984 55.7832 24.8984C55.597 24.8815 55.4108 24.8815 55.2246 24.8984C55.0215 24.9154 54.8184 24.9323 54.6152 24.9492C54.4121 24.9661 54.2005 24.9915 53.9805 25.0254C53.7943 25.0592 53.5742 25.1016 53.3203 25.1523C53.0664 25.2031 52.804 25.2624 52.5332 25.3301C52.584 25.1777 52.6263 24.9577 52.6602 24.6699C52.694 24.3652 52.7279 24.0352 52.7617 23.6797C52.8125 23.3073 52.8464 22.918 52.8633 22.5117C52.8971 22.1055 52.931 21.6992 52.9648 21.293C53.0326 20.362 53.0918 19.3464 53.1426 18.2461C53.1934 16.5365 53.2018 14.9453 53.168 13.4727C53.151 12.8464 53.1172 12.2116 53.0664 11.5684C53.0326 10.9251 52.9818 10.3242 52.9141 9.76562C52.8464 9.1901 52.7533 8.68229 52.6348 8.24219C52.5332 7.78516 52.3978 7.42969 52.2285 7.17578ZM55.5293 19.541C55.8001 20.0319 56.0879 20.4551 56.3926 20.8105C56.6973 21.1491 57.002 21.4368 57.3066 21.6738C57.6113 21.9108 57.9076 22.097 58.1953 22.2324C58.5 22.3678 58.7878 22.4694 59.0586 22.5371C59.6849 22.7064 60.3027 22.7233 60.9121 22.5879C61.5215 22.4186 61.9954 22.0801 62.334 21.5723C62.6725 21.0645 62.9349 20.4889 63.1211 19.8457C63.2057 19.541 63.2565 19.1517 63.2734 18.6777C63.3073 18.2038 63.2565 17.7467 63.1211 17.3066C63.0026 16.8496 62.7826 16.4518 62.4609 16.1133C62.1393 15.7578 61.6738 15.5462 61.0645 15.4785C60.6413 15.4785 60.1504 15.597 59.5918 15.834C59.1009 16.0371 58.5169 16.3757 57.8398 16.8496C57.1628 17.3066 56.3926 17.9922 55.5293 18.9062V19.541ZM74.166 13.625C74.6061 13.625 75.0632 13.7096 75.5371 13.8789C76.0111 14.0312 76.4681 14.2344 76.9082 14.4883C77.3483 14.7253 77.7461 14.9876 78.1016 15.2754C78.474 15.5462 78.7786 15.8086 79.0156 16.0625C79.4388 16.5195 79.7266 17.1374 79.8789 17.916C80.0482 18.6777 80.082 19.4648 79.9805 20.2773C79.8789 21.0729 79.6419 21.8262 79.2695 22.5371C78.8971 23.248 78.3809 23.7728 77.7207 24.1113C77.2467 24.3483 76.7812 24.5345 76.3242 24.6699C75.8672 24.8053 75.4271 24.9069 75.0039 24.9746C74.5807 25.0423 74.1829 25.0762 73.8105 25.0762C73.4382 25.0762 73.1165 25.0677 72.8457 25.0508C72.3379 25.0169 71.8047 24.8392 71.2461 24.5176C70.7044 24.196 70.1882 23.7982 69.6973 23.3242C69.2233 22.8503 68.8171 22.334 68.4785 21.7754C68.14 21.1999 67.9368 20.6582 67.8691 20.1504C67.7676 19.4564 67.7507 18.7285 67.8184 17.9668C67.8861 17.2051 68.1315 16.5026 68.5547 15.8594C68.9948 15.2161 69.6549 14.6829 70.5352 14.2598C71.4323 13.8366 72.6426 13.625 74.166 13.625ZM73.3281 23.4766C73.5143 23.5104 73.7682 23.4681 74.0898 23.3496C74.4115 23.2142 74.7246 23.0026 75.0293 22.7148C75.3509 22.4271 75.6302 22.0632 75.8672 21.623C76.1211 21.166 76.2734 20.6159 76.3242 19.9727C76.375 19.3464 76.375 18.7708 76.3242 18.2461C76.2904 17.7214 76.2142 17.2643 76.0957 16.875C75.9772 16.4688 75.8418 16.1387 75.6895 15.8848C75.5371 15.6309 75.3763 15.4531 75.207 15.3516C74.9193 15.1992 74.5723 15.0807 74.166 14.9961C73.7598 14.8945 73.4128 14.9115 73.125 15.0469C72.9896 15.1146 72.8203 15.2585 72.6172 15.4785C72.4141 15.6986 72.2109 15.9779 72.0078 16.3164C71.8047 16.638 71.6185 17.0104 71.4492 17.4336C71.2969 17.8568 71.1868 18.2969 71.1191 18.7539C71.0514 19.2109 71.0345 19.7018 71.0684 20.2266C71.1191 20.7513 71.2292 21.2507 71.3984 21.7246C71.5677 22.1816 71.8047 22.5794 72.1094 22.918C72.431 23.2396 72.8372 23.4258 73.3281 23.4766ZM81.1992 13.6504L85.8711 13.7012C85.6003 14.7337 85.3971 15.6139 85.2617 16.3418C85.1432 17.0697 85.0671 17.679 85.0332 18.1699C84.9655 18.7285 84.9486 19.2025 84.9824 19.5918C85.0332 19.9473 85.1178 20.3281 85.2363 20.7344C85.3379 21.0729 85.4902 21.4622 85.6934 21.9023C85.8965 22.3424 86.1673 22.7826 86.5059 23.2227C86.3027 23.1549 86.0827 23.1042 85.8457 23.0703C85.6087 23.0365 85.3887 23.0111 85.1855 22.9941C84.9486 22.9772 84.7116 22.9772 84.4746 22.9941C84.2376 23.0111 83.9753 23.0365 83.6875 23.0703C83.4505 23.1042 83.1628 23.1465 82.8242 23.1973C82.4857 23.248 82.1302 23.3158 81.7578 23.4004C82.0117 22.6387 82.2064 21.9785 82.3418 21.4199C82.4941 20.8613 82.6042 20.3958 82.6719 20.0234C82.7396 19.5833 82.7819 19.2279 82.7988 18.957C82.7988 18.6185 82.7988 18.2376 82.7988 17.8145C82.7988 17.3743 82.7988 16.9512 82.7988 16.5449C82.7988 16.1387 82.7904 15.7832 82.7734 15.4785C82.7565 15.1569 82.7227 14.9538 82.6719 14.8691L82.418 14.6152C82.3164 14.5306 82.1641 14.4121 81.9609 14.2598C81.7747 14.0905 81.5208 13.8874 81.1992 13.6504ZM83.002 9.74023C83.3574 9.55404 83.7129 9.50326 84.0684 9.58789C84.4408 9.67253 84.7285 9.83333 84.9316 10.0703C85.1348 10.3073 85.2025 10.5866 85.1348 10.9082C85.084 11.2298 84.8132 11.543 84.3223 11.8477C83.8314 12.1354 83.3997 12.237 83.0273 12.1523C82.6549 12.0677 82.3926 11.89 82.2402 11.6191C82.0879 11.3483 82.0625 11.0352 82.1641 10.6797C82.2656 10.3073 82.5449 9.99414 83.002 9.74023ZM99.8867 5.55078C100.208 5.56771 100.555 5.57617 100.928 5.57617C101.249 5.57617 101.613 5.58464 102.02 5.60156C102.443 5.60156 102.883 5.58464 103.34 5.55078C102.934 5.73698 102.578 6.00781 102.273 6.36328C101.969 6.71875 101.723 7.07422 101.537 7.42969C101.3 7.85286 101.105 8.29297 100.953 8.75C100.868 9.02083 100.801 9.50326 100.75 10.1973C100.699 10.8743 100.657 11.6699 100.623 12.584C100.606 13.498 100.598 14.4629 100.598 15.4785C100.598 16.4941 100.606 17.4674 100.623 18.3984C100.64 19.3125 100.665 20.125 100.699 20.8359C100.733 21.5469 100.775 22.0462 100.826 22.334C100.894 22.6725 100.979 22.9941 101.08 23.2988C101.165 23.5697 101.275 23.849 101.41 24.1367C101.546 24.4076 101.715 24.6276 101.918 24.7969L99.3281 25.9648C99.1927 25.7786 99.0827 25.584 98.998 25.3809C98.9134 25.1947 98.8457 25.0254 98.7949 24.873C98.7272 24.6868 98.6849 24.5176 98.668 24.3652C98.6341 24.1621 98.6003 23.9421 98.5664 23.7051C98.5326 23.4512 98.4902 23.2142 98.4395 22.9941C98.4056 22.7572 98.3802 22.5625 98.3633 22.4102C98.3464 22.2578 98.3464 22.1647 98.3633 22.1309C98.3802 22.097 98.2786 22.2493 98.0586 22.5879C97.8385 22.9095 97.5085 23.2904 97.0684 23.7305C96.6452 24.1536 96.1204 24.5684 95.4941 24.9746C94.8678 25.3639 94.1654 25.6094 93.3867 25.7109C92.5911 25.8125 91.8548 25.6602 91.1777 25.2539C90.5176 24.8477 89.9505 24.2806 89.4766 23.5527C89.0026 22.8079 88.6387 21.9531 88.3848 20.9883C88.1478 20.0065 88.0547 19.0078 88.1055 17.9922C88.1393 17.3151 88.2917 16.7142 88.5625 16.1895C88.8333 15.6478 89.1719 15.1823 89.5781 14.793C90.0013 14.3867 90.4583 14.0482 90.9492 13.7773C91.457 13.4896 91.9479 13.2526 92.4219 13.0664C92.9128 12.8802 93.3698 12.7448 93.793 12.6602C94.2161 12.5755 94.5547 12.5163 94.8086 12.4824C95.1133 12.4655 95.4603 12.5163 95.8496 12.6348C96.1882 12.7363 96.5775 12.9056 97.0176 13.1426C97.4746 13.3796 97.9824 13.735 98.541 14.209C98.4395 12.5163 98.3464 11.1621 98.2617 10.1465C98.1771 9.11393 98.0924 8.32682 98.0078 7.78516C97.9232 7.14193 97.847 6.70182 97.7793 6.46484C97.6947 6.29557 97.5846 6.1263 97.4492 5.95703C97.3307 5.82161 97.1784 5.6862 96.9922 5.55078C96.8229 5.39844 96.6198 5.27995 96.3828 5.19531C96.8229 5.27995 97.2461 5.33919 97.6523 5.37305C98.0586 5.4069 98.431 5.44076 98.7695 5.47461C99.1589 5.50846 99.5312 5.53385 99.8867 5.55078ZM93.5137 15.0215C93.1921 15.14 92.9297 15.3431 92.7266 15.6309C92.5404 15.9186 92.388 16.2656 92.2695 16.6719C92.151 17.0612 92.0664 17.4844 92.0156 17.9414C91.9818 18.3815 91.9564 18.8132 91.9395 19.2363C91.9395 19.6426 91.9395 20.015 91.9395 20.3535C91.9395 20.6921 91.9395 20.946 91.9395 21.1152C91.9395 21.2168 91.9564 21.403 91.9902 21.6738C92.041 21.9277 92.1426 22.1986 92.2949 22.4863C92.4473 22.7572 92.6589 23.0026 92.9297 23.2227C93.2174 23.4427 93.5983 23.5527 94.0723 23.5527C94.4616 23.5189 94.8763 23.3835 95.3164 23.1465C95.7057 22.9434 96.1458 22.6217 96.6367 22.1816C97.1445 21.7246 97.6862 21.0729 98.2617 20.2266C98.2279 19.6849 98.2025 19.2363 98.1855 18.8809C98.1855 18.5254 98.1771 18.2376 98.1602 18.0176C98.1432 17.7637 98.1348 17.5605 98.1348 17.4082V17.0273C98.1348 16.9258 98.1348 16.8158 98.1348 16.6973C98.1348 16.5788 98.1432 16.4688 98.1602 16.3672C97.6862 16.0286 97.263 15.7409 96.8906 15.5039C96.5352 15.25 96.1797 15.0638 95.8242 14.9453C95.4857 14.8099 95.1302 14.7507 94.7578 14.7676C94.4023 14.7676 93.9876 14.8522 93.5137 15.0215Z" fill="#A4A4A4"/>
<path d="M113.419 21.2791H114.07V21.9302H113.419V21.2791ZM112.767 21.2791H113.419V21.9302H112.767V21.2791ZM112.767 21.9302H113.419V22.5814H112.767V21.9302ZM112.767 22.5814H113.419V23.2326H112.767V22.5814ZM113.419 22.5814H114.07V23.2326H113.419V22.5814ZM113.419 21.9302H114.07V22.5814H113.419V21.9302ZM110.814 23.2326H111.465V23.8837H110.814V23.2326ZM110.814 23.8837H111.465V24.5349H110.814V23.8837ZM110.814 24.5349H111.465V25.186H110.814V24.5349ZM110.163 24.5349H110.814V25.186H110.163V24.5349ZM110.163 23.8837H110.814V24.5349H110.163V23.8837ZM110.163 23.2326H110.814V23.8837H110.163V23.2326ZM108.86 23.2326H109.512V23.8837H108.86V23.2326ZM108.86 23.8837H109.512V24.5349H108.86V23.8837ZM108.86 24.5349H109.512V25.186H108.86V24.5349ZM108.86 25.186H109.512V25.8372H108.86V25.186ZM109.512 24.5349H110.163V25.186H109.512V24.5349ZM109.512 23.8837H110.163V24.5349H109.512V23.8837ZM109.512 23.2326H110.163V23.8837H109.512V23.2326ZM108.209 24.5349H108.86V25.186H108.209V24.5349ZM107.558 24.5349H108.209V25.186H107.558V24.5349ZM106.907 24.5349H107.558V25.186H106.907V24.5349ZM106.256 24.5349H106.907V25.186H106.256V24.5349ZM106.256 25.186H106.907V25.8372H106.256V25.186ZM106.907 25.186H107.558V25.8372H106.907V25.186ZM107.558 25.186H108.209V25.8372H107.558V25.186ZM108.209 25.186H108.86V25.8372H108.209V25.186ZM109.512 25.186H110.163V25.8372H109.512V25.186ZM110.163 25.186H110.814V25.8372H110.163V25.186ZM110.814 25.186H111.465V25.8372H110.814V25.186ZM115.372 16.7209H116.023V17.3721H115.372V16.7209ZM116.023 16.7209H116.674V17.3721H116.023V16.7209ZM116.023 17.3721H116.674V18.0233H116.023V17.3721ZM116.023 18.0233H116.674V18.6744H116.023V18.0233ZM116.023 18.6744H116.674V19.3256H116.023V18.6744ZM115.372 18.6744H116.023V19.3256H115.372V18.6744ZM115.372 19.3256H116.023V19.9767H115.372V19.3256ZM115.372 19.9767H116.023V20.6279H115.372V19.9767ZM115.372 20.6279H116.023V21.2791H115.372V20.6279ZM115.372 21.2791H116.023V21.9302H115.372V21.2791ZM115.372 21.9302H116.023V22.5814H115.372V21.9302ZM115.372 22.5814H116.023V23.2326H115.372V22.5814ZM116.023 21.9302H116.674V22.5814H116.023V21.9302ZM116.023 21.2791H116.674V21.9302H116.023V21.2791ZM116.023 20.6279H116.674V21.2791H116.023V20.6279ZM116.023 19.9767H116.674V20.6279H116.023V19.9767ZM116.023 19.3256H116.674V19.9767H116.023V19.3256ZM116.023 22.5814H116.674V23.2326H116.023V22.5814ZM116.674 18.0233H117.326V18.6744H116.674V18.0233ZM117.326 18.0233H117.977V18.6744H117.326V18.0233ZM117.326 18.6744H117.977V19.3256H117.326V18.6744ZM117.326 19.3256H117.977V19.9767H117.326V19.3256ZM117.326 19.9767H117.977V20.6279H117.326V19.9767ZM116.674 19.9767H117.326V20.6279H116.674V19.9767ZM116.674 20.6279H117.326V21.2791H116.674V20.6279ZM116.674 21.2791H117.326V21.9302H116.674V21.2791ZM116.674 21.9302H117.326V22.5814H116.674V21.9302ZM116.674 19.3256H117.326V19.9767H116.674V19.3256ZM116.674 18.6744H117.326V19.3256H116.674V18.6744ZM116.674 22.5814H117.326V23.2326H116.674V22.5814ZM117.326 21.9302H117.977V22.5814H117.326V21.9302ZM117.326 21.2791H117.977V21.9302H117.326V21.2791ZM117.326 20.6279H117.977V21.2791H117.326V20.6279ZM115.372 23.2326H116.023V23.8837H115.372V23.2326ZM115.372 23.8837H116.023V24.5349H115.372V23.8837ZM116.023 23.2326H116.674V23.8837H116.023V23.2326ZM117.977 18.0233H118.628V18.6744H117.977V18.0233ZM118.628 18.0233H119.279V18.6744H118.628V18.0233ZM117.977 18.6744H118.628V19.3256H117.977V18.6744ZM119.279 17.3721H119.93V18.0233H119.279V17.3721ZM116.674 17.3721H117.326V18.0233H116.674V17.3721ZM118.628 17.3721H119.279V18.0233H118.628V17.3721ZM113.419 18.0233H114.07V18.6744H113.419V18.0233ZM113.419 18.6744H114.07V19.3256H113.419V18.6744ZM112.767 18.6744H113.419V19.3256H112.767V18.6744ZM112.116 19.3256H112.767V19.9767H112.116V19.3256ZM112.116 19.9767H112.767V20.6279H112.116V19.9767ZM111.465 19.9767H112.116V20.6279H111.465V19.9767ZM114.07 17.3721H114.721V18.0233H114.07V17.3721ZM114.721 16.7209H115.372V17.3721H114.721V16.7209ZM114.721 17.3721H115.372V18.0233H114.721V17.3721ZM115.372 17.3721H116.023V18.0233H115.372V17.3721ZM115.372 18.0233H116.023V18.6744H115.372V18.0233ZM119.279 16.7209H119.93V17.3721H119.279V16.7209ZM112.767 19.3256H113.419V19.9767H112.767V19.3256ZM111.465 20.6279H112.116V21.2791H111.465V20.6279ZM114.07 18.0233H114.721V18.6744H114.07V18.0233ZM114.721 24.5349H115.372V25.186H114.721V24.5349ZM114.07 24.5349H114.721V25.186H114.07V24.5349ZM114.07 25.186H114.721V25.8372H114.07V25.186ZM114.721 25.186H115.372V25.8372H114.721V25.186ZM113.419 24.5349H114.07V25.186H113.419V24.5349ZM112.767 24.5349H113.419V25.186H112.767V24.5349ZM112.767 25.186H113.419V25.8372H112.767V25.186ZM113.419 25.186H114.07V25.8372H113.419V25.186ZM108.86 25.8372H109.512V26.4884H108.86V25.8372ZM108.86 26.4884H109.512V27.1395H108.86V26.4884ZM109.512 26.4884H110.163V27.1395H109.512V26.4884ZM109.512 25.8372H110.163V26.4884H109.512V25.8372ZM109.512 27.1395H110.163V27.7907H109.512V27.1395ZM109.512 27.7907H110.163V28.4419H109.512V27.7907ZM108.86 27.7907H109.512V28.4419H108.86V27.7907ZM108.86 27.1395H109.512V27.7907H108.86V27.1395ZM110.163 27.1395H110.814V27.7907H110.163V27.1395ZM110.163 26.4884H110.814V27.1395H110.163V26.4884ZM110.163 25.8372H110.814V26.4884H110.163V25.8372ZM110.814 25.8372H111.465V26.4884H110.814V25.8372ZM110.814 26.4884H111.465V27.1395H110.814V26.4884ZM110.814 27.1395H111.465V27.7907H110.814V27.1395ZM110.814 27.7907H111.465V28.4419H110.814V27.7907ZM110.163 27.7907H110.814V28.4419H110.163V27.7907ZM112.767 27.1395H113.419V27.7907H112.767V27.1395ZM113.419 27.1395H114.07V27.7907H113.419V27.1395ZM113.419 27.7907H114.07V28.4419H113.419V27.7907ZM112.767 27.7907H113.419V28.4419H112.767V27.7907ZM112.767 28.4419H113.419V29.093H112.767V28.4419ZM113.419 28.4419H114.07V29.093H113.419V28.4419ZM112.767 29.7442H113.419V30.3953H112.767V29.7442ZM115.372 25.8372H116.023V26.4884H115.372V25.8372ZM116.023 25.8372H116.674V26.4884H116.023V25.8372ZM116.023 26.4884H116.674V27.1395H116.023V26.4884ZM116.023 27.1395H116.674V27.7907H116.023V27.1395ZM116.023 27.7907H116.674V28.4419H116.023V27.7907ZM115.372 27.7907H116.023V28.4419H115.372V27.7907ZM115.372 28.4419H116.023V29.093H115.372V28.4419ZM115.372 27.1395H116.023V27.7907H115.372V27.1395ZM115.372 26.4884H116.023V27.1395H115.372V26.4884ZM115.372 29.7442H116.023V30.3953H115.372V29.7442ZM116.023 29.7442H116.674V30.3953H116.023V29.7442ZM116.023 28.4419H116.674V29.093H116.023V28.4419ZM116.674 26.4884H117.326V27.1395H116.674V26.4884ZM117.326 27.1395H117.977V27.7907H117.326V27.1395ZM117.326 27.7907H117.977V28.4419H117.326V27.7907ZM116.674 27.7907H117.326V28.4419H116.674V27.7907ZM116.674 27.1395H117.326V27.7907H116.674V27.1395ZM116.674 28.4419H117.326V29.093H116.674V28.4419ZM117.326 28.4419H117.977V29.093H117.326V28.4419ZM116.674 29.7442H117.326V30.3953H116.674V29.7442ZM117.326 29.7442H117.977V30.3953H117.326V29.7442ZM108.86 28.4419H109.512V29.093H108.86V28.4419ZM109.512 28.4419H110.163V29.093H109.512V28.4419ZM110.163 28.4419H110.814V29.093H110.163V28.4419ZM110.163 29.7442H110.814V30.3953H110.163V29.7442ZM110.814 29.7442H111.465V30.3953H110.814V29.7442ZM110.814 28.4419H111.465V29.093H110.814V28.4419ZM109.512 29.7442H110.163V30.3953H109.512V29.7442ZM108.86 29.093H109.512V29.7442H108.86V29.093ZM109.512 29.093H110.163V29.7442H109.512V29.093ZM110.163 29.093H110.814V29.7442H110.163V29.093ZM110.814 29.093H111.465V29.7442H110.814V29.093ZM115.372 29.093H116.023V29.7442H115.372V29.093ZM116.023 29.093H116.674V29.7442H116.023V29.093ZM116.674 29.093H117.326V29.7442H116.674V29.093ZM117.326 29.093H117.977V29.7442H117.326V29.093ZM115.372 30.3953H116.023V31.0465H115.372V30.3953ZM115.372 31.0465H116.023V31.6977H115.372V31.0465ZM116.023 31.0465H116.674V31.6977H116.023V31.0465ZM116.674 31.0465H117.326V31.6977H116.674V31.0465ZM117.326 31.0465H117.977V31.6977H117.326V31.0465ZM117.326 30.3953H117.977V31.0465H117.326V30.3953ZM116.674 30.3953H117.326V31.0465H116.674V30.3953ZM116.023 30.3953H116.674V31.0465H116.023V30.3953ZM117.326 31.6977H117.977V32.3488H117.326V31.6977ZM116.674 31.6977H117.326V32.3488H116.674V31.6977ZM116.674 32.3488H117.326V33H116.674V32.3488ZM117.326 32.3488H117.977V33H117.326V32.3488ZM117.977 32.3488H118.628V33H117.977V32.3488ZM117.977 31.6977H118.628V32.3488H117.977V31.6977ZM118.628 31.6977H119.279V32.3488H118.628V31.6977ZM118.628 32.3488H119.279V33H118.628V32.3488ZM119.93 30.3953H120.581V31.0465H119.93V30.3953ZM119.93 31.0465H120.581V31.6977H119.93V31.0465ZM119.279 31.0465H119.93V31.6977H119.279V31.0465ZM110.814 19.9767H111.465V20.6279H110.814V19.9767ZM110.814 20.6279H111.465V21.2791H110.814V20.6279ZM110.814 21.2791H111.465V21.9302H110.814V21.2791ZM110.814 21.9302H111.465V22.5814H110.814V21.9302ZM110.814 22.5814H111.465V23.2326H110.814V22.5814ZM110.163 22.5814H110.814V23.2326H110.163V22.5814ZM108.86 20.6279H109.512V21.2791H108.86V20.6279ZM108.86 22.5814H109.512V23.2326H108.86V22.5814ZM109.512 22.5814H110.163V23.2326H109.512V22.5814ZM109.512 18.0233H110.163V18.6744H109.512V18.0233ZM109.512 18.6744H110.163V19.3256H109.512V18.6744ZM110.163 18.0233H110.814V18.6744H110.163V18.0233ZM110.163 18.6744H110.814V19.3256H110.163V18.6744ZM110.814 18.6744H111.465V19.3256H110.814V18.6744ZM110.814 19.3256H111.465V19.9767H110.814V19.3256ZM110.163 19.3256H110.814V19.9767H110.163V19.3256ZM108.86 19.9767H109.512V20.6279H108.86V19.9767ZM108.86 18.6744H109.512V19.3256H108.86V18.6744ZM108.86 19.3256H109.512V19.9767H108.86V19.3256ZM108.86 16.7209H109.512V17.3721H108.86V16.7209ZM108.86 17.3721H109.512V18.0233H108.86V17.3721ZM109.512 17.3721H110.163V18.0233H109.512V17.3721ZM108.209 16.7209H108.86V17.3721H108.209V16.7209ZM107.558 16.7209H108.209V17.3721H107.558V16.7209ZM108.209 17.3721H108.86V18.0233H108.209V17.3721ZM106.907 17.3721H107.558V18.0233H106.907V17.3721ZM106.907 16.7209H107.558V17.3721H106.907V16.7209ZM108.86 18.0233H109.512V18.6744H108.86V18.0233ZM108.209 18.0233H108.86V18.6744H108.209V18.0233ZM106.907 18.0233H107.558V18.6744H106.907V18.0233ZM108.209 18.6744H108.86V19.3256H108.209V18.6744ZM107.558 18.6744H108.209V19.3256H107.558V18.6744ZM106.907 18.6744H107.558V19.3256H106.907V18.6744ZM107.558 18.0233H108.209V18.6744H107.558V18.0233ZM107.558 17.3721H108.209V18.0233H107.558V17.3721ZM106.256 21.9302H106.907V22.5814H106.256V21.9302ZM106.907 21.9302H107.558V22.5814H106.907V21.9302ZM107.558 21.9302H108.209V22.5814H107.558V21.9302ZM108.209 21.9302H108.86V22.5814H108.209V21.9302ZM108.209 22.5814H108.86V23.2326H108.209V22.5814ZM107.558 22.5814H108.209V23.2326H107.558V22.5814ZM106.907 22.5814H107.558V23.2326H106.907V22.5814ZM106.256 22.5814H106.907V23.2326H106.256V22.5814ZM108.86 21.2791H109.512V21.9302H108.86V21.2791ZM108.86 21.9302H109.512V22.5814H108.86V21.9302ZM109.512 19.3256H110.163V19.9767H109.512V19.3256ZM109.512 19.9767H110.163V20.6279H109.512V19.9767ZM109.512 20.6279H110.163V21.2791H109.512V20.6279ZM109.512 21.2791H110.163V21.9302H109.512V21.2791ZM109.512 21.9302H110.163V22.5814H109.512V21.9302ZM110.163 21.9302H110.814V22.5814H110.163V21.9302ZM110.163 21.2791H110.814V21.9302H110.163V21.2791ZM110.163 20.6279H110.814V21.2791H110.163V20.6279ZM110.163 19.9767H110.814V20.6279H110.163V19.9767ZM111.465 19.3256H112.116V19.9767H111.465V19.3256ZM107.558 19.3256H108.209V19.9767H107.558V19.3256ZM108.209 19.9767H108.86V20.6279H108.209V19.9767ZM108.209 19.3256H108.86V19.9767H108.209V19.3256ZM110.814 32.3488H111.465V33H110.814V32.3488ZM110.163 32.3488H110.814V33H110.163V32.3488ZM110.163 31.6977H110.814V32.3488H110.163V31.6977ZM110.814 31.6977H111.465V32.3488H110.814V31.6977ZM111.465 31.0465H112.116V31.6977H111.465V31.0465ZM112.116 30.3953H112.767V31.0465H112.116V30.3953ZM112.116 31.0465H112.767V31.6977H112.116V31.0465ZM112.767 29.093H113.419V29.7442H112.767V29.093ZM113.419 29.093H114.07V29.7442H113.419V29.093ZM113.419 29.7442H114.07V30.3953H113.419V29.7442ZM108.209 30.3953H108.86V31.0465H108.209V30.3953ZM107.558 30.3953H108.209V31.0465H107.558V30.3953ZM107.558 31.0465H108.209V31.6977H107.558V31.0465ZM108.209 31.0465H108.86V31.6977H108.209V31.0465ZM109.512 31.6977H110.163V32.3488H109.512V31.6977ZM108.86 31.6977H109.512V32.3488H108.86V31.6977ZM108.86 32.3488H109.512V33H108.86V32.3488ZM109.512 32.3488H110.163V33H109.512V32.3488ZM108.86 30.3953H109.512V31.0465H108.86V30.3953ZM109.512 30.3953H110.163V31.0465H109.512V30.3953ZM110.814 31.0465H111.465V31.6977H110.814V31.0465ZM110.163 31.0465H110.814V31.6977H110.163V31.0465ZM109.512 31.0465H110.163V31.6977H109.512V31.0465ZM108.86 31.0465H109.512V31.6977H108.86V31.0465ZM108.209 29.7442H108.86V30.3953H108.209V29.7442ZM107.558 29.7442H108.209V30.3953H107.558V29.7442ZM106.907 30.3953H107.558V31.0465H106.907V30.3953ZM106.256 30.3953H106.907V31.0465H106.256V30.3953ZM106.256 31.0465H106.907V31.6977H106.256V31.0465ZM106.907 31.0465H107.558V31.6977H106.907V31.0465ZM105.605 30.3953H106.256V31.0465H105.605V30.3953ZM105.605 31.0465H106.256V31.6977H105.605V31.0465ZM104.953 31.0465H105.605V31.6977H104.953V31.0465ZM104.953 30.3953H105.605V31.0465H104.953V30.3953ZM104.302 31.6977H104.953V32.3488H104.302V31.6977ZM103.651 31.6977H104.302V32.3488H103.651V31.6977ZM103.651 32.3488H104.302V33H103.651V32.3488ZM104.302 31.0465H104.953V31.6977H104.302V31.0465ZM106.256 29.7442H106.907V30.3953H106.256V29.7442ZM106.907 29.7442H107.558V30.3953H106.907V29.7442ZM111.465 31.6977H112.116V32.3488H111.465V31.6977ZM112.767 30.3953H113.419V31.0465H112.767V30.3953ZM108.209 31.6977H108.86V32.3488H108.209V31.6977ZM107.558 31.6977H108.209V32.3488H107.558V31.6977ZM108.86 29.7442H109.512V30.3953H108.86V29.7442ZM106.907 31.6977H107.558V32.3488H106.907V31.6977ZM107.558 32.3488H108.209V33H107.558V32.3488ZM108.209 32.3488H108.86V33H108.209V32.3488ZM116.023 31.6977H116.674V32.3488H116.023V31.6977ZM119.279 31.6977H119.93V32.3488H119.279V31.6977ZM117.977 31.0465H118.628V31.6977H117.977V31.0465ZM114.721 18.0233H115.372V18.6744H114.721V18.0233ZM114.721 18.6744H115.372V19.3256H114.721V18.6744ZM114.07 18.6744H114.721V19.3256H114.07V18.6744ZM114.721 19.3256H115.372V19.9767H114.721V19.3256ZM106.256 17.3721H106.907V18.0233H106.256V17.3721ZM105.605 18.0233H106.256V18.6744H105.605V18.0233ZM106.256 18.0233H106.907V18.6744H106.256V18.0233ZM104.953 17.3721H105.605V18.0233H104.953V17.3721ZM104.302 17.3721H104.953V18.0233H104.302V17.3721ZM104.302 16.7209H104.953V17.3721H104.302V16.7209ZM104.953 18.0233H105.605V18.6744H104.953V18.0233ZM105.605 18.6744H106.256V19.3256H105.605V18.6744ZM106.256 18.6744H106.907V19.3256H106.256V18.6744ZM129.698 21.2791H130.349V21.9302H129.698V21.2791ZM129.047 21.2791H129.698V21.9302H129.047V21.2791ZM129.047 21.9302H129.698V22.5814H129.047V21.9302ZM129.047 22.5814H129.698V23.2326H129.047V22.5814ZM129.047 23.2326H129.698V23.8837H129.047V23.2326ZM129.047 23.8837H129.698V24.5349H129.047V23.8837ZM129.047 24.5349H129.698V25.186H129.047V24.5349ZM129.698 24.5349H130.349V25.186H129.698V24.5349ZM129.698 23.8837H130.349V24.5349H129.698V23.8837ZM129.698 23.2326H130.349V23.8837H129.698V23.2326ZM129.698 22.5814H130.349V23.2326H129.698V22.5814ZM129.698 21.9302H130.349V22.5814H129.698V21.9302ZM127.094 19.9767H127.745V20.6279H127.094V19.9767ZM127.094 20.6279H127.745V21.2791H127.094V20.6279ZM127.094 21.2791H127.745V21.9302H127.094V21.2791ZM127.094 21.9302H127.745V22.5814H127.094V21.9302ZM127.094 22.5814H127.745V23.2326H127.094V22.5814ZM127.094 23.2326H127.745V23.8837H127.094V23.2326ZM127.094 23.8837H127.745V24.5349H127.094V23.8837ZM127.094 24.5349H127.745V25.186H127.094V24.5349ZM126.442 24.5349H127.094V25.186H126.442V24.5349ZM126.442 23.8837H127.094V24.5349H126.442V23.8837ZM126.442 23.2326H127.094V23.8837H126.442V23.2326ZM126.442 22.5814H127.094V23.2326H126.442V22.5814ZM126.442 21.9302H127.094V22.5814H126.442V21.9302ZM126.442 21.2791H127.094V21.9302H126.442V21.2791ZM126.442 20.6279H127.094V21.2791H126.442V20.6279ZM126.442 19.9767H127.094V20.6279H126.442V19.9767ZM125.14 20.6279H125.791V21.2791H125.14V20.6279ZM125.14 21.2791H125.791V21.9302H125.14V21.2791ZM125.14 21.9302H125.791V22.5814H125.14V21.9302ZM125.14 22.5814H125.791V23.2326H125.14V22.5814ZM125.14 23.2326H125.791V23.8837H125.14V23.2326ZM125.14 23.8837H125.791V24.5349H125.14V23.8837ZM125.14 24.5349H125.791V25.186H125.14V24.5349ZM125.14 25.186H125.791V25.8372H125.14V25.186ZM125.791 24.5349H126.442V25.186H125.791V24.5349ZM125.791 23.8837H126.442V24.5349H125.791V23.8837ZM125.791 23.2326H126.442V23.8837H125.791V23.2326ZM125.791 22.5814H126.442V23.2326H125.791V22.5814ZM125.791 21.2791H126.442V21.9302H125.791V21.2791ZM125.791 20.6279H126.442V21.2791H125.791V20.6279ZM125.791 19.9767H126.442V20.6279H125.791V19.9767ZM125.791 21.9302H126.442V22.5814H125.791V21.9302ZM124.489 21.9302H125.14V22.5814H124.489V21.9302ZM123.838 21.9302H124.489V22.5814H123.838V21.9302ZM123.187 21.9302H123.838V22.5814H123.187V21.9302ZM122.536 21.9302H123.187V22.5814H122.536V21.9302ZM122.536 22.5814H123.187V23.2326H122.536V22.5814ZM123.187 22.5814H123.838V23.2326H123.187V22.5814ZM123.838 22.5814H124.489V23.2326H123.838V22.5814ZM124.489 22.5814H125.14V23.2326H124.489V22.5814ZM124.489 24.5349H125.14V25.186H124.489V24.5349ZM123.838 24.5349H124.489V25.186H123.838V24.5349ZM123.187 24.5349H123.838V25.186H123.187V24.5349ZM122.536 24.5349H123.187V25.186H122.536V24.5349ZM122.536 25.186H123.187V25.8372H122.536V25.186ZM123.187 25.186H123.838V25.8372H123.187V25.186ZM123.838 25.186H124.489V25.8372H123.838V25.186ZM124.489 25.186H125.14V25.8372H124.489V25.186ZM125.791 25.186H126.442V25.8372H125.791V25.186ZM126.442 25.186H127.094V25.8372H126.442V25.186ZM127.094 25.186H127.745V25.8372H127.094V25.186ZM129.047 25.186H129.698V25.8372H129.047V25.186ZM129.698 25.186H130.349V25.8372H129.698V25.186ZM125.14 25.8372H125.791V26.4884H125.14V25.8372ZM125.14 26.4884H125.791V27.1395H125.14V26.4884ZM125.791 26.4884H126.442V27.1395H125.791V26.4884ZM126.442 26.4884H127.094V27.1395H126.442V26.4884ZM127.094 26.4884H127.745V27.1395H127.094V26.4884ZM127.094 25.8372H127.745V26.4884H127.094V25.8372ZM126.442 25.8372H127.094V26.4884H126.442V25.8372ZM125.791 25.8372H126.442V26.4884H125.791V25.8372ZM129.047 25.8372H129.698V26.4884H129.047V25.8372ZM129.698 25.8372H130.349V26.4884H129.698V25.8372ZM129.698 26.4884H130.349V27.1395H129.698V26.4884ZM129.047 26.4884H129.698V27.1395H129.047V26.4884ZM131.652 16.7209H132.303V17.3721H131.652V16.7209ZM132.303 16.7209H132.954V17.3721H132.303V16.7209ZM132.303 17.3721H132.954V18.0233H132.303V17.3721ZM132.303 18.0233H132.954V18.6744H132.303V18.0233ZM132.303 18.6744H132.954V19.3256H132.303V18.6744ZM131.652 18.6744H132.303V19.3256H131.652V18.6744ZM131.652 19.3256H132.303V19.9767H131.652V19.3256ZM131.652 19.9767H132.303V20.6279H131.652V19.9767ZM131.652 20.6279H132.303V21.2791H131.652V20.6279ZM131.652 21.2791H132.303V21.9302H131.652V21.2791ZM131.652 21.9302H132.303V22.5814H131.652V21.9302ZM131.652 22.5814H132.303V23.2326H131.652V22.5814ZM132.303 21.9302H132.954V22.5814H132.303V21.9302ZM132.303 21.2791H132.954V21.9302H132.303V21.2791ZM132.303 20.6279H132.954V21.2791H132.303V20.6279ZM132.303 19.9767H132.954V20.6279H132.303V19.9767ZM132.303 19.3256H132.954V19.9767H132.303V19.3256ZM132.303 22.5814H132.954V23.2326H132.303V22.5814ZM132.954 18.0233H133.605V18.6744H132.954V18.0233ZM133.605 18.0233H134.256V18.6744H133.605V18.0233ZM133.605 18.6744H134.256V19.3256H133.605V18.6744ZM133.605 19.3256H134.256V19.9767H133.605V19.3256ZM133.605 19.9767H134.256V20.6279H133.605V19.9767ZM132.954 19.9767H133.605V20.6279H132.954V19.9767ZM132.954 20.6279H133.605V21.2791H132.954V20.6279ZM132.954 21.2791H133.605V21.9302H132.954V21.2791ZM132.954 21.9302H133.605V22.5814H132.954V21.9302ZM132.954 19.3256H133.605V19.9767H132.954V19.3256ZM132.954 18.6744H133.605V19.3256H132.954V18.6744ZM132.954 22.5814H133.605V23.2326H132.954V22.5814ZM133.605 21.9302H134.256V22.5814H133.605V21.9302ZM133.605 21.2791H134.256V21.9302H133.605V21.2791ZM133.605 20.6279H134.256V21.2791H133.605V20.6279ZM133.605 22.5814H134.256V23.2326H133.605V22.5814ZM131.652 23.2326H132.303V23.8837H131.652V23.2326ZM131.652 23.8837H132.303V24.5349H131.652V23.8837ZM131.652 24.5349H132.303V25.186H131.652V24.5349ZM131.652 25.186H132.303V25.8372H131.652V25.186ZM131.652 25.8372H132.303V26.4884H131.652V25.8372ZM131.652 26.4884H132.303V27.1395H131.652V26.4884ZM132.303 26.4884H132.954V27.1395H132.303V26.4884ZM132.954 26.4884H133.605V27.1395H132.954V26.4884ZM133.605 26.4884H134.256V27.1395H133.605V26.4884ZM133.605 25.8372H134.256V26.4884H133.605V25.8372ZM133.605 25.186H134.256V25.8372H133.605V25.186ZM133.605 24.5349H134.256V25.186H133.605V24.5349ZM133.605 23.8837H134.256V24.5349H133.605V23.8837ZM133.605 23.2326H134.256V23.8837H133.605V23.2326ZM132.954 23.2326H133.605V23.8837H132.954V23.2326ZM132.954 23.8837H133.605V24.5349H132.954V23.8837ZM132.954 24.5349H133.605V25.186H132.954V24.5349ZM132.954 25.186H133.605V25.8372H132.954V25.186ZM132.954 25.8372H133.605V26.4884H132.954V25.8372ZM132.303 25.8372H132.954V26.4884H132.303V25.8372ZM132.303 25.186H132.954V25.8372H132.303V25.186ZM132.303 24.5349H132.954V25.186H132.303V24.5349ZM132.303 23.8837H132.954V24.5349H132.303V23.8837ZM132.303 23.2326H132.954V23.8837H132.303V23.2326ZM129.047 29.7442H129.698V30.3953H129.047V29.7442ZM129.047 29.093H129.698V29.7442H129.047V29.093ZM129.698 29.093H130.349V29.7442H129.698V29.093ZM129.698 29.7442H130.349V30.3953H129.698V29.7442ZM129.047 28.4419H129.698V29.093H129.047V28.4419ZM129.698 28.4419H130.349V29.093H129.698V28.4419ZM129.698 27.7907H130.349V28.4419H129.698V27.7907ZM129.698 27.1395H130.349V27.7907H129.698V27.1395ZM129.047 27.7907H129.698V28.4419H129.047V27.7907ZM129.047 27.1395H129.698V27.7907H129.047V27.1395ZM127.094 27.1395H127.745V27.7907H127.094V27.1395ZM125.791 27.1395H126.442V27.7907H125.791V27.1395ZM126.442 27.1395H127.094V27.7907H126.442V27.1395ZM125.14 27.1395H125.791V27.7907H125.14V27.1395ZM125.14 28.4419H125.791V29.093H125.14V28.4419ZM125.14 27.7907H125.791V28.4419H125.14V27.7907ZM125.791 27.7907H126.442V28.4419H125.791V27.7907ZM126.442 27.7907H127.094V28.4419H126.442V27.7907ZM127.094 27.7907H127.745V28.4419H127.094V27.7907ZM127.094 28.4419H127.745V29.093H127.094V28.4419ZM126.442 28.4419H127.094V29.093H126.442V28.4419ZM125.791 28.4419H126.442V29.093H125.791V28.4419ZM131.652 29.7442H132.303V30.3953H131.652V29.7442ZM131.652 29.093H132.303V29.7442H131.652V29.093ZM131.652 28.4419H132.303V29.093H131.652V28.4419ZM131.652 27.7907H132.303V28.4419H131.652V27.7907ZM131.652 27.1395H132.303V27.7907H131.652V27.1395ZM132.303 27.1395H132.954V27.7907H132.303V27.1395ZM132.954 27.1395H133.605V27.7907H132.954V27.1395ZM133.605 27.1395H134.256V27.7907H133.605V27.1395ZM133.605 27.7907H134.256V28.4419H133.605V27.7907ZM133.605 28.4419H134.256V29.093H133.605V28.4419ZM133.605 29.093H134.256V29.7442H133.605V29.093ZM133.605 29.7442H134.256V30.3953H133.605V29.7442ZM132.954 29.7442H133.605V30.3953H132.954V29.7442ZM132.303 29.7442H132.954V30.3953H132.303V29.7442ZM132.303 29.093H132.954V29.7442H132.303V29.093ZM132.303 28.4419H132.954V29.093H132.303V28.4419ZM132.303 27.7907H132.954V28.4419H132.303V27.7907ZM132.954 27.7907H133.605V28.4419H132.954V27.7907ZM132.954 28.4419H133.605V29.093H132.954V28.4419ZM132.954 29.093H133.605V29.7442H132.954V29.093ZM131.652 30.3953H132.303V31.0465H131.652V30.3953ZM131.652 31.0465H132.303V31.6977H131.652V31.0465ZM132.303 31.0465H132.954V31.6977H132.303V31.0465ZM132.303 30.3953H132.954V31.0465H132.303V30.3953ZM134.256 18.0233H134.908V18.6744H134.256V18.0233ZM134.908 18.0233H135.559V18.6744H134.908V18.0233ZM134.256 18.6744H134.908V19.3256H134.256V18.6744ZM135.559 17.3721H136.21V18.0233H135.559V17.3721ZM132.954 17.3721H133.605V18.0233H132.954V17.3721ZM134.908 17.3721H135.559V18.0233H134.908V17.3721ZM125.791 18.0233H126.442V18.6744H125.791V18.0233ZM125.791 18.6744H126.442V19.3256H125.791V18.6744ZM126.442 18.0233H127.094V18.6744H126.442V18.0233ZM126.442 18.6744H127.094V19.3256H126.442V18.6744ZM127.094 18.6744H127.745V19.3256H127.094V18.6744ZM127.094 19.3256H127.745V19.9767H127.094V19.3256ZM126.442 19.3256H127.094V19.9767H126.442V19.3256ZM125.791 19.3256H126.442V19.9767H125.791V19.3256ZM125.14 19.9767H125.791V20.6279H125.14V19.9767ZM129.698 18.0233H130.349V18.6744H129.698V18.0233ZM129.698 18.6744H130.349V19.3256H129.698V18.6744ZM129.047 18.6744H129.698V19.3256H129.047V18.6744ZM125.14 18.6744H125.791V19.3256H125.14V18.6744ZM125.14 19.3256H125.791V19.9767H125.14V19.3256ZM125.14 16.7209H125.791V17.3721H125.14V16.7209ZM125.14 17.3721H125.791V18.0233H125.14V17.3721ZM125.791 17.3721H126.442V18.0233H125.791V17.3721ZM124.489 16.7209H125.14V17.3721H124.489V16.7209ZM123.838 16.7209H124.489V17.3721H123.838V16.7209ZM123.838 17.3721H124.489V18.0233H123.838V17.3721ZM124.489 17.3721H125.14V18.0233H124.489V17.3721ZM123.187 17.3721H123.838V18.0233H123.187V17.3721ZM123.187 16.7209H123.838V17.3721H123.187V16.7209ZM125.14 18.0233H125.791V18.6744H125.14V18.0233ZM124.489 18.0233H125.14V18.6744H124.489V18.0233ZM123.838 18.0233H124.489V18.6744H123.838V18.0233ZM123.187 18.0233H123.838V18.6744H123.187V18.0233ZM128.396 19.3256H129.047V19.9767H128.396V19.3256ZM128.396 19.9767H129.047V20.6279H128.396V19.9767ZM127.745 19.9767H128.396V20.6279H127.745V19.9767ZM130.349 17.3721H131.001V18.0233H130.349V17.3721ZM131.001 16.7209H131.652V17.3721H131.001V16.7209ZM131.001 17.3721H131.652V18.0233H131.001V17.3721ZM131.652 17.3721H132.303V18.0233H131.652V17.3721ZM131.652 18.0233H132.303V18.6744H131.652V18.0233ZM135.559 16.7209H136.21V17.3721H135.559V16.7209ZM129.698 31.6977H130.349V32.3488H129.698V31.6977ZM129.047 31.6977H129.698V32.3488H129.047V31.6977ZM129.047 32.3488H129.698V33H129.047V32.3488ZM129.698 32.3488H130.349V33H129.698V32.3488ZM129.698 31.0465H130.349V31.6977H129.698V31.0465ZM129.698 30.3953H130.349V31.0465H129.698V30.3953ZM129.047 30.3953H129.698V31.0465H129.047V30.3953ZM129.047 31.0465H129.698V31.6977H129.047V31.0465ZM128.396 31.6977H129.047V32.3488H128.396V31.6977ZM128.396 32.3488H129.047V33H128.396V32.3488ZM127.745 32.3488H128.396V33H127.745V32.3488ZM127.745 31.6977H128.396V32.3488H127.745V31.6977ZM127.094 29.093H127.745V29.7442H127.094V29.093ZM127.094 29.7442H127.745V30.3953H127.094V29.7442ZM127.094 30.3953H127.745V31.0465H127.094V30.3953ZM127.094 32.3488H127.745V33H127.094V32.3488ZM127.094 33H127.745V33.6512H127.094V33ZM127.094 31.6977H127.745V32.3488H127.094V31.6977ZM127.094 31.0465H127.745V31.6977H127.094V31.0465ZM126.442 31.6977H127.094V32.3488H126.442V31.6977ZM126.442 31.0465H127.094V31.6977H126.442V31.0465ZM126.442 30.3953H127.094V31.0465H126.442V30.3953ZM125.791 29.7442H126.442V30.3953H125.791V29.7442ZM125.791 29.093H126.442V29.7442H125.791V29.093ZM125.14 29.093H125.791V29.7442H125.14V29.093ZM125.14 29.7442H125.791V30.3953H125.14V29.7442ZM125.14 31.0465H125.791V31.6977H125.14V31.0465ZM125.14 31.6977H125.791V32.3488H125.14V31.6977ZM125.14 32.3488H125.791V33H125.14V32.3488ZM125.14 33H125.791V33.6512H125.14V33ZM125.791 33H126.442V33.6512H125.791V33ZM125.791 32.3488H126.442V33H125.791V32.3488ZM126.442 32.3488H127.094V33H126.442V32.3488ZM126.442 29.7442H127.094V30.3953H126.442V29.7442ZM126.442 29.093H127.094V29.7442H126.442V29.093ZM125.791 30.3953H126.442V31.0465H125.791V30.3953ZM125.791 31.0465H126.442V31.6977H125.791V31.0465ZM125.791 31.6977H126.442V32.3488H125.791V31.6977ZM125.14 30.3953H125.791V31.0465H125.14V30.3953ZM125.14 36.2558H125.791V36.907H125.14V36.2558ZM125.14 35.6047H125.791V36.2558H125.14V35.6047ZM125.14 34.9535H125.791V35.6047H125.14V34.9535ZM125.14 33.6512H125.791V34.3023H125.14V33.6512ZM125.14 34.3023H125.791V34.9535H125.14V34.3023ZM125.791 35.6047H126.442V36.2558H125.791V35.6047ZM126.442 34.9535H127.094V35.6047H126.442V34.9535ZM127.094 34.3023H127.745V34.9535H127.094V34.3023ZM127.094 33.6512H127.745V34.3023H127.094V33.6512ZM126.442 33.6512H127.094V34.3023H126.442V33.6512ZM126.442 34.3023H127.094V34.9535H126.442V34.3023ZM126.442 33H127.094V33.6512H126.442V33ZM125.791 33.6512H126.442V34.3023H125.791V33.6512ZM125.791 34.3023H126.442V34.9535H125.791V34.3023ZM125.791 34.9535H126.442V35.6047H125.791V34.9535ZM132.954 30.3953H133.605V31.0465H132.954V30.3953ZM131.652 31.6977H132.303V32.3488H131.652V31.6977ZM131.001 31.6977H131.652V32.3488H131.001V31.6977ZM130.349 31.6977H131.001V32.3488H130.349V31.6977ZM130.349 32.3488H131.001V33H130.349V32.3488ZM131.001 32.3488H131.652V33H131.001V32.3488ZM130.349 31.0465H131.001V31.6977H130.349V31.0465ZM131.001 31.0465H131.652V31.6977H131.001V31.0465ZM131.001 30.3953H131.652V31.0465H131.001V30.3953ZM129.047 19.3256H129.698V19.9767H129.047V19.3256ZM127.745 20.6279H128.396V21.2791H127.745V20.6279ZM130.349 18.0233H131.001V18.6744H130.349V18.0233ZM124.489 18.6744H125.14V19.3256H124.489V18.6744ZM123.838 18.6744H124.489V19.3256H123.838V18.6744ZM124.489 19.3256H125.14V19.9767H124.489V19.3256ZM123.187 18.6744H123.838V19.3256H123.187V18.6744ZM123.838 19.3256H124.489V19.9767H123.838V19.3256ZM124.489 19.9767H125.14V20.6279H124.489V19.9767ZM127.745 19.3256H128.396V19.9767H127.745V19.3256ZM122.536 17.3721H123.187V18.0233H122.536V17.3721ZM121.884 18.0233H122.536V18.6744H121.884V18.0233ZM122.536 18.0233H123.187V18.6744H122.536V18.0233ZM121.233 17.3721H121.884V18.0233H121.233V17.3721ZM120.582 17.3721H121.233V18.0233H120.582V17.3721ZM120.582 16.7209H121.233V17.3721H120.582V16.7209ZM121.233 18.0233H121.884V18.6744H121.233V18.0233ZM121.884 18.6744H122.536V19.3256H121.884V18.6744ZM122.536 18.6744H123.187V19.3256H122.536V18.6744Z" fill="#A00A10"/>
</svg>
