<svg width="126" height="36" viewBox="0 0 126 36" fill="none" xmlns="http://www.w3.org/2000/svg">
<path d="M0.117188 6.64062C0.757812 6.71875 1.40625 6.77344 2.0625 6.80469C2.73438 6.83594 3.34375 6.85156 3.89062 6.85156C4.53125 6.85156 5.15625 6.83594 5.76562 6.80469C6.39062 6.78906 7.04688 6.75781 7.73438 6.71094C8.32812 6.67969 9 6.64062 9.75 6.59375C10.5 6.54688 11.2812 6.5 12.0938 6.45312L12.2344 8.49219C12.2344 8.63281 12.2422 8.8125 12.2578 9.03125C12.2578 9.21875 12.2578 9.45312 12.2578 9.73438C12.2734 10.0156 12.2891 10.3438 12.3047 10.7188C11.7422 11.2031 11.2344 11.6641 10.7812 12.1016C10.3438 12.5234 9.96875 12.8984 9.65625 13.2266C9.28125 13.6172 8.95312 13.9766 8.67188 14.3047C8.3125 14.7266 7.92969 15.2422 7.52344 15.8516C7.11719 16.4453 6.73438 17.0312 6.375 17.6094C6.03125 18.1719 5.75 18.6797 5.53125 19.1328C5.3125 19.5703 5.21875 19.8438 5.25 19.9531C5.26562 20.0312 5.42188 20.0781 5.71875 20.0938C6.01562 20.0938 6.375 20.0781 6.79688 20.0469C7.23438 20.0156 7.71094 19.9688 8.22656 19.9062C8.75781 19.8281 9.25 19.75 9.70312 19.6719C10.1719 19.5781 10.5859 19.4844 10.9453 19.3906C11.3047 19.2969 11.5391 19.2031 11.6484 19.1094C11.7891 18.9844 11.9453 18.7578 12.1172 18.4297C12.2734 18.1484 12.4453 17.7578 12.6328 17.2578C12.8359 16.7422 13.0625 16.0547 13.3125 15.1953C13.3281 15.8359 13.3359 16.3828 13.3359 16.8359C13.3516 17.2891 13.375 17.6719 13.4062 17.9844C13.4219 18.3438 13.4453 18.6406 13.4766 18.875C13.4922 19.125 13.5234 19.4062 13.5703 19.7188C13.6016 19.9844 13.6406 20.3203 13.6875 20.7266C13.7344 21.1328 13.7969 21.5859 13.875 22.0859C12.75 21.9453 11.8047 21.8516 11.0391 21.8047C10.2734 21.7422 9.65625 21.7031 9.1875 21.6875C8.64062 21.6719 8.20312 21.6719 7.875 21.6875C7.53125 21.7344 7.0625 21.8047 6.46875 21.8984C5.96875 21.9766 5.30469 22.1016 4.47656 22.2734C3.64844 22.4297 2.60938 22.6406 1.35938 22.9062C1.32812 22.6094 1.29688 22.3516 1.26562 22.1328C1.23438 21.9141 1.20312 21.7188 1.17188 21.5469C1.14062 21.375 1.10938 21.2109 1.07812 21.0547C1.04688 20.9141 1.00781 20.7188 0.960938 20.4688C0.929688 20.25 0.875 19.9844 0.796875 19.6719C0.734375 19.3438 0.65625 18.9375 0.5625 18.4531C1.5 17.4844 2.27344 16.6719 2.88281 16.0156C3.50781 15.3438 4.00781 14.7969 4.38281 14.375C4.82031 13.875 5.16406 13.4766 5.41406 13.1797C5.64844 12.8828 5.95312 12.5234 6.32812 12.1016C6.64062 11.7422 7.04688 11.2969 7.54688 10.7656C8.04688 10.2188 8.64844 9.57031 9.35156 8.82031C8.63281 8.78906 7.96094 8.78906 7.33594 8.82031C6.72656 8.85156 6.19531 8.89844 5.74219 8.96094C5.21094 9.02344 4.71875 9.10938 4.26562 9.21875C3.84375 9.34375 3.41406 9.54688 2.97656 9.82812C2.60156 10.0625 2.19531 10.3906 1.75781 10.8125C1.32031 11.2344 0.90625 11.7812 0.515625 12.4531C0.484375 11.9375 0.460938 11.5 0.445312 11.1406C0.429688 10.7812 0.414062 10.4844 0.398438 10.25C0.382812 9.98438 0.367188 9.76562 0.351562 9.59375C0.351562 9.42188 0.335938 9.19531 0.304688 8.91406C0.273438 8.67969 0.242188 8.38281 0.210938 8.02344C0.179688 7.64844 0.148438 7.1875 0.117188 6.64062ZM21 12.5C21.4062 12.5 21.8281 12.5781 22.2656 12.7344C22.7031 12.875 23.125 13.0625 23.5312 13.2969C23.9375 13.5156 24.3047 13.7578 24.6328 14.0234C24.9766 14.2734 25.2578 14.5156 25.4766 14.75C25.8672 15.1719 26.1328 15.7422 26.2734 16.4609C26.4297 17.1641 26.4609 17.8906 26.3672 18.6406C26.2734 19.375 26.0547 20.0703 25.7109 20.7266C25.3672 21.3828 24.8906 21.8672 24.2812 22.1797C23.8438 22.3984 23.4141 22.5703 22.9922 22.6953C22.5703 22.8203 22.1641 22.9141 21.7734 22.9766C21.3828 23.0391 21.0156 23.0703 20.6719 23.0703C20.3281 23.0703 20.0312 23.0625 19.7812 23.0469C19.3125 23.0156 18.8203 22.8516 18.3047 22.5547C17.8047 22.2578 17.3281 21.8906 16.875 21.4531C16.4375 21.0156 16.0625 20.5391 15.75 20.0234C15.4375 19.4922 15.25 18.9922 15.1875 18.5234C15.0938 17.8828 15.0781 17.2109 15.1406 16.5078C15.2031 15.8047 15.4297 15.1562 15.8203 14.5625C16.2266 13.9688 16.8359 13.4766 17.6484 13.0859C18.4766 12.6953 19.5938 12.5 21 12.5ZM20.2266 21.5938C20.3984 21.625 20.6328 21.5859 20.9297 21.4766C21.2266 21.3516 21.5156 21.1562 21.7969 20.8906C22.0938 20.625 22.3516 20.2891 22.5703 19.8828C22.8047 19.4609 22.9453 18.9531 22.9922 18.3594C23.0391 17.7812 23.0391 17.25 22.9922 16.7656C22.9609 16.2812 22.8906 15.8594 22.7812 15.5C22.6719 15.125 22.5469 14.8203 22.4062 14.5859C22.2656 14.3516 22.1172 14.1875 21.9609 14.0938C21.6953 13.9531 21.375 13.8438 21 13.7656C20.625 13.6719 20.3047 13.6875 20.0391 13.8125C19.9141 13.875 19.7578 14.0078 19.5703 14.2109C19.3828 14.4141 19.1953 14.6719 19.0078 14.9844C18.8203 15.2812 18.6484 15.625 18.4922 16.0156C18.3516 16.4062 18.25 16.8125 18.1875 17.2344C18.125 17.6562 18.1094 18.1094 18.1406 18.5938C18.1875 19.0781 18.2891 19.5391 18.4453 19.9766C18.6016 20.3984 18.8203 20.7656 19.1016 21.0781C19.3984 21.375 19.7734 21.5469 20.2266 21.5938ZM27.375 11.8906C27.7344 11.8594 28.0391 11.8281 28.2891 11.7969C28.5547 11.7656 28.7734 11.7344 28.9453 11.7031C29.1484 11.6719 29.3203 11.6406 29.4609 11.6094C29.6016 11.5938 29.7578 11.5625 29.9297 11.5156C30.0859 11.4844 30.2578 11.4453 30.4453 11.3984C30.6484 11.3359 30.8672 11.2656 31.1016 11.1875L30.9609 14.1641C31.3047 13.6172 31.7031 13.2031 32.1562 12.9219C32.6094 12.625 33.0391 12.4062 33.4453 12.2656C33.9297 12.0938 34.4141 11.9922 34.8984 11.9609C35.3984 11.9766 35.8594 12.0547 36.2812 12.1953C36.6406 12.3203 37 12.5156 37.3594 12.7812C37.7344 13.0469 38.0234 13.4375 38.2266 13.9531C38.7578 13.4062 39.2812 12.9844 39.7969 12.6875C40.3281 12.375 40.7969 12.1406 41.2031 11.9844C41.6875 11.8125 42.1406 11.7109 42.5625 11.6797C43.125 11.6641 43.6406 11.7578 44.1094 11.9609C44.5938 12.1641 45.0156 12.4219 45.375 12.7344C45.7344 13.0312 46.0234 13.3516 46.2422 13.6953C46.4609 14.0234 46.5859 14.3125 46.6172 14.5625C46.6641 14.9062 46.6406 15.3516 46.5469 15.8984C46.4531 16.4297 46.3438 16.9766 46.2188 17.5391C46.0938 18.0859 45.9766 18.5938 45.8672 19.0625C45.7734 19.5156 45.7344 19.8359 45.75 20.0234C45.7969 20.1797 45.9062 20.3672 46.0781 20.5859C46.2344 20.7734 46.4609 21.0078 46.7578 21.2891C47.0703 21.5547 47.5156 21.8672 48.0938 22.2266C47.5938 22.2109 47.1484 22.1953 46.7578 22.1797C46.3828 22.1641 46.0625 22.1406 45.7969 22.1094C45.4844 22.0781 45.2109 22.0547 44.9766 22.0391C44.7891 22.0391 44.5625 22.0234 44.2969 21.9922C44.0781 21.9766 43.7891 21.9531 43.4297 21.9219C43.0859 21.8906 42.6875 21.8594 42.2344 21.8281C42.4062 21.7812 42.5469 21.6953 42.6562 21.5703C42.7656 21.4297 42.8594 21.2969 42.9375 21.1719C43.0156 21.0156 43.0781 20.8438 43.125 20.6562C43.1562 20.5 43.1875 20.25 43.2188 19.9062C43.25 19.5625 43.2734 19.1719 43.2891 18.7344C43.3203 18.2969 43.3359 17.8359 43.3359 17.3516C43.3516 16.8672 43.3516 16.4062 43.3359 15.9688C43.3203 15.5312 43.2891 15.1328 43.2422 14.7734C43.1953 14.4141 43.1328 14.1406 43.0547 13.9531C42.9922 13.8125 42.8828 13.7031 42.7266 13.625C42.5703 13.5312 42.3906 13.4766 42.1875 13.4609C41.9844 13.4297 41.7812 13.4375 41.5781 13.4844C41.375 13.5156 41.1953 13.5781 41.0391 13.6719C40.8984 13.7812 40.7109 13.9297 40.4766 14.1172C40.2734 14.2891 40.0078 14.5234 39.6797 14.8203C39.3516 15.1172 38.9375 15.4922 38.4375 15.9453C38.3906 16.9297 38.3516 17.7266 38.3203 18.3359C38.3047 18.9297 38.2891 19.3828 38.2734 19.6953C38.2578 20.0703 38.25 20.3281 38.25 20.4688C38.2344 20.5938 38.2422 20.7109 38.2734 20.8203C38.3047 21.0547 38.3984 21.2734 38.5547 21.4766C38.3672 21.4297 38.1641 21.3984 37.9453 21.3828C37.7422 21.3672 37.5547 21.3516 37.3828 21.3359C37.1797 21.3203 36.9766 21.3125 36.7734 21.3125C36.6016 21.3125 36.4141 21.3203 36.2109 21.3359C36.0391 21.3516 35.8281 21.375 35.5781 21.4062C35.3281 21.4219 35.0547 21.4453 34.7578 21.4766C34.8828 21.3984 34.9844 21.3047 35.0625 21.1953C35.1406 21.0859 35.2031 20.9844 35.25 20.8906C35.3125 20.7812 35.3594 20.6797 35.3906 20.5859C35.4062 20.4922 35.4375 20.2656 35.4844 19.9062C35.5312 19.5312 35.5625 19.0938 35.5781 18.5938C35.5938 18.0938 35.5938 17.5703 35.5781 17.0234C35.5625 16.4609 35.5078 15.9531 35.4141 15.5C35.3203 15.0312 35.1719 14.6484 34.9688 14.3516C34.7812 14.0547 34.5312 13.9219 34.2188 13.9531C33.8438 13.9844 33.4609 14.0781 33.0703 14.2344C32.7422 14.3594 32.3906 14.5469 32.0156 14.7969C31.6406 15.0469 31.2891 15.3828 30.9609 15.8047C30.8984 16.9766 30.8594 17.9062 30.8438 18.5938C30.8438 19.2812 30.8516 19.8047 30.8672 20.1641C30.8828 20.5859 30.8984 20.875 30.9141 21.0312C30.9297 21.1406 30.9688 21.25 31.0312 21.3594C31.0781 21.4531 31.1328 21.5625 31.1953 21.6875C31.2734 21.8125 31.3594 21.9297 31.4531 22.0391L27.7266 21.8516C27.8516 21.7891 27.9609 21.7109 28.0547 21.6172C28.1484 21.5078 28.2266 21.3984 28.2891 21.2891C28.3516 21.1641 28.4141 21.0391 28.4766 20.9141C28.5234 20.8047 28.5625 20.5469 28.5938 20.1406C28.6406 19.7344 28.6797 19.2578 28.7109 18.7109C28.7422 18.1484 28.7656 17.5625 28.7812 16.9531C28.8125 16.3281 28.8281 15.75 28.8281 15.2188C28.8438 14.6719 28.8516 14.2109 28.8516 13.8359C28.8516 13.4453 28.8438 13.2109 28.8281 13.1328C28.7812 12.9766 28.6953 12.8125 28.5703 12.6406C28.4609 12.5156 28.3125 12.3828 28.125 12.2422C27.9375 12.0859 27.6875 11.9688 27.375 11.8906ZM48.2109 6.54688C48.5703 6.64062 48.8984 6.71094 49.1953 6.75781C49.5078 6.78906 49.7734 6.8125 49.9922 6.82812C50.2578 6.84375 50.5 6.85156 50.7188 6.85156C50.9375 6.85156 51.2109 6.83594 51.5391 6.80469C52.1172 6.75781 52.9375 6.64062 54 6.45312C53.8281 6.57813 53.6641 6.70312 53.5078 6.82812C53.3672 6.9375 53.2422 7.04688 53.1328 7.15625L52.7812 7.50781C52.5781 7.78906 52.375 8.26562 52.1719 8.9375C52 9.51562 51.8125 10.3281 51.6094 11.375C51.4219 12.4219 51.25 13.8125 51.0938 15.5469C51.8594 14.7969 52.5781 14.2344 53.25 13.8594C53.9375 13.4688 54.5391 13.1875 55.0547 13.0156C55.6641 12.8281 56.2188 12.7266 56.7188 12.7109C57.3594 12.7578 57.9141 12.8906 58.3828 13.1094C58.8672 13.3125 59.2734 13.5625 59.6016 13.8594C59.9453 14.1406 60.2188 14.4375 60.4219 14.75C60.6406 15.0469 60.8047 15.3125 60.9141 15.5469C60.9766 15.7031 61.0234 15.9922 61.0547 16.4141C61.1016 16.8203 61.1094 17.2891 61.0781 17.8203C61.0469 18.3516 60.9609 18.9141 60.8203 19.5078C60.6953 20.0859 60.4844 20.625 60.1875 21.125C59.9062 21.6094 59.5312 22.0156 59.0625 22.3438C58.6094 22.6719 58.0391 22.8516 57.3516 22.8828C56.5547 22.8828 55.7812 22.7891 55.0312 22.6016C54.3906 22.4453 53.7109 22.1719 52.9922 21.7812C52.2891 21.375 51.6875 20.7969 51.1875 20.0469C51.1875 20.2344 51.1875 20.4219 51.1875 20.6094C51.1875 20.7812 51.1953 20.9297 51.2109 21.0547C51.2266 21.2266 51.2422 21.375 51.2578 21.5C51.2734 21.6406 51.3125 21.7891 51.375 21.9453C51.4219 22.0703 51.4922 22.2266 51.5859 22.4141C51.6953 22.5859 51.8359 22.7578 52.0078 22.9297C51.8359 22.9141 51.6641 22.9062 51.4922 22.9062C51.3203 22.8906 51.1484 22.8906 50.9766 22.9062C50.7891 22.9219 50.6016 22.9375 50.4141 22.9531C50.2266 22.9688 50.0312 22.9922 49.8281 23.0234C49.6562 23.0547 49.4531 23.0938 49.2188 23.1406C48.9844 23.1875 48.7422 23.2422 48.4922 23.3047C48.5391 23.1641 48.5781 22.9609 48.6094 22.6953C48.6406 22.4141 48.6719 22.1094 48.7031 21.7812C48.75 21.4375 48.7812 21.0781 48.7969 20.7031C48.8281 20.3281 48.8594 19.9531 48.8906 19.5781C48.9531 18.7188 49.0078 17.7812 49.0547 16.7656C49.1016 15.1875 49.1094 13.7188 49.0781 12.3594C49.0625 11.7812 49.0312 11.1953 48.9844 10.6016C48.9531 10.0078 48.9062 9.45312 48.8438 8.9375C48.7812 8.40625 48.6953 7.9375 48.5859 7.53125C48.4922 7.10938 48.3672 6.78125 48.2109 6.54688ZM51.2578 17.9609C51.5078 18.4141 51.7734 18.8047 52.0547 19.1328C52.3359 19.4453 52.6172 19.7109 52.8984 19.9297C53.1797 20.1484 53.4531 20.3203 53.7188 20.4453C54 20.5703 54.2656 20.6641 54.5156 20.7266C55.0938 20.8828 55.6641 20.8984 56.2266 20.7734C56.7891 20.6172 57.2266 20.3047 57.5391 19.8359C57.8516 19.3672 58.0938 18.8359 58.2656 18.2422C58.3438 17.9609 58.3906 17.6016 58.4062 17.1641C58.4375 16.7266 58.3906 16.3047 58.2656 15.8984C58.1562 15.4766 57.9531 15.1094 57.6562 14.7969C57.3594 14.4688 56.9297 14.2734 56.3672 14.2109C55.9766 14.2109 55.5234 14.3203 55.0078 14.5391C54.5547 14.7266 54.0156 15.0391 53.3906 15.4766C52.7656 15.8984 52.0547 16.5312 51.2578 17.375V17.9609ZM68.4609 12.5C68.8672 12.5 69.2891 12.5781 69.7266 12.7344C70.1641 12.875 70.5859 13.0625 70.9922 13.2969C71.3984 13.5156 71.7656 13.7578 72.0938 14.0234C72.4375 14.2734 72.7188 14.5156 72.9375 14.75C73.3281 15.1719 73.5938 15.7422 73.7344 16.4609C73.8906 17.1641 73.9219 17.8906 73.8281 18.6406C73.7344 19.375 73.5156 20.0703 73.1719 20.7266C72.8281 21.3828 72.3516 21.8672 71.7422 22.1797C71.3047 22.3984 70.875 22.5703 70.4531 22.6953C70.0312 22.8203 69.625 22.9141 69.2344 22.9766C68.8438 23.0391 68.4766 23.0703 68.1328 23.0703C67.7891 23.0703 67.4922 23.0625 67.2422 23.0469C66.7734 23.0156 66.2812 22.8516 65.7656 22.5547C65.2656 22.2578 64.7891 21.8906 64.3359 21.4531C63.8984 21.0156 63.5234 20.5391 63.2109 20.0234C62.8984 19.4922 62.7109 18.9922 62.6484 18.5234C62.5547 17.8828 62.5391 17.2109 62.6016 16.5078C62.6641 15.8047 62.8906 15.1562 63.2812 14.5625C63.6875 13.9688 64.2969 13.4766 65.1094 13.0859C65.9375 12.6953 67.0547 12.5 68.4609 12.5ZM67.6875 21.5938C67.8594 21.625 68.0938 21.5859 68.3906 21.4766C68.6875 21.3516 68.9766 21.1562 69.2578 20.8906C69.5547 20.625 69.8125 20.2891 70.0312 19.8828C70.2656 19.4609 70.4062 18.9531 70.4531 18.3594C70.5 17.7812 70.5 17.25 70.4531 16.7656C70.4219 16.2812 70.3516 15.8594 70.2422 15.5C70.1328 15.125 70.0078 14.8203 69.8672 14.5859C69.7266 14.3516 69.5781 14.1875 69.4219 14.0938C69.1562 13.9531 68.8359 13.8438 68.4609 13.7656C68.0859 13.6719 67.7656 13.6875 67.5 13.8125C67.375 13.875 67.2188 14.0078 67.0312 14.2109C66.8438 14.4141 66.6562 14.6719 66.4688 14.9844C66.2812 15.2812 66.1094 15.625 65.9531 16.0156C65.8125 16.4062 65.7109 16.8125 65.6484 17.2344C65.5859 17.6562 65.5703 18.1094 65.6016 18.5938C65.6484 19.0781 65.75 19.5391 65.9062 19.9766C66.0625 20.3984 66.2812 20.7656 66.5625 21.0781C66.8594 21.375 67.2344 21.5469 67.6875 21.5938ZM74.9531 12.5234L79.2656 12.5703C79.0156 13.5234 78.8281 14.3359 78.7031 15.0078C78.5938 15.6797 78.5234 16.2422 78.4922 16.6953C78.4297 17.2109 78.4141 17.6484 78.4453 18.0078C78.4922 18.3359 78.5703 18.6875 78.6797 19.0625C78.7734 19.375 78.9141 19.7344 79.1016 20.1406C79.2891 20.5469 79.5391 20.9531 79.8516 21.3594C79.6641 21.2969 79.4609 21.25 79.2422 21.2188C79.0234 21.1875 78.8203 21.1641 78.6328 21.1484C78.4141 21.1328 78.1953 21.1328 77.9766 21.1484C77.7578 21.1641 77.5156 21.1875 77.25 21.2188C77.0312 21.25 76.7656 21.2891 76.4531 21.3359C76.1406 21.3828 75.8125 21.4453 75.4688 21.5234C75.7031 20.8203 75.8828 20.2109 76.0078 19.6953C76.1484 19.1797 76.25 18.75 76.3125 18.4062C76.375 18 76.4141 17.6719 76.4297 17.4219C76.4297 17.1094 76.4297 16.7578 76.4297 16.3672C76.4297 15.9609 76.4297 15.5703 76.4297 15.1953C76.4297 14.8203 76.4219 14.4922 76.4062 14.2109C76.3906 13.9141 76.3594 13.7266 76.3125 13.6484L76.0781 13.4141C75.9844 13.3359 75.8438 13.2266 75.6562 13.0859C75.4844 12.9297 75.25 12.7422 74.9531 12.5234ZM76.6172 8.91406C76.9453 8.74219 77.2734 8.69531 77.6016 8.77344C77.9453 8.85156 78.2109 9 78.3984 9.21875C78.5859 9.4375 78.6484 9.69531 78.5859 9.99219C78.5391 10.2891 78.2891 10.5781 77.8359 10.8594C77.3828 11.125 76.9844 11.2188 76.6406 11.1406C76.2969 11.0625 76.0547 10.8984 75.9141 10.6484C75.7734 10.3984 75.75 10.1094 75.8438 9.78125C75.9375 9.4375 76.1953 9.14844 76.6172 8.91406ZM92.2031 5.04688C92.5 5.0625 92.8203 5.07031 93.1641 5.07031C93.4609 5.07031 93.7969 5.07813 94.1719 5.09375C94.5625 5.09375 94.9688 5.07813 95.3906 5.04688C95.0156 5.21875 94.6875 5.46875 94.4062 5.79688C94.125 6.125 93.8984 6.45312 93.7266 6.78125C93.5078 7.17187 93.3281 7.57812 93.1875 8C93.1094 8.25 93.0469 8.69531 93 9.33594C92.9531 9.96094 92.9141 10.6953 92.8828 11.5391C92.8672 12.3828 92.8594 13.2734 92.8594 14.2109C92.8594 15.1484 92.8672 16.0469 92.8828 16.9062C92.8984 17.75 92.9219 18.5 92.9531 19.1562C92.9844 19.8125 93.0234 20.2734 93.0703 20.5391C93.1328 20.8516 93.2109 21.1484 93.3047 21.4297C93.3828 21.6797 93.4844 21.9375 93.6094 22.2031C93.7344 22.4531 93.8906 22.6562 94.0781 22.8125L91.6875 23.8906C91.5625 23.7188 91.4609 23.5391 91.3828 23.3516C91.3047 23.1797 91.2422 23.0234 91.1953 22.8828C91.1328 22.7109 91.0938 22.5547 91.0781 22.4141C91.0469 22.2266 91.0156 22.0234 90.9844 21.8047C90.9531 21.5703 90.9141 21.3516 90.8672 21.1484C90.8359 20.9297 90.8125 20.75 90.7969 20.6094C90.7812 20.4688 90.7812 20.3828 90.7969 20.3516C90.8125 20.3203 90.7188 20.4609 90.5156 20.7734C90.3125 21.0703 90.0078 21.4219 89.6016 21.8281C89.2109 22.2188 88.7266 22.6016 88.1484 22.9766C87.5703 23.3359 86.9219 23.5625 86.2031 23.6562C85.4688 23.75 84.7891 23.6094 84.1641 23.2344C83.5547 22.8594 83.0312 22.3359 82.5938 21.6641C82.1562 20.9766 81.8203 20.1875 81.5859 19.2969C81.3672 18.3906 81.2812 17.4688 81.3281 16.5312C81.3594 15.9062 81.5 15.3516 81.75 14.8672C82 14.3672 82.3125 13.9375 82.6875 13.5781C83.0781 13.2031 83.5 12.8906 83.9531 12.6406C84.4219 12.375 84.875 12.1562 85.3125 11.9844C85.7656 11.8125 86.1875 11.6875 86.5781 11.6094C86.9688 11.5312 87.2812 11.4766 87.5156 11.4453C87.7969 11.4297 88.1172 11.4766 88.4766 11.5859C88.7891 11.6797 89.1484 11.8359 89.5547 12.0547C89.9766 12.2734 90.4453 12.6016 90.9609 13.0391C90.8672 11.4766 90.7812 10.2266 90.7031 9.28906C90.625 8.33594 90.5469 7.60938 90.4688 7.10938C90.3906 6.51562 90.3203 6.10938 90.2578 5.89062C90.1797 5.73438 90.0781 5.57812 89.9531 5.42188C89.8438 5.29687 89.7031 5.17188 89.5312 5.04688C89.375 4.90625 89.1875 4.79688 88.9688 4.71875C89.375 4.79688 89.7656 4.85156 90.1406 4.88281C90.5156 4.91406 90.8594 4.94531 91.1719 4.97656C91.5312 5.00781 91.875 5.03125 92.2031 5.04688ZM86.3203 13.7891C86.0234 13.8984 85.7812 14.0859 85.5938 14.3516C85.4219 14.6172 85.2812 14.9375 85.1719 15.3125C85.0625 15.6719 84.9844 16.0625 84.9375 16.4844C84.9062 16.8906 84.8828 17.2891 84.8672 17.6797C84.8672 18.0547 84.8672 18.3984 84.8672 18.7109C84.8672 19.0234 84.8672 19.2578 84.8672 19.4141C84.8672 19.5078 84.8828 19.6797 84.9141 19.9297C84.9609 20.1641 85.0547 20.4141 85.1953 20.6797C85.3359 20.9297 85.5312 21.1562 85.7812 21.3594C86.0469 21.5625 86.3984 21.6641 86.8359 21.6641C87.1953 21.6328 87.5781 21.5078 87.9844 21.2891C88.3438 21.1016 88.75 20.8047 89.2031 20.3984C89.6719 19.9766 90.1719 19.375 90.7031 18.5938C90.6719 18.0938 90.6484 17.6797 90.6328 17.3516C90.6328 17.0234 90.625 16.7578 90.6094 16.5547C90.5938 16.3203 90.5859 16.1328 90.5859 15.9922V15.6406C90.5859 15.5469 90.5859 15.4453 90.5859 15.3359C90.5859 15.2266 90.5938 15.125 90.6094 15.0312C90.1719 14.7188 89.7812 14.4531 89.4375 14.2344C89.1094 14 88.7812 13.8281 88.4531 13.7188C88.1406 13.5938 87.8125 13.5391 87.4688 13.5547C87.1406 13.5547 86.7578 13.6328 86.3203 13.7891Z" fill="#A4A4A4"/>
<path d="M103.674 20.1163H104.279V20.7209H103.674V20.1163ZM103.07 20.1163H103.674V20.7209H103.07V20.1163ZM103.07 20.7209H103.674V21.3256H103.07V20.7209ZM103.07 21.3256H103.674V21.9302H103.07V21.3256ZM103.674 21.3256H104.279V21.9302H103.674V21.3256ZM103.674 20.7209H104.279V21.3256H103.674V20.7209ZM101.256 21.9302H101.86V22.5349H101.256V21.9302ZM101.256 22.5349H101.86V23.1395H101.256V22.5349ZM101.256 23.1395H101.86V23.7442H101.256V23.1395ZM100.651 23.1395H101.256V23.7442H100.651V23.1395ZM100.651 22.5349H101.256V23.1395H100.651V22.5349ZM100.651 21.9302H101.256V22.5349H100.651V21.9302ZM99.4419 21.9302H100.047V22.5349H99.4419V21.9302ZM99.4419 22.5349H100.047V23.1395H99.4419V22.5349ZM99.4419 23.1395H100.047V23.7442H99.4419V23.1395ZM99.4419 23.7442H100.047V24.3488H99.4419V23.7442ZM100.047 23.1395H100.651V23.7442H100.047V23.1395ZM100.047 22.5349H100.651V23.1395H100.047V22.5349ZM100.047 21.9302H100.651V22.5349H100.047V21.9302ZM98.8372 23.1395H99.4419V23.7442H98.8372V23.1395ZM98.2326 23.1395H98.8372V23.7442H98.2326V23.1395ZM97.6279 23.1395H98.2326V23.7442H97.6279V23.1395ZM97.0233 23.1395H97.6279V23.7442H97.0233V23.1395ZM97.0233 23.7442H97.6279V24.3488H97.0233V23.7442ZM97.6279 23.7442H98.2326V24.3488H97.6279V23.7442ZM98.2326 23.7442H98.8372V24.3488H98.2326V23.7442ZM98.8372 23.7442H99.4419V24.3488H98.8372V23.7442ZM100.047 23.7442H100.651V24.3488H100.047V23.7442ZM100.651 23.7442H101.256V24.3488H100.651V23.7442ZM101.256 23.7442H101.86V24.3488H101.256V23.7442ZM105.488 15.8837H106.093V16.4884H105.488V15.8837ZM106.093 15.8837H106.698V16.4884H106.093V15.8837ZM106.093 16.4884H106.698V17.093H106.093V16.4884ZM106.093 17.093H106.698V17.6977H106.093V17.093ZM106.093 17.6977H106.698V18.3023H106.093V17.6977ZM105.488 17.6977H106.093V18.3023H105.488V17.6977ZM105.488 18.3023H106.093V18.907H105.488V18.3023ZM105.488 18.907H106.093V19.5116H105.488V18.907ZM105.488 19.5116H106.093V20.1163H105.488V19.5116ZM105.488 20.1163H106.093V20.7209H105.488V20.1163ZM105.488 20.7209H106.093V21.3256H105.488V20.7209ZM105.488 21.3256H106.093V21.9302H105.488V21.3256ZM106.093 20.7209H106.698V21.3256H106.093V20.7209ZM106.093 20.1163H106.698V20.7209H106.093V20.1163ZM106.093 19.5116H106.698V20.1163H106.093V19.5116ZM106.093 18.907H106.698V19.5116H106.093V18.907ZM106.093 18.3023H106.698V18.907H106.093V18.3023ZM106.093 21.3256H106.698V21.9302H106.093V21.3256ZM106.698 17.093H107.302V17.6977H106.698V17.093ZM107.302 17.093H107.907V17.6977H107.302V17.093ZM107.302 17.6977H107.907V18.3023H107.302V17.6977ZM107.302 18.3023H107.907V18.907H107.302V18.3023ZM107.302 18.907H107.907V19.5116H107.302V18.907ZM106.698 18.907H107.302V19.5116H106.698V18.907ZM106.698 19.5116H107.302V20.1163H106.698V19.5116ZM106.698 20.1163H107.302V20.7209H106.698V20.1163ZM106.698 20.7209H107.302V21.3256H106.698V20.7209ZM106.698 18.3023H107.302V18.907H106.698V18.3023ZM106.698 17.6977H107.302V18.3023H106.698V17.6977ZM106.698 21.3256H107.302V21.9302H106.698V21.3256ZM107.302 20.7209H107.907V21.3256H107.302V20.7209ZM107.302 20.1163H107.907V20.7209H107.302V20.1163ZM107.302 19.5116H107.907V20.1163H107.302V19.5116ZM105.488 21.9302H106.093V22.5349H105.488V21.9302ZM105.488 22.5349H106.093V23.1395H105.488V22.5349ZM106.093 21.9302H106.698V22.5349H106.093V21.9302ZM107.907 17.093H108.512V17.6977H107.907V17.093ZM108.512 17.093H109.116V17.6977H108.512V17.093ZM107.907 17.6977H108.512V18.3023H107.907V17.6977ZM109.116 16.4884H109.721V17.093H109.116V16.4884ZM106.698 16.4884H107.302V17.093H106.698V16.4884ZM108.512 16.4884H109.116V17.093H108.512V16.4884ZM103.674 17.093H104.279V17.6977H103.674V17.093ZM103.674 17.6977H104.279V18.3023H103.674V17.6977ZM103.07 17.6977H103.674V18.3023H103.07V17.6977ZM102.465 18.3023H103.07V18.907H102.465V18.3023ZM102.465 18.907H103.07V19.5116H102.465V18.907ZM101.86 18.907H102.465V19.5116H101.86V18.907ZM104.279 16.4884H104.884V17.093H104.279V16.4884ZM104.884 15.8837H105.488V16.4884H104.884V15.8837ZM104.884 16.4884H105.488V17.093H104.884V16.4884ZM105.488 16.4884H106.093V17.093H105.488V16.4884ZM105.488 17.093H106.093V17.6977H105.488V17.093ZM109.116 15.8837H109.721V16.4884H109.116V15.8837ZM103.07 18.3023H103.674V18.907H103.07V18.3023ZM101.86 19.5116H102.465V20.1163H101.86V19.5116ZM104.279 17.093H104.884V17.6977H104.279V17.093ZM104.884 23.1395H105.488V23.7442H104.884V23.1395ZM104.279 23.1395H104.884V23.7442H104.279V23.1395ZM104.279 23.7442H104.884V24.3488H104.279V23.7442ZM104.884 23.7442H105.488V24.3488H104.884V23.7442ZM103.674 23.1395H104.279V23.7442H103.674V23.1395ZM103.07 23.1395H103.674V23.7442H103.07V23.1395ZM103.07 23.7442H103.674V24.3488H103.07V23.7442ZM103.674 23.7442H104.279V24.3488H103.674V23.7442ZM99.4419 24.3488H100.047V24.9535H99.4419V24.3488ZM99.4419 24.9535H100.047V25.5581H99.4419V24.9535ZM100.047 24.9535H100.651V25.5581H100.047V24.9535ZM100.047 24.3488H100.651V24.9535H100.047V24.3488ZM100.047 25.5581H100.651V26.1628H100.047V25.5581ZM100.047 26.1628H100.651V26.7674H100.047V26.1628ZM99.4419 26.1628H100.047V26.7674H99.4419V26.1628ZM99.4419 25.5581H100.047V26.1628H99.4419V25.5581ZM100.651 25.5581H101.256V26.1628H100.651V25.5581ZM100.651 24.9535H101.256V25.5581H100.651V24.9535ZM100.651 24.3488H101.256V24.9535H100.651V24.3488ZM101.256 24.3488H101.86V24.9535H101.256V24.3488ZM101.256 24.9535H101.86V25.5581H101.256V24.9535ZM101.256 25.5581H101.86V26.1628H101.256V25.5581ZM101.256 26.1628H101.86V26.7674H101.256V26.1628ZM100.651 26.1628H101.256V26.7674H100.651V26.1628ZM103.07 25.5581H103.674V26.1628H103.07V25.5581ZM103.674 25.5581H104.279V26.1628H103.674V25.5581ZM103.674 26.1628H104.279V26.7674H103.674V26.1628ZM103.07 26.1628H103.674V26.7674H103.07V26.1628ZM103.07 26.7674H103.674V27.3721H103.07V26.7674ZM103.674 26.7674H104.279V27.3721H103.674V26.7674ZM103.07 27.9767H103.674V28.5814H103.07V27.9767ZM105.488 24.3488H106.093V24.9535H105.488V24.3488ZM106.093 24.3488H106.698V24.9535H106.093V24.3488ZM106.093 24.9535H106.698V25.5581H106.093V24.9535ZM106.093 25.5581H106.698V26.1628H106.093V25.5581ZM106.093 26.1628H106.698V26.7674H106.093V26.1628ZM105.488 26.1628H106.093V26.7674H105.488V26.1628ZM105.488 26.7674H106.093V27.3721H105.488V26.7674ZM105.488 25.5581H106.093V26.1628H105.488V25.5581ZM105.488 24.9535H106.093V25.5581H105.488V24.9535ZM105.488 27.9767H106.093V28.5814H105.488V27.9767ZM106.093 27.9767H106.698V28.5814H106.093V27.9767ZM106.093 26.7674H106.698V27.3721H106.093V26.7674ZM106.698 24.9535H107.302V25.5581H106.698V24.9535ZM107.302 25.5581H107.907V26.1628H107.302V25.5581ZM107.302 26.1628H107.907V26.7674H107.302V26.1628ZM106.698 26.1628H107.302V26.7674H106.698V26.1628ZM106.698 25.5581H107.302V26.1628H106.698V25.5581ZM106.698 26.7674H107.302V27.3721H106.698V26.7674ZM107.302 26.7674H107.907V27.3721H107.302V26.7674ZM106.698 27.9767H107.302V28.5814H106.698V27.9767ZM107.302 27.9767H107.907V28.5814H107.302V27.9767ZM99.4419 26.7674H100.047V27.3721H99.4419V26.7674ZM100.047 26.7674H100.651V27.3721H100.047V26.7674ZM100.651 26.7674H101.256V27.3721H100.651V26.7674ZM100.651 27.9767H101.256V28.5814H100.651V27.9767ZM101.256 27.9767H101.86V28.5814H101.256V27.9767ZM101.256 26.7674H101.86V27.3721H101.256V26.7674ZM100.047 27.9767H100.651V28.5814H100.047V27.9767ZM99.4419 27.3721H100.047V27.9767H99.4419V27.3721ZM100.047 27.3721H100.651V27.9767H100.047V27.3721ZM100.651 27.3721H101.256V27.9767H100.651V27.3721ZM101.256 27.3721H101.86V27.9767H101.256V27.3721ZM105.488 27.3721H106.093V27.9767H105.488V27.3721ZM106.093 27.3721H106.698V27.9767H106.093V27.3721ZM106.698 27.3721H107.302V27.9767H106.698V27.3721ZM107.302 27.3721H107.907V27.9767H107.302V27.3721ZM105.488 28.5814H106.093V29.186H105.488V28.5814ZM105.488 29.186H106.093V29.7907H105.488V29.186ZM106.093 29.186H106.698V29.7907H106.093V29.186ZM106.698 29.186H107.302V29.7907H106.698V29.186ZM107.302 29.186H107.907V29.7907H107.302V29.186ZM107.302 28.5814H107.907V29.186H107.302V28.5814ZM106.698 28.5814H107.302V29.186H106.698V28.5814ZM106.093 28.5814H106.698V29.186H106.093V28.5814ZM107.302 29.7907H107.907V30.3953H107.302V29.7907ZM106.698 29.7907H107.302V30.3953H106.698V29.7907ZM106.698 30.3953H107.302V31H106.698V30.3953ZM107.302 30.3953H107.907V31H107.302V30.3953ZM107.907 30.3953H108.512V31H107.907V30.3953ZM107.907 29.7907H108.512V30.3953H107.907V29.7907ZM108.512 29.7907H109.116V30.3953H108.512V29.7907ZM108.512 30.3953H109.116V31H108.512V30.3953ZM109.721 28.5814H110.326V29.186H109.721V28.5814ZM109.721 29.186H110.326V29.7907H109.721V29.186ZM109.116 29.186H109.721V29.7907H109.116V29.186ZM101.256 18.907H101.86V19.5116H101.256V18.907ZM101.256 19.5116H101.86V20.1163H101.256V19.5116ZM101.256 20.1163H101.86V20.7209H101.256V20.1163ZM101.256 20.7209H101.86V21.3256H101.256V20.7209ZM101.256 21.3256H101.86V21.9302H101.256V21.3256ZM100.651 21.3256H101.256V21.9302H100.651V21.3256ZM99.4419 19.5116H100.047V20.1163H99.4419V19.5116ZM99.4419 21.3256H100.047V21.9302H99.4419V21.3256ZM100.047 21.3256H100.651V21.9302H100.047V21.3256ZM100.047 17.093H100.651V17.6977H100.047V17.093ZM100.047 17.6977H100.651V18.3023H100.047V17.6977ZM100.651 17.093H101.256V17.6977H100.651V17.093ZM100.651 17.6977H101.256V18.3023H100.651V17.6977ZM101.256 17.6977H101.86V18.3023H101.256V17.6977ZM101.256 18.3023H101.86V18.907H101.256V18.3023ZM100.651 18.3023H101.256V18.907H100.651V18.3023ZM99.4419 18.907H100.047V19.5116H99.4419V18.907ZM99.4419 17.6977H100.047V18.3023H99.4419V17.6977ZM99.4419 18.3023H100.047V18.907H99.4419V18.3023ZM99.4419 15.8837H100.047V16.4884H99.4419V15.8837ZM99.4419 16.4884H100.047V17.093H99.4419V16.4884ZM100.047 16.4884H100.651V17.093H100.047V16.4884ZM98.8372 15.8837H99.4419V16.4884H98.8372V15.8837ZM98.2326 15.8837H98.8372V16.4884H98.2326V15.8837ZM98.8372 16.4884H99.4419V17.093H98.8372V16.4884ZM97.6279 16.4884H98.2326V17.093H97.6279V16.4884ZM97.6279 15.8837H98.2326V16.4884H97.6279V15.8837ZM99.4419 17.093H100.047V17.6977H99.4419V17.093ZM98.8372 17.093H99.4419V17.6977H98.8372V17.093ZM97.6279 17.093H98.2326V17.6977H97.6279V17.093ZM98.8372 17.6977H99.4419V18.3023H98.8372V17.6977ZM98.2326 17.6977H98.8372V18.3023H98.2326V17.6977ZM97.6279 17.6977H98.2326V18.3023H97.6279V17.6977ZM98.2326 17.093H98.8372V17.6977H98.2326V17.093ZM98.2326 16.4884H98.8372V17.093H98.2326V16.4884ZM97.0233 20.7209H97.6279V21.3256H97.0233V20.7209ZM97.6279 20.7209H98.2326V21.3256H97.6279V20.7209ZM98.2326 20.7209H98.8372V21.3256H98.2326V20.7209ZM98.8372 20.7209H99.4419V21.3256H98.8372V20.7209ZM98.8372 21.3256H99.4419V21.9302H98.8372V21.3256ZM98.2326 21.3256H98.8372V21.9302H98.2326V21.3256ZM97.6279 21.3256H98.2326V21.9302H97.6279V21.3256ZM97.0233 21.3256H97.6279V21.9302H97.0233V21.3256ZM99.4419 20.1163H100.047V20.7209H99.4419V20.1163ZM99.4419 20.7209H100.047V21.3256H99.4419V20.7209ZM100.047 18.3023H100.651V18.907H100.047V18.3023ZM100.047 18.907H100.651V19.5116H100.047V18.907ZM100.047 19.5116H100.651V20.1163H100.047V19.5116ZM100.047 20.1163H100.651V20.7209H100.047V20.1163ZM100.047 20.7209H100.651V21.3256H100.047V20.7209ZM100.651 20.7209H101.256V21.3256H100.651V20.7209ZM100.651 20.1163H101.256V20.7209H100.651V20.1163ZM100.651 19.5116H101.256V20.1163H100.651V19.5116ZM100.651 18.907H101.256V19.5116H100.651V18.907ZM101.86 18.3023H102.465V18.907H101.86V18.3023ZM98.2326 18.3023H98.8372V18.907H98.2326V18.3023ZM98.8372 18.907H99.4419V19.5116H98.8372V18.907ZM98.8372 18.3023H99.4419V18.907H98.8372V18.3023ZM101.256 30.3953H101.86V31H101.256V30.3953ZM100.651 30.3953H101.256V31H100.651V30.3953ZM100.651 29.7907H101.256V30.3953H100.651V29.7907ZM101.256 29.7907H101.86V30.3953H101.256V29.7907ZM101.86 29.186H102.465V29.7907H101.86V29.186ZM102.465 28.5814H103.07V29.186H102.465V28.5814ZM102.465 29.186H103.07V29.7907H102.465V29.186ZM103.07 27.3721H103.674V27.9767H103.07V27.3721ZM103.674 27.3721H104.279V27.9767H103.674V27.3721ZM103.674 27.9767H104.279V28.5814H103.674V27.9767ZM98.8372 28.5814H99.4419V29.186H98.8372V28.5814ZM98.2326 28.5814H98.8372V29.186H98.2326V28.5814ZM98.2326 29.186H98.8372V29.7907H98.2326V29.186ZM98.8372 29.186H99.4419V29.7907H98.8372V29.186ZM100.047 29.7907H100.651V30.3953H100.047V29.7907ZM99.4419 29.7907H100.047V30.3953H99.4419V29.7907ZM99.4419 30.3953H100.047V31H99.4419V30.3953ZM100.047 30.3953H100.651V31H100.047V30.3953ZM99.4419 28.5814H100.047V29.186H99.4419V28.5814ZM100.047 28.5814H100.651V29.186H100.047V28.5814ZM101.256 29.186H101.86V29.7907H101.256V29.186ZM100.651 29.186H101.256V29.7907H100.651V29.186ZM100.047 29.186H100.651V29.7907H100.047V29.186ZM99.4419 29.186H100.047V29.7907H99.4419V29.186ZM98.8372 27.9767H99.4419V28.5814H98.8372V27.9767ZM98.2326 27.9767H98.8372V28.5814H98.2326V27.9767ZM97.6279 28.5814H98.2326V29.186H97.6279V28.5814ZM97.0233 28.5814H97.6279V29.186H97.0233V28.5814ZM97.0233 29.186H97.6279V29.7907H97.0233V29.186ZM97.6279 29.186H98.2326V29.7907H97.6279V29.186ZM96.4186 28.5814H97.0233V29.186H96.4186V28.5814ZM96.4186 29.186H97.0233V29.7907H96.4186V29.186ZM95.814 29.186H96.4186V29.7907H95.814V29.186ZM95.814 28.5814H96.4186V29.186H95.814V28.5814ZM95.2093 29.7907H95.814V30.3953H95.2093V29.7907ZM94.6047 29.7907H95.2093V30.3953H94.6047V29.7907ZM94.6047 30.3953H95.2093V31H94.6047V30.3953ZM95.2093 29.186H95.814V29.7907H95.2093V29.186ZM97.0233 27.9767H97.6279V28.5814H97.0233V27.9767ZM97.6279 27.9767H98.2326V28.5814H97.6279V27.9767ZM101.86 29.7907H102.465V30.3953H101.86V29.7907ZM103.07 28.5814H103.674V29.186H103.07V28.5814ZM98.8372 29.7907H99.4419V30.3953H98.8372V29.7907ZM98.2326 29.7907H98.8372V30.3953H98.2326V29.7907ZM99.4419 27.9767H100.047V28.5814H99.4419V27.9767ZM97.6279 29.7907H98.2326V30.3953H97.6279V29.7907ZM98.2326 30.3953H98.8372V31H98.2326V30.3953ZM98.8372 30.3953H99.4419V31H98.8372V30.3953ZM106.093 29.7907H106.698V30.3953H106.093V29.7907ZM109.116 29.7907H109.721V30.3953H109.116V29.7907ZM107.907 29.186H108.512V29.7907H107.907V29.186ZM104.884 17.093H105.488V17.6977H104.884V17.093ZM104.884 17.6977H105.488V18.3023H104.884V17.6977ZM104.279 17.6977H104.884V18.3023H104.279V17.6977ZM104.884 18.3023H105.488V18.907H104.884V18.3023ZM97.0233 16.4884H97.6279V17.093H97.0233V16.4884ZM96.4186 17.093H97.0233V17.6977H96.4186V17.093ZM97.0233 17.093H97.6279V17.6977H97.0233V17.093ZM95.814 16.4884H96.4186V17.093H95.814V16.4884ZM95.2093 16.4884H95.814V17.093H95.2093V16.4884ZM95.2093 15.8837H95.814V16.4884H95.2093V15.8837ZM95.814 17.093H96.4186V17.6977H95.814V17.093ZM96.4186 17.6977H97.0233V18.3023H96.4186V17.6977ZM97.0233 17.6977H97.6279V18.3023H97.0233V17.6977ZM118.791 20.1163H119.396V20.7209H118.791V20.1163ZM118.187 20.1163H118.791V20.7209H118.187V20.1163ZM118.187 20.7209H118.791V21.3256H118.187V20.7209ZM118.187 21.3256H118.791V21.9302H118.187V21.3256ZM118.187 21.9302H118.791V22.5349H118.187V21.9302ZM118.187 22.5349H118.791V23.1395H118.187V22.5349ZM118.187 23.1395H118.791V23.7442H118.187V23.1395ZM118.791 23.1395H119.396V23.7442H118.791V23.1395ZM118.791 22.5349H119.396V23.1395H118.791V22.5349ZM118.791 21.9302H119.396V22.5349H118.791V21.9302ZM118.791 21.3256H119.396V21.9302H118.791V21.3256ZM118.791 20.7209H119.396V21.3256H118.791V20.7209ZM116.373 18.907H116.977V19.5116H116.373V18.907ZM116.373 19.5116H116.977V20.1163H116.373V19.5116ZM116.373 20.1163H116.977V20.7209H116.373V20.1163ZM116.373 20.7209H116.977V21.3256H116.373V20.7209ZM116.373 21.3256H116.977V21.9302H116.373V21.3256ZM116.373 21.9302H116.977V22.5349H116.373V21.9302ZM116.373 22.5349H116.977V23.1395H116.373V22.5349ZM116.373 23.1395H116.977V23.7442H116.373V23.1395ZM115.768 23.1395H116.373V23.7442H115.768V23.1395ZM115.768 22.5349H116.373V23.1395H115.768V22.5349ZM115.768 21.9302H116.373V22.5349H115.768V21.9302ZM115.768 21.3256H116.373V21.9302H115.768V21.3256ZM115.768 20.7209H116.373V21.3256H115.768V20.7209ZM115.768 20.1163H116.373V20.7209H115.768V20.1163ZM115.768 19.5116H116.373V20.1163H115.768V19.5116ZM115.768 18.907H116.373V19.5116H115.768V18.907ZM114.559 19.5116H115.163V20.1163H114.559V19.5116ZM114.559 20.1163H115.163V20.7209H114.559V20.1163ZM114.559 20.7209H115.163V21.3256H114.559V20.7209ZM114.559 21.3256H115.163V21.9302H114.559V21.3256ZM114.559 21.9302H115.163V22.5349H114.559V21.9302ZM114.559 22.5349H115.163V23.1395H114.559V22.5349ZM114.559 23.1395H115.163V23.7442H114.559V23.1395ZM114.559 23.7442H115.163V24.3488H114.559V23.7442ZM115.163 23.1395H115.768V23.7442H115.163V23.1395ZM115.163 22.5349H115.768V23.1395H115.163V22.5349ZM115.163 21.9302H115.768V22.5349H115.163V21.9302ZM115.163 21.3256H115.768V21.9302H115.163V21.3256ZM115.163 20.1163H115.768V20.7209H115.163V20.1163ZM115.163 19.5116H115.768V20.1163H115.163V19.5116ZM115.163 18.907H115.768V19.5116H115.163V18.907ZM115.163 20.7209H115.768V21.3256H115.163V20.7209ZM113.954 20.7209H114.559V21.3256H113.954V20.7209ZM113.349 20.7209H113.954V21.3256H113.349V20.7209ZM112.745 20.7209H113.349V21.3256H112.745V20.7209ZM112.14 20.7209H112.745V21.3256H112.14V20.7209ZM112.14 21.3256H112.745V21.9302H112.14V21.3256ZM112.745 21.3256H113.349V21.9302H112.745V21.3256ZM113.349 21.3256H113.954V21.9302H113.349V21.3256ZM113.954 21.3256H114.559V21.9302H113.954V21.3256ZM113.954 23.1395H114.559V23.7442H113.954V23.1395ZM113.349 23.1395H113.954V23.7442H113.349V23.1395ZM112.745 23.1395H113.349V23.7442H112.745V23.1395ZM112.14 23.1395H112.745V23.7442H112.14V23.1395ZM112.14 23.7442H112.745V24.3488H112.14V23.7442ZM112.745 23.7442H113.349V24.3488H112.745V23.7442ZM113.349 23.7442H113.954V24.3488H113.349V23.7442ZM113.954 23.7442H114.559V24.3488H113.954V23.7442ZM115.163 23.7442H115.768V24.3488H115.163V23.7442ZM115.768 23.7442H116.373V24.3488H115.768V23.7442ZM116.373 23.7442H116.977V24.3488H116.373V23.7442ZM118.187 23.7442H118.791V24.3488H118.187V23.7442ZM118.791 23.7442H119.396V24.3488H118.791V23.7442ZM114.559 24.3488H115.163V24.9535H114.559V24.3488ZM114.559 24.9535H115.163V25.5581H114.559V24.9535ZM115.163 24.9535H115.768V25.5581H115.163V24.9535ZM115.768 24.9535H116.373V25.5581H115.768V24.9535ZM116.373 24.9535H116.977V25.5581H116.373V24.9535ZM116.373 24.3488H116.977V24.9535H116.373V24.3488ZM115.768 24.3488H116.373V24.9535H115.768V24.3488ZM115.163 24.3488H115.768V24.9535H115.163V24.3488ZM118.187 24.3488H118.791V24.9535H118.187V24.3488ZM118.791 24.3488H119.396V24.9535H118.791V24.3488ZM118.791 24.9535H119.396V25.5581H118.791V24.9535ZM118.187 24.9535H118.791V25.5581H118.187V24.9535ZM120.605 15.8837H121.21V16.4884H120.605V15.8837ZM121.21 15.8837H121.815V16.4884H121.21V15.8837ZM121.21 16.4884H121.815V17.093H121.21V16.4884ZM121.21 17.093H121.815V17.6977H121.21V17.093ZM121.21 17.6977H121.815V18.3023H121.21V17.6977ZM120.605 17.6977H121.21V18.3023H120.605V17.6977ZM120.605 18.3023H121.21V18.907H120.605V18.3023ZM120.605 18.907H121.21V19.5116H120.605V18.907ZM120.605 19.5116H121.21V20.1163H120.605V19.5116ZM120.605 20.1163H121.21V20.7209H120.605V20.1163ZM120.605 20.7209H121.21V21.3256H120.605V20.7209ZM120.605 21.3256H121.21V21.9302H120.605V21.3256ZM121.21 20.7209H121.815V21.3256H121.21V20.7209ZM121.21 20.1163H121.815V20.7209H121.21V20.1163ZM121.21 19.5116H121.815V20.1163H121.21V19.5116ZM121.21 18.907H121.815V19.5116H121.21V18.907ZM121.21 18.3023H121.815V18.907H121.21V18.3023ZM121.21 21.3256H121.815V21.9302H121.21V21.3256ZM121.815 17.093H122.419V17.6977H121.815V17.093ZM122.419 17.093H123.024V17.6977H122.419V17.093ZM122.419 17.6977H123.024V18.3023H122.419V17.6977ZM122.419 18.3023H123.024V18.907H122.419V18.3023ZM122.419 18.907H123.024V19.5116H122.419V18.907ZM121.815 18.907H122.419V19.5116H121.815V18.907ZM121.815 19.5116H122.419V20.1163H121.815V19.5116ZM121.815 20.1163H122.419V20.7209H121.815V20.1163ZM121.815 20.7209H122.419V21.3256H121.815V20.7209ZM121.815 18.3023H122.419V18.907H121.815V18.3023ZM121.815 17.6977H122.419V18.3023H121.815V17.6977ZM121.815 21.3256H122.419V21.9302H121.815V21.3256ZM122.419 20.7209H123.024V21.3256H122.419V20.7209ZM122.419 20.1163H123.024V20.7209H122.419V20.1163ZM122.419 19.5116H123.024V20.1163H122.419V19.5116ZM122.419 21.3256H123.024V21.9302H122.419V21.3256ZM120.605 21.9302H121.21V22.5349H120.605V21.9302ZM120.605 22.5349H121.21V23.1395H120.605V22.5349ZM120.605 23.1395H121.21V23.7442H120.605V23.1395ZM120.605 23.7442H121.21V24.3488H120.605V23.7442ZM120.605 24.3488H121.21V24.9535H120.605V24.3488ZM120.605 24.9535H121.21V25.5581H120.605V24.9535ZM121.21 24.9535H121.815V25.5581H121.21V24.9535ZM121.815 24.9535H122.419V25.5581H121.815V24.9535ZM122.419 24.9535H123.024V25.5581H122.419V24.9535ZM122.419 24.3488H123.024V24.9535H122.419V24.3488ZM122.419 23.7442H123.024V24.3488H122.419V23.7442ZM122.419 23.1395H123.024V23.7442H122.419V23.1395ZM122.419 22.5349H123.024V23.1395H122.419V22.5349ZM122.419 21.9302H123.024V22.5349H122.419V21.9302ZM121.815 21.9302H122.419V22.5349H121.815V21.9302ZM121.815 22.5349H122.419V23.1395H121.815V22.5349ZM121.815 23.1395H122.419V23.7442H121.815V23.1395ZM121.815 23.7442H122.419V24.3488H121.815V23.7442ZM121.815 24.3488H122.419V24.9535H121.815V24.3488ZM121.21 24.3488H121.815V24.9535H121.21V24.3488ZM121.21 23.7442H121.815V24.3488H121.21V23.7442ZM121.21 23.1395H121.815V23.7442H121.21V23.1395ZM121.21 22.5349H121.815V23.1395H121.21V22.5349ZM121.21 21.9302H121.815V22.5349H121.21V21.9302ZM118.187 27.9767H118.791V28.5814H118.187V27.9767ZM118.187 27.3721H118.791V27.9767H118.187V27.3721ZM118.791 27.3721H119.396V27.9767H118.791V27.3721ZM118.791 27.9767H119.396V28.5814H118.791V27.9767ZM118.187 26.7674H118.791V27.3721H118.187V26.7674ZM118.791 26.7674H119.396V27.3721H118.791V26.7674ZM118.791 26.1628H119.396V26.7674H118.791V26.1628ZM118.791 25.5581H119.396V26.1628H118.791V25.5581ZM118.187 26.1628H118.791V26.7674H118.187V26.1628ZM118.187 25.5581H118.791V26.1628H118.187V25.5581ZM116.373 25.5581H116.977V26.1628H116.373V25.5581ZM115.163 25.5581H115.768V26.1628H115.163V25.5581ZM115.768 25.5581H116.373V26.1628H115.768V25.5581ZM114.559 25.5581H115.163V26.1628H114.559V25.5581ZM114.559 26.7674H115.163V27.3721H114.559V26.7674ZM114.559 26.1628H115.163V26.7674H114.559V26.1628ZM115.163 26.1628H115.768V26.7674H115.163V26.1628ZM115.768 26.1628H116.373V26.7674H115.768V26.1628ZM116.373 26.1628H116.977V26.7674H116.373V26.1628ZM116.373 26.7674H116.977V27.3721H116.373V26.7674ZM115.768 26.7674H116.373V27.3721H115.768V26.7674ZM115.163 26.7674H115.768V27.3721H115.163V26.7674ZM120.605 27.9767H121.21V28.5814H120.605V27.9767ZM120.605 27.3721H121.21V27.9767H120.605V27.3721ZM120.605 26.7674H121.21V27.3721H120.605V26.7674ZM120.605 26.1628H121.21V26.7674H120.605V26.1628ZM120.605 25.5581H121.21V26.1628H120.605V25.5581ZM121.21 25.5581H121.815V26.1628H121.21V25.5581ZM121.815 25.5581H122.419V26.1628H121.815V25.5581ZM122.419 25.5581H123.024V26.1628H122.419V25.5581ZM122.419 26.1628H123.024V26.7674H122.419V26.1628ZM122.419 26.7674H123.024V27.3721H122.419V26.7674ZM122.419 27.3721H123.024V27.9767H122.419V27.3721ZM122.419 27.9767H123.024V28.5814H122.419V27.9767ZM121.815 27.9767H122.419V28.5814H121.815V27.9767ZM121.21 27.9767H121.815V28.5814H121.21V27.9767ZM121.21 27.3721H121.815V27.9767H121.21V27.3721ZM121.21 26.7674H121.815V27.3721H121.21V26.7674ZM121.21 26.1628H121.815V26.7674H121.21V26.1628ZM121.815 26.1628H122.419V26.7674H121.815V26.1628ZM121.815 26.7674H122.419V27.3721H121.815V26.7674ZM121.815 27.3721H122.419V27.9767H121.815V27.3721ZM120.605 28.5814H121.21V29.186H120.605V28.5814ZM120.605 29.186H121.21V29.7907H120.605V29.186ZM121.21 29.186H121.815V29.7907H121.21V29.186ZM121.21 28.5814H121.815V29.186H121.21V28.5814ZM123.024 17.093H123.628V17.6977H123.024V17.093ZM123.628 17.093H124.233V17.6977H123.628V17.093ZM123.024 17.6977H123.628V18.3023H123.024V17.6977ZM124.233 16.4884H124.838V17.093H124.233V16.4884ZM121.815 16.4884H122.419V17.093H121.815V16.4884ZM123.628 16.4884H124.233V17.093H123.628V16.4884ZM115.163 17.093H115.768V17.6977H115.163V17.093ZM115.163 17.6977H115.768V18.3023H115.163V17.6977ZM115.768 17.093H116.373V17.6977H115.768V17.093ZM115.768 17.6977H116.373V18.3023H115.768V17.6977ZM116.373 17.6977H116.977V18.3023H116.373V17.6977ZM116.373 18.3023H116.977V18.907H116.373V18.3023ZM115.768 18.3023H116.373V18.907H115.768V18.3023ZM115.163 18.3023H115.768V18.907H115.163V18.3023ZM114.559 18.907H115.163V19.5116H114.559V18.907ZM118.791 17.093H119.396V17.6977H118.791V17.093ZM118.791 17.6977H119.396V18.3023H118.791V17.6977ZM118.187 17.6977H118.791V18.3023H118.187V17.6977ZM114.559 17.6977H115.163V18.3023H114.559V17.6977ZM114.559 18.3023H115.163V18.907H114.559V18.3023ZM114.559 15.8837H115.163V16.4884H114.559V15.8837ZM114.559 16.4884H115.163V17.093H114.559V16.4884ZM115.163 16.4884H115.768V17.093H115.163V16.4884ZM113.954 15.8837H114.559V16.4884H113.954V15.8837ZM113.349 15.8837H113.954V16.4884H113.349V15.8837ZM113.349 16.4884H113.954V17.093H113.349V16.4884ZM113.954 16.4884H114.559V17.093H113.954V16.4884ZM112.745 16.4884H113.349V17.093H112.745V16.4884ZM112.745 15.8837H113.349V16.4884H112.745V15.8837ZM114.559 17.093H115.163V17.6977H114.559V17.093ZM113.954 17.093H114.559V17.6977H113.954V17.093ZM113.349 17.093H113.954V17.6977H113.349V17.093ZM112.745 17.093H113.349V17.6977H112.745V17.093ZM117.582 18.3023H118.187V18.907H117.582V18.3023ZM117.582 18.907H118.187V19.5116H117.582V18.907ZM116.977 18.907H117.582V19.5116H116.977V18.907ZM119.396 16.4884H120.001V17.093H119.396V16.4884ZM120.001 15.8837H120.605V16.4884H120.001V15.8837ZM120.001 16.4884H120.605V17.093H120.001V16.4884ZM120.605 16.4884H121.21V17.093H120.605V16.4884ZM120.605 17.093H121.21V17.6977H120.605V17.093ZM124.233 15.8837H124.838V16.4884H124.233V15.8837ZM118.791 29.7907H119.396V30.3953H118.791V29.7907ZM118.187 29.7907H118.791V30.3953H118.187V29.7907ZM118.187 30.3953H118.791V31H118.187V30.3953ZM118.791 30.3953H119.396V31H118.791V30.3953ZM118.791 29.186H119.396V29.7907H118.791V29.186ZM118.791 28.5814H119.396V29.186H118.791V28.5814ZM118.187 28.5814H118.791V29.186H118.187V28.5814ZM118.187 29.186H118.791V29.7907H118.187V29.186ZM117.582 29.7907H118.187V30.3953H117.582V29.7907ZM117.582 30.3953H118.187V31H117.582V30.3953ZM116.977 30.3953H117.582V31H116.977V30.3953ZM116.977 29.7907H117.582V30.3953H116.977V29.7907ZM116.373 27.3721H116.977V27.9767H116.373V27.3721ZM116.373 27.9767H116.977V28.5814H116.373V27.9767ZM116.373 28.5814H116.977V29.186H116.373V28.5814ZM116.373 30.3953H116.977V31H116.373V30.3953ZM116.373 31H116.977V31.6047H116.373V31ZM116.373 29.7907H116.977V30.3953H116.373V29.7907ZM116.373 29.186H116.977V29.7907H116.373V29.186ZM115.768 29.7907H116.373V30.3953H115.768V29.7907ZM115.768 29.186H116.373V29.7907H115.768V29.186ZM115.768 28.5814H116.373V29.186H115.768V28.5814ZM115.163 27.9767H115.768V28.5814H115.163V27.9767ZM115.163 27.3721H115.768V27.9767H115.163V27.3721ZM114.559 27.3721H115.163V27.9767H114.559V27.3721ZM114.559 27.9767H115.163V28.5814H114.559V27.9767ZM114.559 29.186H115.163V29.7907H114.559V29.186ZM114.559 29.7907H115.163V30.3953H114.559V29.7907ZM114.559 30.3953H115.163V31H114.559V30.3953ZM114.559 31H115.163V31.6047H114.559V31ZM115.163 31H115.768V31.6047H115.163V31ZM115.163 30.3953H115.768V31H115.163V30.3953ZM115.768 30.3953H116.373V31H115.768V30.3953ZM115.768 27.9767H116.373V28.5814H115.768V27.9767ZM115.768 27.3721H116.373V27.9767H115.768V27.3721ZM115.163 28.5814H115.768V29.186H115.163V28.5814ZM115.163 29.186H115.768V29.7907H115.163V29.186ZM115.163 29.7907H115.768V30.3953H115.163V29.7907ZM114.559 28.5814H115.163V29.186H114.559V28.5814ZM114.559 34.0233H115.163V34.6279H114.559V34.0233ZM114.559 33.4186H115.163V34.0233H114.559V33.4186ZM114.559 32.814H115.163V33.4186H114.559V32.814ZM114.559 31.6047H115.163V32.2093H114.559V31.6047ZM114.559 32.2093H115.163V32.814H114.559V32.2093ZM115.163 33.4186H115.768V34.0233H115.163V33.4186ZM115.768 32.814H116.373V33.4186H115.768V32.814ZM116.373 32.2093H116.977V32.814H116.373V32.2093ZM116.373 31.6047H116.977V32.2093H116.373V31.6047ZM115.768 31.6047H116.373V32.2093H115.768V31.6047ZM115.768 32.2093H116.373V32.814H115.768V32.2093ZM115.768 31H116.373V31.6047H115.768V31ZM115.163 31.6047H115.768V32.2093H115.163V31.6047ZM115.163 32.2093H115.768V32.814H115.163V32.2093ZM115.163 32.814H115.768V33.4186H115.163V32.814ZM121.815 28.5814H122.419V29.186H121.815V28.5814ZM120.605 29.7907H121.21V30.3953H120.605V29.7907ZM120.001 29.7907H120.605V30.3953H120.001V29.7907ZM119.396 29.7907H120.001V30.3953H119.396V29.7907ZM119.396 30.3953H120.001V31H119.396V30.3953ZM120.001 30.3953H120.605V31H120.001V30.3953ZM119.396 29.186H120.001V29.7907H119.396V29.186ZM120.001 29.186H120.605V29.7907H120.001V29.186ZM120.001 28.5814H120.605V29.186H120.001V28.5814ZM118.187 18.3023H118.791V18.907H118.187V18.3023ZM116.977 19.5116H117.582V20.1163H116.977V19.5116ZM119.396 17.093H120.001V17.6977H119.396V17.093ZM113.954 17.6977H114.559V18.3023H113.954V17.6977ZM113.349 17.6977H113.954V18.3023H113.349V17.6977ZM113.954 18.3023H114.559V18.907H113.954V18.3023ZM112.745 17.6977H113.349V18.3023H112.745V17.6977ZM113.349 18.3023H113.954V18.907H113.349V18.3023ZM113.954 18.907H114.559V19.5116H113.954V18.907ZM116.977 18.3023H117.582V18.907H116.977V18.3023ZM112.14 16.4884H112.745V17.093H112.14V16.4884ZM111.535 17.093H112.14V17.6977H111.535V17.093ZM112.14 17.093H112.745V17.6977H112.14V17.093ZM110.931 16.4884H111.535V17.093H110.931V16.4884ZM110.326 16.4884H110.931V17.093H110.326V16.4884ZM110.326 15.8837H110.931V16.4884H110.326V15.8837ZM110.931 17.093H111.535V17.6977H110.931V17.093ZM111.535 17.6977H112.14V18.3023H111.535V17.6977ZM112.14 17.6977H112.745V18.3023H112.14V17.6977Z" fill="#A00A10"/>
</svg>
