<svg width="75" height="24" viewBox="0 0 75 24" fill="none" xmlns="http://www.w3.org/2000/svg">
<path d="M0.0683594 3.45703C0.442057 3.5026 0.820312 3.53451 1.20312 3.55273C1.59505 3.57096 1.95052 3.58008 2.26953 3.58008C2.64323 3.58008 3.00781 3.57096 3.36328 3.55273C3.72786 3.54362 4.11068 3.52539 4.51172 3.49805C4.85807 3.47982 5.25 3.45703 5.6875 3.42969C6.125 3.40234 6.58073 3.375 7.05469 3.34766L7.13672 4.53711C7.13672 4.61914 7.14128 4.72396 7.15039 4.85156C7.15039 4.96094 7.15039 5.09766 7.15039 5.26172C7.15951 5.42578 7.16862 5.61719 7.17773 5.83594C6.84961 6.11849 6.55339 6.38737 6.28906 6.64258C6.03385 6.88867 5.8151 7.10742 5.63281 7.29883C5.41406 7.52669 5.22266 7.73633 5.05859 7.92773C4.84896 8.17383 4.62565 8.47461 4.38867 8.83008C4.15169 9.17643 3.92839 9.51823 3.71875 9.85547C3.51823 10.1836 3.35417 10.4798 3.22656 10.7441C3.09896 10.9993 3.04427 11.1589 3.0625 11.2227C3.07161 11.2682 3.16276 11.2956 3.33594 11.3047C3.50911 11.3047 3.71875 11.2956 3.96484 11.2773C4.22005 11.2591 4.49805 11.2318 4.79883 11.1953C5.10872 11.1497 5.39583 11.1042 5.66016 11.0586C5.93359 11.0039 6.17513 10.9492 6.38477 10.8945C6.5944 10.8398 6.73112 10.7852 6.79492 10.7305C6.87695 10.6576 6.9681 10.5254 7.06836 10.334C7.15951 10.1699 7.25977 9.94206 7.36914 9.65039C7.48763 9.34961 7.61979 8.94857 7.76562 8.44727C7.77474 8.82096 7.7793 9.13997 7.7793 9.4043C7.78841 9.66862 7.80208 9.89193 7.82031 10.0742C7.82943 10.2839 7.8431 10.457 7.86133 10.5938C7.87044 10.7396 7.88867 10.9036 7.91602 11.0859C7.93424 11.2409 7.95703 11.4368 7.98438 11.6738C8.01172 11.9108 8.04818 12.1751 8.09375 12.4668C7.4375 12.3848 6.88607 12.3301 6.43945 12.3027C5.99284 12.2663 5.63281 12.2435 5.35938 12.2344C5.04036 12.2253 4.78516 12.2253 4.59375 12.2344C4.39323 12.2617 4.11979 12.3027 3.77344 12.3574C3.48177 12.403 3.0944 12.4759 2.61133 12.5762C2.12826 12.6673 1.52214 12.7904 0.792969 12.9453C0.77474 12.7721 0.75651 12.6217 0.738281 12.4941C0.720052 12.3665 0.701823 12.2526 0.683594 12.1523C0.665365 12.0521 0.647135 11.9564 0.628906 11.8652C0.610677 11.7832 0.587891 11.6693 0.560547 11.5234C0.542318 11.3958 0.510417 11.2409 0.464844 11.0586C0.428385 10.8672 0.382812 10.6302 0.328125 10.3477C0.875 9.78255 1.32617 9.30859 1.68164 8.92578C2.04622 8.53385 2.33789 8.21484 2.55664 7.96875C2.81185 7.67708 3.01237 7.44466 3.1582 7.27148C3.29492 7.09831 3.47266 6.88867 3.69141 6.64258C3.8737 6.43294 4.11068 6.17318 4.40234 5.86328C4.69401 5.54427 5.04492 5.16602 5.45508 4.72852C5.03581 4.71029 4.64388 4.71029 4.2793 4.72852C3.92383 4.74674 3.61393 4.77409 3.34961 4.81055C3.03971 4.84701 2.7526 4.89714 2.48828 4.96094C2.24219 5.03385 1.99154 5.15234 1.73633 5.31641C1.51758 5.45312 1.2806 5.64453 1.02539 5.89062C0.770182 6.13672 0.528646 6.45573 0.300781 6.84766C0.282552 6.54688 0.26888 6.29167 0.259766 6.08203C0.250651 5.8724 0.241536 5.69922 0.232422 5.5625C0.223307 5.40755 0.214193 5.27995 0.205078 5.17969C0.205078 5.07943 0.195964 4.94727 0.177734 4.7832C0.159505 4.64648 0.141276 4.47331 0.123047 4.26367C0.104818 4.04492 0.0865885 3.77604 0.0683594 3.45703ZM12.25 6.875C12.487 6.875 12.7331 6.92057 12.9883 7.01172C13.2435 7.09375 13.4896 7.20312 13.7266 7.33984C13.9635 7.46745 14.1777 7.60872 14.3691 7.76367C14.5697 7.90951 14.7337 8.05078 14.8613 8.1875C15.0892 8.43359 15.2441 8.76628 15.3262 9.18555C15.4173 9.5957 15.4355 10.0195 15.3809 10.457C15.3262 10.8854 15.1986 11.291 14.998 11.6738C14.7975 12.0566 14.5195 12.3392 14.1641 12.5215C13.9089 12.6491 13.6582 12.7493 13.4121 12.8223C13.166 12.8952 12.929 12.9499 12.7012 12.9863C12.4733 13.0228 12.2591 13.041 12.0586 13.041C11.8581 13.041 11.6849 13.0365 11.5391 13.0273C11.2656 13.0091 10.9785 12.9134 10.6777 12.7402C10.3861 12.5671 10.1081 12.3529 9.84375 12.0977C9.58854 11.8424 9.36979 11.5645 9.1875 11.2637C9.00521 10.9538 8.89583 10.6621 8.85938 10.3887C8.80469 10.015 8.79557 9.62305 8.83203 9.21289C8.86849 8.80273 9.00065 8.42448 9.22852 8.07812C9.46549 7.73177 9.82096 7.44466 10.2949 7.2168C10.778 6.98893 11.4297 6.875 12.25 6.875ZM11.7988 12.1797C11.8991 12.1979 12.0358 12.1751 12.209 12.1113C12.3822 12.0384 12.5508 11.9245 12.7148 11.7695C12.888 11.6146 13.0384 11.4186 13.166 11.1816C13.3027 10.9355 13.3848 10.6393 13.4121 10.293C13.4395 9.95573 13.4395 9.64583 13.4121 9.36328C13.3939 9.08073 13.3529 8.83464 13.2891 8.625C13.2253 8.40625 13.1523 8.22852 13.0703 8.0918C12.9883 7.95508 12.9017 7.85938 12.8105 7.80469C12.6556 7.72266 12.4688 7.65885 12.25 7.61328C12.0312 7.55859 11.8444 7.56771 11.6895 7.64062C11.6165 7.67708 11.5254 7.75456 11.416 7.87305C11.3066 7.99154 11.1973 8.14193 11.0879 8.32422C10.9785 8.4974 10.8783 8.69792 10.7871 8.92578C10.7051 9.15365 10.6458 9.39062 10.6094 9.63672C10.5729 9.88281 10.5638 10.1471 10.582 10.4297C10.6094 10.7122 10.6686 10.9811 10.7598 11.2363C10.8509 11.4824 10.9785 11.6966 11.1426 11.8789C11.3158 12.0521 11.5345 12.1523 11.7988 12.1797ZM15.9688 6.51953C16.1784 6.5013 16.3561 6.48307 16.502 6.46484C16.6569 6.44661 16.7845 6.42839 16.8848 6.41016C17.0033 6.39193 17.1035 6.3737 17.1855 6.35547C17.2676 6.34635 17.3587 6.32812 17.459 6.30078C17.5501 6.28255 17.6504 6.25977 17.7598 6.23242C17.8783 6.19596 18.0059 6.15495 18.1426 6.10938L18.0605 7.8457C18.2611 7.52669 18.4935 7.28516 18.7578 7.12109C19.0221 6.94792 19.2728 6.82031 19.5098 6.73828C19.7923 6.63802 20.0749 6.57878 20.3574 6.56055C20.6491 6.56966 20.918 6.61523 21.1641 6.69727C21.3737 6.77018 21.5833 6.88411 21.793 7.03906C22.0117 7.19401 22.1803 7.42188 22.2988 7.72266C22.6087 7.40365 22.9141 7.15755 23.2148 6.98438C23.5247 6.80208 23.7982 6.66536 24.0352 6.57422C24.3177 6.47396 24.582 6.41471 24.8281 6.39648C25.1562 6.38737 25.457 6.44206 25.7305 6.56055C26.013 6.67904 26.2591 6.82943 26.4688 7.01172C26.6784 7.1849 26.847 7.37174 26.9746 7.57227C27.1022 7.76367 27.1751 7.93229 27.1934 8.07812C27.2207 8.27865 27.207 8.53841 27.1523 8.85742C27.0977 9.16732 27.0339 9.48633 26.9609 9.81445C26.888 10.1335 26.8197 10.4297 26.7559 10.7031C26.7012 10.9674 26.6784 11.1543 26.6875 11.2637C26.7148 11.3548 26.7786 11.4642 26.8789 11.5918C26.9701 11.7012 27.1022 11.8379 27.2754 12.002C27.4577 12.1569 27.7174 12.3392 28.0547 12.5488C27.763 12.5397 27.5033 12.5306 27.2754 12.5215C27.0566 12.5124 26.8698 12.4987 26.7148 12.4805C26.5326 12.4622 26.373 12.4486 26.2363 12.4395C26.127 12.4395 25.9948 12.4303 25.8398 12.4121C25.7122 12.403 25.5436 12.3893 25.334 12.3711C25.1335 12.3529 24.901 12.3346 24.6367 12.3164C24.737 12.2891 24.819 12.2389 24.8828 12.166C24.9466 12.084 25.0013 12.0065 25.0469 11.9336C25.0924 11.8424 25.1289 11.7422 25.1562 11.6328C25.1745 11.5417 25.1927 11.3958 25.2109 11.1953C25.2292 10.9948 25.2428 10.7669 25.252 10.5117C25.2702 10.2565 25.2793 9.98763 25.2793 9.70508C25.2884 9.42253 25.2884 9.15365 25.2793 8.89844C25.2702 8.64323 25.252 8.41081 25.2246 8.20117C25.1973 7.99154 25.1608 7.83203 25.1152 7.72266C25.0788 7.64062 25.015 7.57682 24.9238 7.53125C24.8327 7.47656 24.7279 7.44466 24.6094 7.43555C24.4909 7.41732 24.3724 7.42188 24.2539 7.44922C24.1354 7.46745 24.0306 7.50391 23.9395 7.55859C23.8574 7.6224 23.748 7.70898 23.6113 7.81836C23.4928 7.91862 23.3379 8.05534 23.1465 8.22852C22.9551 8.40169 22.7135 8.62044 22.4219 8.88477C22.3945 9.45898 22.3717 9.92383 22.3535 10.2793C22.3444 10.6257 22.3353 10.89 22.3262 11.0723C22.3171 11.291 22.3125 11.4414 22.3125 11.5234C22.3034 11.5964 22.3079 11.6647 22.3262 11.7285C22.3444 11.8652 22.3991 11.9928 22.4902 12.1113C22.3809 12.084 22.2624 12.0658 22.1348 12.0566C22.0163 12.0475 21.9069 12.0384 21.8066 12.0293C21.6882 12.0202 21.5697 12.0156 21.4512 12.0156C21.3509 12.0156 21.2415 12.0202 21.123 12.0293C21.0228 12.0384 20.8997 12.0521 20.7539 12.0703C20.6081 12.0794 20.4486 12.0931 20.2754 12.1113C20.3483 12.0658 20.4076 12.0111 20.4531 11.9473C20.4987 11.8835 20.5352 11.8242 20.5625 11.7695C20.599 11.7057 20.6263 11.6465 20.6445 11.5918C20.6536 11.5371 20.6719 11.4049 20.6992 11.1953C20.7266 10.9766 20.7448 10.7214 20.7539 10.4297C20.763 10.138 20.763 9.83268 20.7539 9.51367C20.7448 9.18555 20.7129 8.88932 20.6582 8.625C20.6035 8.35156 20.5169 8.12826 20.3984 7.95508C20.2891 7.7819 20.1432 7.70443 19.9609 7.72266C19.7422 7.74089 19.5189 7.79557 19.291 7.88672C19.0996 7.95964 18.8945 8.06901 18.6758 8.21484C18.457 8.36068 18.252 8.55664 18.0605 8.80273C18.0241 9.48633 18.0013 10.0286 17.9922 10.4297C17.9922 10.8307 17.9967 11.1361 18.0059 11.3457C18.015 11.5918 18.0241 11.7604 18.0332 11.8516C18.0423 11.9154 18.0651 11.9792 18.1016 12.043C18.1289 12.0977 18.1608 12.1615 18.1973 12.2344C18.2428 12.3073 18.293 12.3757 18.3477 12.4395L16.1738 12.3301C16.2467 12.2936 16.3105 12.248 16.3652 12.1934C16.4199 12.1296 16.4655 12.0658 16.502 12.002C16.5384 11.929 16.5749 11.8561 16.6113 11.7832C16.6387 11.7194 16.6615 11.569 16.6797 11.332C16.707 11.0951 16.7298 10.8171 16.748 10.498C16.7663 10.1699 16.7799 9.82812 16.7891 9.47266C16.8073 9.10807 16.8164 8.77083 16.8164 8.46094C16.8255 8.14193 16.8301 7.87305 16.8301 7.6543C16.8301 7.42643 16.8255 7.28971 16.8164 7.24414C16.7891 7.15299 16.7389 7.05729 16.666 6.95703C16.6022 6.88411 16.5156 6.80664 16.4062 6.72461C16.2969 6.63346 16.151 6.5651 15.9688 6.51953ZM28.123 3.40234C28.3327 3.45703 28.5241 3.49805 28.6973 3.52539C28.8796 3.54362 29.0345 3.55729 29.1621 3.56641C29.3171 3.57552 29.4583 3.58008 29.5859 3.58008C29.7135 3.58008 29.873 3.57096 30.0645 3.55273C30.4017 3.52539 30.8802 3.45703 31.5 3.34766C31.3997 3.42057 31.304 3.49349 31.2129 3.56641C31.1309 3.63021 31.0579 3.69401 30.9941 3.75781L30.7891 3.96289C30.6706 4.12695 30.5521 4.40495 30.4336 4.79688C30.3333 5.13411 30.224 5.60807 30.1055 6.21875C29.9961 6.82943 29.8958 7.64062 29.8047 8.65234C30.2513 8.21484 30.6706 7.88672 31.0625 7.66797C31.4635 7.4401 31.8145 7.27604 32.1152 7.17578C32.4707 7.06641 32.7943 7.00716 33.0859 6.99805C33.4596 7.02539 33.7832 7.10286 34.0566 7.23047C34.3392 7.34896 34.5762 7.49479 34.7676 7.66797C34.9681 7.83203 35.1276 8.00521 35.2461 8.1875C35.3737 8.36068 35.4694 8.51562 35.5332 8.65234C35.5697 8.74349 35.597 8.91211 35.6152 9.1582C35.6426 9.39518 35.6471 9.66862 35.6289 9.97852C35.6107 10.2884 35.5605 10.6165 35.4785 10.9629C35.4056 11.3001 35.2826 11.6146 35.1094 11.9062C34.9453 12.1888 34.7266 12.4258 34.4531 12.6172C34.1888 12.8086 33.8561 12.9134 33.4551 12.9316C32.9902 12.9316 32.5391 12.877 32.1016 12.7676C31.7279 12.6764 31.3314 12.5169 30.9121 12.2891C30.502 12.0521 30.151 11.7148 29.8594 11.2773C29.8594 11.3867 29.8594 11.4961 29.8594 11.6055C29.8594 11.7057 29.8639 11.7923 29.873 11.8652C29.8822 11.9655 29.8913 12.0521 29.9004 12.125C29.9095 12.207 29.9323 12.2936 29.9688 12.3848C29.9961 12.4577 30.0371 12.5488 30.0918 12.6582C30.1556 12.7585 30.2376 12.8587 30.3379 12.959C30.2376 12.9499 30.1374 12.9453 30.0371 12.9453C29.9368 12.9362 29.8366 12.9362 29.7363 12.9453C29.627 12.9544 29.5176 12.9635 29.4082 12.9727C29.2988 12.9818 29.1849 12.9954 29.0664 13.0137C28.9661 13.0319 28.8477 13.0547 28.7109 13.082C28.5742 13.1094 28.4329 13.1413 28.2871 13.1777C28.3145 13.0957 28.3372 12.9772 28.3555 12.8223C28.3737 12.6582 28.3919 12.4805 28.4102 12.2891C28.4375 12.0885 28.4557 11.8789 28.4648 11.6602C28.4831 11.4414 28.5013 11.2227 28.5195 11.0039C28.556 10.5026 28.5879 9.95573 28.6152 9.36328C28.6426 8.44271 28.6471 7.58594 28.6289 6.79297C28.6198 6.45573 28.6016 6.11393 28.5742 5.76758C28.556 5.42122 28.5286 5.09766 28.4922 4.79688C28.4557 4.48698 28.4056 4.21354 28.3418 3.97656C28.2871 3.73047 28.2142 3.53906 28.123 3.40234ZM29.9004 10.0605C30.0462 10.3249 30.2012 10.5527 30.3652 10.7441C30.5293 10.9264 30.6934 11.0814 30.8574 11.209C31.0215 11.3366 31.181 11.4368 31.3359 11.5098C31.5 11.5827 31.6549 11.6374 31.8008 11.6738C32.138 11.765 32.4707 11.7741 32.7988 11.7012C33.127 11.61 33.3822 11.4277 33.5645 11.1543C33.7467 10.8809 33.888 10.571 33.9883 10.2246C34.0339 10.0605 34.0612 9.85091 34.0703 9.5957C34.0885 9.34049 34.0612 9.0944 33.9883 8.85742C33.9245 8.61133 33.806 8.39714 33.6328 8.21484C33.4596 8.02344 33.209 7.90951 32.8809 7.87305C32.653 7.87305 32.3887 7.93685 32.0879 8.06445C31.8236 8.17383 31.5091 8.35612 31.1445 8.61133C30.7799 8.85742 30.3652 9.22656 29.9004 9.71875V10.0605ZM39.9355 6.875C40.1725 6.875 40.4186 6.92057 40.6738 7.01172C40.929 7.09375 41.1751 7.20312 41.4121 7.33984C41.6491 7.46745 41.8633 7.60872 42.0547 7.76367C42.2552 7.90951 42.4193 8.05078 42.5469 8.1875C42.7747 8.43359 42.9297 8.76628 43.0117 9.18555C43.1029 9.5957 43.1211 10.0195 43.0664 10.457C43.0117 10.8854 42.8841 11.291 42.6836 11.6738C42.4831 12.0566 42.2051 12.3392 41.8496 12.5215C41.5944 12.6491 41.3438 12.7493 41.0977 12.8223C40.8516 12.8952 40.6146 12.9499 40.3867 12.9863C40.1589 13.0228 39.9447 13.041 39.7441 13.041C39.5436 13.041 39.3704 13.0365 39.2246 13.0273C38.9512 13.0091 38.6641 12.9134 38.3633 12.7402C38.0716 12.5671 37.7936 12.3529 37.5293 12.0977C37.2741 11.8424 37.0553 11.5645 36.873 11.2637C36.6908 10.9538 36.5814 10.6621 36.5449 10.3887C36.4902 10.015 36.4811 9.62305 36.5176 9.21289C36.554 8.80273 36.6862 8.42448 36.9141 8.07812C37.151 7.73177 37.5065 7.44466 37.9805 7.2168C38.4635 6.98893 39.1152 6.875 39.9355 6.875ZM39.4844 12.1797C39.5846 12.1979 39.7214 12.1751 39.8945 12.1113C40.0677 12.0384 40.2363 11.9245 40.4004 11.7695C40.5736 11.6146 40.724 11.4186 40.8516 11.1816C40.9883 10.9355 41.0703 10.6393 41.0977 10.293C41.125 9.95573 41.125 9.64583 41.0977 9.36328C41.0794 9.08073 41.0384 8.83464 40.9746 8.625C40.9108 8.40625 40.8379 8.22852 40.7559 8.0918C40.6738 7.95508 40.5872 7.85938 40.4961 7.80469C40.3411 7.72266 40.1543 7.65885 39.9355 7.61328C39.7168 7.55859 39.5299 7.56771 39.375 7.64062C39.3021 7.67708 39.2109 7.75456 39.1016 7.87305C38.9922 7.99154 38.8828 8.14193 38.7734 8.32422C38.6641 8.4974 38.5638 8.69792 38.4727 8.92578C38.3906 9.15365 38.3314 9.39062 38.2949 9.63672C38.2585 9.88281 38.2493 10.1471 38.2676 10.4297C38.2949 10.7122 38.3542 10.9811 38.4453 11.2363C38.5365 11.4824 38.6641 11.6966 38.8281 11.8789C39.0013 12.0521 39.2201 12.1523 39.4844 12.1797ZM43.7227 6.88867L46.2383 6.91602C46.0924 7.47201 45.9831 7.94596 45.9102 8.33789C45.8464 8.72982 45.8053 9.05794 45.7871 9.32227C45.7507 9.62305 45.7415 9.87826 45.7598 10.0879C45.7871 10.2793 45.8327 10.4844 45.8965 10.7031C45.9512 10.8854 46.0332 11.0951 46.1426 11.332C46.252 11.569 46.3978 11.806 46.5801 12.043C46.4707 12.0065 46.3522 11.9792 46.2246 11.9609C46.097 11.9427 45.9785 11.929 45.8691 11.9199C45.7415 11.9108 45.6139 11.9108 45.4863 11.9199C45.3587 11.929 45.2174 11.9427 45.0625 11.9609C44.9349 11.9792 44.7799 12.002 44.5977 12.0293C44.4154 12.0566 44.224 12.0931 44.0234 12.1387C44.1602 11.7285 44.265 11.373 44.3379 11.0723C44.4199 10.7715 44.4792 10.5208 44.5156 10.3203C44.5521 10.0833 44.5749 9.89193 44.584 9.74609C44.584 9.5638 44.584 9.35872 44.584 9.13086C44.584 8.89388 44.584 8.66602 44.584 8.44727C44.584 8.22852 44.5794 8.03711 44.5703 7.87305C44.5612 7.69987 44.543 7.59049 44.5156 7.54492L44.3789 7.4082C44.3242 7.36263 44.2422 7.29883 44.1328 7.2168C44.0326 7.12565 43.8958 7.01628 43.7227 6.88867ZM44.6934 4.7832C44.8848 4.68294 45.0762 4.6556 45.2676 4.70117C45.4681 4.74674 45.623 4.83333 45.7324 4.96094C45.8418 5.08854 45.8783 5.23893 45.8418 5.41211C45.8145 5.58529 45.6686 5.75391 45.4043 5.91797C45.14 6.07292 44.9076 6.1276 44.707 6.08203C44.5065 6.03646 44.3652 5.94076 44.2832 5.79492C44.2012 5.64909 44.1875 5.48047 44.2422 5.28906C44.2969 5.08854 44.4473 4.91992 44.6934 4.7832ZM53.7852 2.52734C53.9583 2.53646 54.1452 2.54102 54.3457 2.54102C54.5189 2.54102 54.7148 2.54557 54.9336 2.55469C55.1615 2.55469 55.3984 2.54557 55.6445 2.52734C55.4258 2.6276 55.2344 2.77344 55.0703 2.96484C54.9062 3.15625 54.7741 3.34766 54.6738 3.53906C54.5462 3.76693 54.4414 4.00391 54.3594 4.25C54.3138 4.39583 54.2773 4.6556 54.25 5.0293C54.2227 5.39388 54.1999 5.82227 54.1816 6.31445C54.1725 6.80664 54.168 7.32617 54.168 7.87305C54.168 8.41992 54.1725 8.94401 54.1816 9.44531C54.1908 9.9375 54.2044 10.375 54.2227 10.7578C54.2409 11.1406 54.2637 11.4095 54.291 11.5645C54.3275 11.7467 54.373 11.9199 54.4277 12.084C54.4733 12.2298 54.5326 12.3802 54.6055 12.5352C54.6784 12.681 54.7695 12.7995 54.8789 12.8906L53.4844 13.5195C53.4115 13.4193 53.3522 13.3145 53.3066 13.2051C53.2611 13.1048 53.2246 13.0137 53.1973 12.9316C53.1608 12.8314 53.138 12.7402 53.1289 12.6582C53.1107 12.5488 53.0924 12.4303 53.0742 12.3027C53.056 12.166 53.0332 12.0384 53.0059 11.9199C52.9876 11.7923 52.974 11.6875 52.9648 11.6055C52.9557 11.5234 52.9557 11.4733 52.9648 11.4551C52.974 11.4368 52.9193 11.5189 52.8008 11.7012C52.6823 11.8743 52.5046 12.0794 52.2676 12.3164C52.0397 12.5443 51.7572 12.7676 51.4199 12.9863C51.0827 13.196 50.7044 13.3281 50.2852 13.3828C49.8568 13.4375 49.4603 13.3555 49.0957 13.1367C48.7402 12.918 48.4349 12.6126 48.1797 12.2207C47.9245 11.8197 47.7285 11.3594 47.5918 10.8398C47.4642 10.3112 47.4141 9.77344 47.4414 9.22656C47.4596 8.86198 47.5417 8.53841 47.6875 8.25586C47.8333 7.96419 48.0156 7.71354 48.2344 7.50391C48.4622 7.28516 48.7083 7.10286 48.9727 6.95703C49.2461 6.80208 49.5104 6.67448 49.7656 6.57422C50.0299 6.47396 50.276 6.40104 50.5039 6.35547C50.7318 6.3099 50.9141 6.27799 51.0508 6.25977C51.2148 6.25065 51.4017 6.27799 51.6113 6.3418C51.7936 6.39648 52.0033 6.48763 52.2402 6.61523C52.4863 6.74284 52.7598 6.93424 53.0605 7.18945C53.0059 6.27799 52.9557 5.54883 52.9102 5.00195C52.8646 4.44596 52.819 4.02214 52.7734 3.73047C52.7279 3.38411 52.6868 3.14714 52.6504 3.01953C52.6048 2.92839 52.5456 2.83724 52.4727 2.74609C52.4089 2.67318 52.3268 2.60026 52.2266 2.52734C52.1354 2.44531 52.026 2.38151 51.8984 2.33594C52.1354 2.38151 52.3633 2.41341 52.582 2.43164C52.8008 2.44987 53.0013 2.4681 53.1836 2.48633C53.3932 2.50456 53.5938 2.51823 53.7852 2.52734ZM50.3535 7.62695C50.1803 7.69076 50.0391 7.80013 49.9297 7.95508C49.8294 8.11003 49.7474 8.29688 49.6836 8.51562C49.6198 8.72526 49.5742 8.95312 49.5469 9.19922C49.5286 9.4362 49.515 9.66862 49.5059 9.89648C49.5059 10.1152 49.5059 10.3158 49.5059 10.498C49.5059 10.6803 49.5059 10.8171 49.5059 10.9082C49.5059 10.9629 49.515 11.0632 49.5332 11.209C49.5605 11.3457 49.6152 11.4915 49.6973 11.6465C49.7793 11.7923 49.8932 11.9245 50.0391 12.043C50.194 12.1615 50.3991 12.2207 50.6543 12.2207C50.8639 12.2025 51.0872 12.1296 51.3242 12.002C51.5339 11.8926 51.7708 11.7194 52.0352 11.4824C52.3086 11.2363 52.6003 10.8854 52.9102 10.4297C52.8919 10.138 52.8783 9.89648 52.8691 9.70508C52.8691 9.51367 52.8646 9.35872 52.8555 9.24023C52.8464 9.10352 52.8418 8.99414 52.8418 8.91211V8.70703C52.8418 8.65234 52.8418 8.5931 52.8418 8.5293C52.8418 8.46549 52.8464 8.40625 52.8555 8.35156C52.6003 8.16927 52.3724 8.01432 52.1719 7.88672C51.9805 7.75 51.7891 7.64974 51.5977 7.58594C51.4154 7.51302 51.224 7.48112 51.0234 7.49023C50.832 7.49023 50.6087 7.53581 50.3535 7.62695Z" fill="#A4A4A4"/>
<path d="M60.9535 14.3023H61.3256V14.6744H60.9535V14.3023ZM60.5814 14.3023H60.9535V14.6744H60.5814V14.3023ZM60.5814 14.6744H60.9535V15.0465H60.5814V14.6744ZM60.5814 15.0465H60.9535V15.4186H60.5814V15.0465ZM60.9535 15.0465H61.3256V15.4186H60.9535V15.0465ZM60.9535 14.6744H61.3256V15.0465H60.9535V14.6744ZM59.4651 15.4186H59.8372V15.7907H59.4651V15.4186ZM59.4651 15.7907H59.8372V16.1628H59.4651V15.7907ZM59.4651 16.1628H59.8372V16.5349H59.4651V16.1628ZM59.093 16.1628H59.4651V16.5349H59.093V16.1628ZM59.093 15.7907H59.4651V16.1628H59.093V15.7907ZM59.093 15.4186H59.4651V15.7907H59.093V15.4186ZM58.3488 15.4186H58.7209V15.7907H58.3488V15.4186ZM58.3488 15.7907H58.7209V16.1628H58.3488V15.7907ZM58.3488 16.1628H58.7209V16.5349H58.3488V16.1628ZM58.3488 16.5349H58.7209V16.907H58.3488V16.5349ZM58.7209 16.1628H59.093V16.5349H58.7209V16.1628ZM58.7209 15.7907H59.093V16.1628H58.7209V15.7907ZM58.7209 15.4186H59.093V15.7907H58.7209V15.4186ZM57.9767 16.1628H58.3488V16.5349H57.9767V16.1628ZM57.6047 16.1628H57.9767V16.5349H57.6047V16.1628ZM57.2326 16.1628H57.6047V16.5349H57.2326V16.1628ZM56.8605 16.1628H57.2326V16.5349H56.8605V16.1628ZM56.8605 16.5349H57.2326V16.907H56.8605V16.5349ZM57.2326 16.5349H57.6047V16.907H57.2326V16.5349ZM57.6047 16.5349H57.9767V16.907H57.6047V16.5349ZM57.9767 16.5349H58.3488V16.907H57.9767V16.5349ZM58.7209 16.5349H59.093V16.907H58.7209V16.5349ZM59.093 16.5349H59.4651V16.907H59.093V16.5349ZM59.4651 16.5349H59.8372V16.907H59.4651V16.5349ZM62.0698 11.6977H62.4419V12.0698H62.0698V11.6977ZM62.4419 11.6977H62.814V12.0698H62.4419V11.6977ZM62.4419 12.0698H62.814V12.4419H62.4419V12.0698ZM62.4419 12.4419H62.814V12.814H62.4419V12.4419ZM62.4419 12.814H62.814V13.186H62.4419V12.814ZM62.0698 12.814H62.4419V13.186H62.0698V12.814ZM62.0698 13.186H62.4419V13.5581H62.0698V13.186ZM62.0698 13.5581H62.4419V13.9302H62.0698V13.5581ZM62.0698 13.9302H62.4419V14.3023H62.0698V13.9302ZM62.0698 14.3023H62.4419V14.6744H62.0698V14.3023ZM62.0698 14.6744H62.4419V15.0465H62.0698V14.6744ZM62.0698 15.0465H62.4419V15.4186H62.0698V15.0465ZM62.4419 14.6744H62.814V15.0465H62.4419V14.6744ZM62.4419 14.3023H62.814V14.6744H62.4419V14.3023ZM62.4419 13.9302H62.814V14.3023H62.4419V13.9302ZM62.4419 13.5581H62.814V13.9302H62.4419V13.5581ZM62.4419 13.186H62.814V13.5581H62.4419V13.186ZM62.4419 15.0465H62.814V15.4186H62.4419V15.0465ZM62.814 12.4419H63.186V12.814H62.814V12.4419ZM63.186 12.4419H63.5581V12.814H63.186V12.4419ZM63.186 12.814H63.5581V13.186H63.186V12.814ZM63.186 13.186H63.5581V13.5581H63.186V13.186ZM63.186 13.5581H63.5581V13.9302H63.186V13.5581ZM62.814 13.5581H63.186V13.9302H62.814V13.5581ZM62.814 13.9302H63.186V14.3023H62.814V13.9302ZM62.814 14.3023H63.186V14.6744H62.814V14.3023ZM62.814 14.6744H63.186V15.0465H62.814V14.6744ZM62.814 13.186H63.186V13.5581H62.814V13.186ZM62.814 12.814H63.186V13.186H62.814V12.814ZM62.814 15.0465H63.186V15.4186H62.814V15.0465ZM63.186 14.6744H63.5581V15.0465H63.186V14.6744ZM63.186 14.3023H63.5581V14.6744H63.186V14.3023ZM63.186 13.9302H63.5581V14.3023H63.186V13.9302ZM62.0698 15.4186H62.4419V15.7907H62.0698V15.4186ZM62.0698 15.7907H62.4419V16.1628H62.0698V15.7907ZM62.4419 15.4186H62.814V15.7907H62.4419V15.4186ZM63.5581 12.4419H63.9302V12.814H63.5581V12.4419ZM63.9302 12.4419H64.3023V12.814H63.9302V12.4419ZM63.5581 12.814H63.9302V13.186H63.5581V12.814ZM64.3023 12.0698H64.6744V12.4419H64.3023V12.0698ZM62.814 12.0698H63.186V12.4419H62.814V12.0698ZM63.9302 12.0698H64.3023V12.4419H63.9302V12.0698ZM60.9535 12.4419H61.3256V12.814H60.9535V12.4419ZM60.9535 12.814H61.3256V13.186H60.9535V12.814ZM60.5814 12.814H60.9535V13.186H60.5814V12.814ZM60.2093 13.186H60.5814V13.5581H60.2093V13.186ZM60.2093 13.5581H60.5814V13.9302H60.2093V13.5581ZM59.8372 13.5581H60.2093V13.9302H59.8372V13.5581ZM61.3256 12.0698H61.6977V12.4419H61.3256V12.0698ZM61.6977 11.6977H62.0698V12.0698H61.6977V11.6977ZM61.6977 12.0698H62.0698V12.4419H61.6977V12.0698ZM62.0698 12.0698H62.4419V12.4419H62.0698V12.0698ZM62.0698 12.4419H62.4419V12.814H62.0698V12.4419ZM64.3023 11.6977H64.6744V12.0698H64.3023V11.6977ZM60.5814 13.186H60.9535V13.5581H60.5814V13.186ZM59.8372 13.9302H60.2093V14.3023H59.8372V13.9302ZM61.3256 12.4419H61.6977V12.814H61.3256V12.4419ZM61.6977 16.1628H62.0698V16.5349H61.6977V16.1628ZM61.3256 16.1628H61.6977V16.5349H61.3256V16.1628ZM61.3256 16.5349H61.6977V16.907H61.3256V16.5349ZM61.6977 16.5349H62.0698V16.907H61.6977V16.5349ZM60.9535 16.1628H61.3256V16.5349H60.9535V16.1628ZM60.5814 16.1628H60.9535V16.5349H60.5814V16.1628ZM60.5814 16.5349H60.9535V16.907H60.5814V16.5349ZM60.9535 16.5349H61.3256V16.907H60.9535V16.5349ZM58.3488 16.907H58.7209V17.2791H58.3488V16.907ZM58.3488 17.2791H58.7209V17.6512H58.3488V17.2791ZM58.7209 17.2791H59.093V17.6512H58.7209V17.2791ZM58.7209 16.907H59.093V17.2791H58.7209V16.907ZM58.7209 17.6512H59.093V18.0233H58.7209V17.6512ZM58.7209 18.0233H59.093V18.3953H58.7209V18.0233ZM58.3488 18.0233H58.7209V18.3953H58.3488V18.0233ZM58.3488 17.6512H58.7209V18.0233H58.3488V17.6512ZM59.093 17.6512H59.4651V18.0233H59.093V17.6512ZM59.093 17.2791H59.4651V17.6512H59.093V17.2791ZM59.093 16.907H59.4651V17.2791H59.093V16.907ZM59.4651 16.907H59.8372V17.2791H59.4651V16.907ZM59.4651 17.2791H59.8372V17.6512H59.4651V17.2791ZM59.4651 17.6512H59.8372V18.0233H59.4651V17.6512ZM59.4651 18.0233H59.8372V18.3953H59.4651V18.0233ZM59.093 18.0233H59.4651V18.3953H59.093V18.0233ZM60.5814 17.6512H60.9535V18.0233H60.5814V17.6512ZM60.9535 17.6512H61.3256V18.0233H60.9535V17.6512ZM60.9535 18.0233H61.3256V18.3953H60.9535V18.0233ZM60.5814 18.0233H60.9535V18.3953H60.5814V18.0233ZM60.5814 18.3953H60.9535V18.7674H60.5814V18.3953ZM60.9535 18.3953H61.3256V18.7674H60.9535V18.3953ZM60.5814 19.1395H60.9535V19.5116H60.5814V19.1395ZM62.0698 16.907H62.4419V17.2791H62.0698V16.907ZM62.4419 16.907H62.814V17.2791H62.4419V16.907ZM62.4419 17.2791H62.814V17.6512H62.4419V17.2791ZM62.4419 17.6512H62.814V18.0233H62.4419V17.6512ZM62.4419 18.0233H62.814V18.3953H62.4419V18.0233ZM62.0698 18.0233H62.4419V18.3953H62.0698V18.0233ZM62.0698 18.3953H62.4419V18.7674H62.0698V18.3953ZM62.0698 17.6512H62.4419V18.0233H62.0698V17.6512ZM62.0698 17.2791H62.4419V17.6512H62.0698V17.2791ZM62.0698 19.1395H62.4419V19.5116H62.0698V19.1395ZM62.4419 19.1395H62.814V19.5116H62.4419V19.1395ZM62.4419 18.3953H62.814V18.7674H62.4419V18.3953ZM62.814 17.2791H63.186V17.6512H62.814V17.2791ZM63.186 17.6512H63.5581V18.0233H63.186V17.6512ZM63.186 18.0233H63.5581V18.3953H63.186V18.0233ZM62.814 18.0233H63.186V18.3953H62.814V18.0233ZM62.814 17.6512H63.186V18.0233H62.814V17.6512ZM62.814 18.3953H63.186V18.7674H62.814V18.3953ZM63.186 18.3953H63.5581V18.7674H63.186V18.3953ZM62.814 19.1395H63.186V19.5116H62.814V19.1395ZM63.186 19.1395H63.5581V19.5116H63.186V19.1395ZM58.3488 18.3953H58.7209V18.7674H58.3488V18.3953ZM58.7209 18.3953H59.093V18.7674H58.7209V18.3953ZM59.093 18.3953H59.4651V18.7674H59.093V18.3953ZM59.093 19.1395H59.4651V19.5116H59.093V19.1395ZM59.4651 19.1395H59.8372V19.5116H59.4651V19.1395ZM59.4651 18.3953H59.8372V18.7674H59.4651V18.3953ZM58.7209 19.1395H59.093V19.5116H58.7209V19.1395ZM58.3488 18.7674H58.7209V19.1395H58.3488V18.7674ZM58.7209 18.7674H59.093V19.1395H58.7209V18.7674ZM59.093 18.7674H59.4651V19.1395H59.093V18.7674ZM59.4651 18.7674H59.8372V19.1395H59.4651V18.7674ZM62.0698 18.7674H62.4419V19.1395H62.0698V18.7674ZM62.4419 18.7674H62.814V19.1395H62.4419V18.7674ZM62.814 18.7674H63.186V19.1395H62.814V18.7674ZM63.186 18.7674H63.5581V19.1395H63.186V18.7674ZM62.0698 19.5116H62.4419V19.8837H62.0698V19.5116ZM62.0698 19.8837H62.4419V20.2558H62.0698V19.8837ZM62.4419 19.8837H62.814V20.2558H62.4419V19.8837ZM62.814 19.8837H63.186V20.2558H62.814V19.8837ZM63.186 19.8837H63.5581V20.2558H63.186V19.8837ZM63.186 19.5116H63.5581V19.8837H63.186V19.5116ZM62.814 19.5116H63.186V19.8837H62.814V19.5116ZM62.4419 19.5116H62.814V19.8837H62.4419V19.5116ZM63.186 20.2558H63.5581V20.6279H63.186V20.2558ZM62.814 20.2558H63.186V20.6279H62.814V20.2558ZM62.814 20.6279H63.186V21H62.814V20.6279ZM63.186 20.6279H63.5581V21H63.186V20.6279ZM63.5581 20.6279H63.9302V21H63.5581V20.6279ZM63.5581 20.2558H63.9302V20.6279H63.5581V20.2558ZM63.9302 20.2558H64.3023V20.6279H63.9302V20.2558ZM63.9302 20.6279H64.3023V21H63.9302V20.6279ZM64.6744 19.5116H65.0465V19.8837H64.6744V19.5116ZM64.6744 19.8837H65.0465V20.2558H64.6744V19.8837ZM64.3023 19.8837H64.6744V20.2558H64.3023V19.8837ZM59.4651 13.5581H59.8372V13.9302H59.4651V13.5581ZM59.4651 13.9302H59.8372V14.3023H59.4651V13.9302ZM59.4651 14.3023H59.8372V14.6744H59.4651V14.3023ZM59.4651 14.6744H59.8372V15.0465H59.4651V14.6744ZM59.4651 15.0465H59.8372V15.4186H59.4651V15.0465ZM59.093 15.0465H59.4651V15.4186H59.093V15.0465ZM58.3488 13.9302H58.7209V14.3023H58.3488V13.9302ZM58.3488 15.0465H58.7209V15.4186H58.3488V15.0465ZM58.7209 15.0465H59.093V15.4186H58.7209V15.0465ZM58.7209 12.4419H59.093V12.814H58.7209V12.4419ZM58.7209 12.814H59.093V13.186H58.7209V12.814ZM59.093 12.4419H59.4651V12.814H59.093V12.4419ZM59.093 12.814H59.4651V13.186H59.093V12.814ZM59.4651 12.814H59.8372V13.186H59.4651V12.814ZM59.4651 13.186H59.8372V13.5581H59.4651V13.186ZM59.093 13.186H59.4651V13.5581H59.093V13.186ZM58.3488 13.5581H58.7209V13.9302H58.3488V13.5581ZM58.3488 12.814H58.7209V13.186H58.3488V12.814ZM58.3488 13.186H58.7209V13.5581H58.3488V13.186ZM58.3488 11.6977H58.7209V12.0698H58.3488V11.6977ZM58.3488 12.0698H58.7209V12.4419H58.3488V12.0698ZM58.7209 12.0698H59.093V12.4419H58.7209V12.0698ZM57.9767 11.6977H58.3488V12.0698H57.9767V11.6977ZM57.6047 11.6977H57.9767V12.0698H57.6047V11.6977ZM57.9767 12.0698H58.3488V12.4419H57.9767V12.0698ZM57.2326 12.0698H57.6047V12.4419H57.2326V12.0698ZM57.2326 11.6977H57.6047V12.0698H57.2326V11.6977ZM58.3488 12.4419H58.7209V12.814H58.3488V12.4419ZM57.9767 12.4419H58.3488V12.814H57.9767V12.4419ZM57.2326 12.4419H57.6047V12.814H57.2326V12.4419ZM57.9767 12.814H58.3488V13.186H57.9767V12.814ZM57.6047 12.814H57.9767V13.186H57.6047V12.814ZM57.2326 12.814H57.6047V13.186H57.2326V12.814ZM57.6047 12.4419H57.9767V12.814H57.6047V12.4419ZM57.6047 12.0698H57.9767V12.4419H57.6047V12.0698ZM56.8605 14.6744H57.2326V15.0465H56.8605V14.6744ZM57.2326 14.6744H57.6047V15.0465H57.2326V14.6744ZM57.6047 14.6744H57.9767V15.0465H57.6047V14.6744ZM57.9767 14.6744H58.3488V15.0465H57.9767V14.6744ZM57.9767 15.0465H58.3488V15.4186H57.9767V15.0465ZM57.6047 15.0465H57.9767V15.4186H57.6047V15.0465ZM57.2326 15.0465H57.6047V15.4186H57.2326V15.0465ZM56.8605 15.0465H57.2326V15.4186H56.8605V15.0465ZM58.3488 14.3023H58.7209V14.6744H58.3488V14.3023ZM58.3488 14.6744H58.7209V15.0465H58.3488V14.6744ZM58.7209 13.186H59.093V13.5581H58.7209V13.186ZM58.7209 13.5581H59.093V13.9302H58.7209V13.5581ZM58.7209 13.9302H59.093V14.3023H58.7209V13.9302ZM58.7209 14.3023H59.093V14.6744H58.7209V14.3023ZM58.7209 14.6744H59.093V15.0465H58.7209V14.6744ZM59.093 14.6744H59.4651V15.0465H59.093V14.6744ZM59.093 14.3023H59.4651V14.6744H59.093V14.3023ZM59.093 13.9302H59.4651V14.3023H59.093V13.9302ZM59.093 13.5581H59.4651V13.9302H59.093V13.5581ZM59.8372 13.186H60.2093V13.5581H59.8372V13.186ZM57.6047 13.186H57.9767V13.5581H57.6047V13.186ZM57.9767 13.5581H58.3488V13.9302H57.9767V13.5581ZM57.9767 13.186H58.3488V13.5581H57.9767V13.186ZM59.4651 20.6279H59.8372V21H59.4651V20.6279ZM59.093 20.6279H59.4651V21H59.093V20.6279ZM59.093 20.2558H59.4651V20.6279H59.093V20.2558ZM59.4651 20.2558H59.8372V20.6279H59.4651V20.2558ZM59.8372 19.8837H60.2093V20.2558H59.8372V19.8837ZM60.2093 19.5116H60.5814V19.8837H60.2093V19.5116ZM60.2093 19.8837H60.5814V20.2558H60.2093V19.8837ZM60.5814 18.7674H60.9535V19.1395H60.5814V18.7674ZM60.9535 18.7674H61.3256V19.1395H60.9535V18.7674ZM60.9535 19.1395H61.3256V19.5116H60.9535V19.1395ZM57.9767 19.5116H58.3488V19.8837H57.9767V19.5116ZM57.6047 19.5116H57.9767V19.8837H57.6047V19.5116ZM57.6047 19.8837H57.9767V20.2558H57.6047V19.8837ZM57.9767 19.8837H58.3488V20.2558H57.9767V19.8837ZM58.7209 20.2558H59.093V20.6279H58.7209V20.2558ZM58.3488 20.2558H58.7209V20.6279H58.3488V20.2558ZM58.3488 20.6279H58.7209V21H58.3488V20.6279ZM58.7209 20.6279H59.093V21H58.7209V20.6279ZM58.3488 19.5116H58.7209V19.8837H58.3488V19.5116ZM58.7209 19.5116H59.093V19.8837H58.7209V19.5116ZM59.4651 19.8837H59.8372V20.2558H59.4651V19.8837ZM59.093 19.8837H59.4651V20.2558H59.093V19.8837ZM58.7209 19.8837H59.093V20.2558H58.7209V19.8837ZM58.3488 19.8837H58.7209V20.2558H58.3488V19.8837ZM57.9767 19.1395H58.3488V19.5116H57.9767V19.1395ZM57.6047 19.1395H57.9767V19.5116H57.6047V19.1395ZM57.2326 19.5116H57.6047V19.8837H57.2326V19.5116ZM56.8605 19.5116H57.2326V19.8837H56.8605V19.5116ZM56.8605 19.8837H57.2326V20.2558H56.8605V19.8837ZM57.2326 19.8837H57.6047V20.2558H57.2326V19.8837ZM56.4884 19.5116H56.8605V19.8837H56.4884V19.5116ZM56.4884 19.8837H56.8605V20.2558H56.4884V19.8837ZM56.1163 19.8837H56.4884V20.2558H56.1163V19.8837ZM56.1163 19.5116H56.4884V19.8837H56.1163V19.5116ZM55.7442 20.2558H56.1163V20.6279H55.7442V20.2558ZM55.3721 20.2558H55.7442V20.6279H55.3721V20.2558ZM55.3721 20.6279H55.7442V21H55.3721V20.6279ZM55.7442 19.8837H56.1163V20.2558H55.7442V19.8837ZM56.8605 19.1395H57.2326V19.5116H56.8605V19.1395ZM57.2326 19.1395H57.6047V19.5116H57.2326V19.1395ZM59.8372 20.2558H60.2093V20.6279H59.8372V20.2558ZM60.5814 19.5116H60.9535V19.8837H60.5814V19.5116ZM57.9767 20.2558H58.3488V20.6279H57.9767V20.2558ZM57.6047 20.2558H57.9767V20.6279H57.6047V20.2558ZM58.3488 19.1395H58.7209V19.5116H58.3488V19.1395ZM57.2326 20.2558H57.6047V20.6279H57.2326V20.2558ZM57.6047 20.6279H57.9767V21H57.6047V20.6279ZM57.9767 20.6279H58.3488V21H57.9767V20.6279ZM62.4419 20.2558H62.814V20.6279H62.4419V20.2558ZM64.3023 20.2558H64.6744V20.6279H64.3023V20.2558ZM63.5581 19.8837H63.9302V20.2558H63.5581V19.8837ZM61.6977 12.4419H62.0698V12.814H61.6977V12.4419ZM61.6977 12.814H62.0698V13.186H61.6977V12.814ZM61.3256 12.814H61.6977V13.186H61.3256V12.814ZM61.6977 13.186H62.0698V13.5581H61.6977V13.186ZM56.8605 12.0698H57.2326V12.4419H56.8605V12.0698ZM56.4884 12.4419H56.8605V12.814H56.4884V12.4419ZM56.8605 12.4419H57.2326V12.814H56.8605V12.4419ZM56.1163 12.0698H56.4884V12.4419H56.1163V12.0698ZM55.7442 12.0698H56.1163V12.4419H55.7442V12.0698ZM55.7442 11.6977H56.1163V12.0698H55.7442V11.6977ZM56.1163 12.4419H56.4884V12.814H56.1163V12.4419ZM56.4884 12.814H56.8605V13.186H56.4884V12.814ZM56.8605 12.814H57.2326V13.186H56.8605V12.814ZM70.2562 14.3023H70.6283V14.6744H70.2562V14.3023ZM69.8841 14.3023H70.2562V14.6744H69.8841V14.3023ZM69.8841 14.6744H70.2562V15.0465H69.8841V14.6744ZM69.8841 15.0465H70.2562V15.4186H69.8841V15.0465ZM69.8841 15.4186H70.2562V15.7907H69.8841V15.4186ZM69.8841 15.7907H70.2562V16.1628H69.8841V15.7907ZM69.8841 16.1628H70.2562V16.5349H69.8841V16.1628ZM70.2562 16.1628H70.6283V16.5349H70.2562V16.1628ZM70.2562 15.7907H70.6283V16.1628H70.2562V15.7907ZM70.2562 15.4186H70.6283V15.7907H70.2562V15.4186ZM70.2562 15.0465H70.6283V15.4186H70.2562V15.0465ZM70.2562 14.6744H70.6283V15.0465H70.2562V14.6744ZM68.7678 13.5581H69.1399V13.9302H68.7678V13.5581ZM68.7678 13.9302H69.1399V14.3023H68.7678V13.9302ZM68.7678 14.3023H69.1399V14.6744H68.7678V14.3023ZM68.7678 14.6744H69.1399V15.0465H68.7678V14.6744ZM68.7678 15.0465H69.1399V15.4186H68.7678V15.0465ZM68.7678 15.4186H69.1399V15.7907H68.7678V15.4186ZM68.7678 15.7907H69.1399V16.1628H68.7678V15.7907ZM68.7678 16.1628H69.1399V16.5349H68.7678V16.1628ZM68.3957 16.1628H68.7678V16.5349H68.3957V16.1628ZM68.3957 15.7907H68.7678V16.1628H68.3957V15.7907ZM68.3957 15.4186H68.7678V15.7907H68.3957V15.4186ZM68.3957 15.0465H68.7678V15.4186H68.3957V15.0465ZM68.3957 14.6744H68.7678V15.0465H68.3957V14.6744ZM68.3957 14.3023H68.7678V14.6744H68.3957V14.3023ZM68.3957 13.9302H68.7678V14.3023H68.3957V13.9302ZM68.3957 13.5581H68.7678V13.9302H68.3957V13.5581ZM67.6515 13.9302H68.0236V14.3023H67.6515V13.9302ZM67.6515 14.3023H68.0236V14.6744H67.6515V14.3023ZM67.6515 14.6744H68.0236V15.0465H67.6515V14.6744ZM67.6515 15.0465H68.0236V15.4186H67.6515V15.0465ZM67.6515 15.4186H68.0236V15.7907H67.6515V15.4186ZM67.6515 15.7907H68.0236V16.1628H67.6515V15.7907ZM67.6515 16.1628H68.0236V16.5349H67.6515V16.1628ZM67.6515 16.5349H68.0236V16.907H67.6515V16.5349ZM68.0236 16.1628H68.3957V16.5349H68.0236V16.1628ZM68.0236 15.7907H68.3957V16.1628H68.0236V15.7907ZM68.0236 15.4186H68.3957V15.7907H68.0236V15.4186ZM68.0236 15.0465H68.3957V15.4186H68.0236V15.0465ZM68.0236 14.3023H68.3957V14.6744H68.0236V14.3023ZM68.0236 13.9302H68.3957V14.3023H68.0236V13.9302ZM68.0236 13.5581H68.3957V13.9302H68.0236V13.5581ZM68.0236 14.6744H68.3957V15.0465H68.0236V14.6744ZM67.2794 14.6744H67.6515V15.0465H67.2794V14.6744ZM66.9073 14.6744H67.2794V15.0465H66.9073V14.6744ZM66.5352 14.6744H66.9073V15.0465H66.5352V14.6744ZM66.1632 14.6744H66.5352V15.0465H66.1632V14.6744ZM66.1632 15.0465H66.5352V15.4186H66.1632V15.0465ZM66.5352 15.0465H66.9073V15.4186H66.5352V15.0465ZM66.9073 15.0465H67.2794V15.4186H66.9073V15.0465ZM67.2794 15.0465H67.6515V15.4186H67.2794V15.0465ZM67.2794 16.1628H67.6515V16.5349H67.2794V16.1628ZM66.9073 16.1628H67.2794V16.5349H66.9073V16.1628ZM66.5352 16.1628H66.9073V16.5349H66.5352V16.1628ZM66.1632 16.1628H66.5352V16.5349H66.1632V16.1628ZM66.1632 16.5349H66.5352V16.907H66.1632V16.5349ZM66.5352 16.5349H66.9073V16.907H66.5352V16.5349ZM66.9073 16.5349H67.2794V16.907H66.9073V16.5349ZM67.2794 16.5349H67.6515V16.907H67.2794V16.5349ZM68.0236 16.5349H68.3957V16.907H68.0236V16.5349ZM68.3957 16.5349H68.7678V16.907H68.3957V16.5349ZM68.7678 16.5349H69.1399V16.907H68.7678V16.5349ZM69.8841 16.5349H70.2562V16.907H69.8841V16.5349ZM70.2562 16.5349H70.6283V16.907H70.2562V16.5349ZM67.6515 16.907H68.0236V17.2791H67.6515V16.907ZM67.6515 17.2791H68.0236V17.6512H67.6515V17.2791ZM68.0236 17.2791H68.3957V17.6512H68.0236V17.2791ZM68.3957 17.2791H68.7678V17.6512H68.3957V17.2791ZM68.7678 17.2791H69.1399V17.6512H68.7678V17.2791ZM68.7678 16.907H69.1399V17.2791H68.7678V16.907ZM68.3957 16.907H68.7678V17.2791H68.3957V16.907ZM68.0236 16.907H68.3957V17.2791H68.0236V16.907ZM69.8841 16.907H70.2562V17.2791H69.8841V16.907ZM70.2562 16.907H70.6283V17.2791H70.2562V16.907ZM70.2562 17.2791H70.6283V17.6512H70.2562V17.2791ZM69.8841 17.2791H70.2562V17.6512H69.8841V17.2791ZM71.3725 11.6977H71.7445V12.0698H71.3725V11.6977ZM71.7445 11.6977H72.1166V12.0698H71.7445V11.6977ZM71.7445 12.0698H72.1166V12.4419H71.7445V12.0698ZM71.7445 12.4419H72.1166V12.814H71.7445V12.4419ZM71.7445 12.814H72.1166V13.186H71.7445V12.814ZM71.3725 12.814H71.7445V13.186H71.3725V12.814ZM71.3725 13.186H71.7445V13.5581H71.3725V13.186ZM71.3725 13.5581H71.7445V13.9302H71.3725V13.5581ZM71.3725 13.9302H71.7445V14.3023H71.3725V13.9302ZM71.3725 14.3023H71.7445V14.6744H71.3725V14.3023ZM71.3725 14.6744H71.7445V15.0465H71.3725V14.6744ZM71.3725 15.0465H71.7445V15.4186H71.3725V15.0465ZM71.7445 14.6744H72.1166V15.0465H71.7445V14.6744ZM71.7445 14.3023H72.1166V14.6744H71.7445V14.3023ZM71.7445 13.9302H72.1166V14.3023H71.7445V13.9302ZM71.7445 13.5581H72.1166V13.9302H71.7445V13.5581ZM71.7445 13.186H72.1166V13.5581H71.7445V13.186ZM71.7445 15.0465H72.1166V15.4186H71.7445V15.0465ZM72.1166 12.4419H72.4887V12.814H72.1166V12.4419ZM72.4887 12.4419H72.8608V12.814H72.4887V12.4419ZM72.4887 12.814H72.8608V13.186H72.4887V12.814ZM72.4887 13.186H72.8608V13.5581H72.4887V13.186ZM72.4887 13.5581H72.8608V13.9302H72.4887V13.5581ZM72.1166 13.5581H72.4887V13.9302H72.1166V13.5581ZM72.1166 13.9302H72.4887V14.3023H72.1166V13.9302ZM72.1166 14.3023H72.4887V14.6744H72.1166V14.3023ZM72.1166 14.6744H72.4887V15.0465H72.1166V14.6744ZM72.1166 13.186H72.4887V13.5581H72.1166V13.186ZM72.1166 12.814H72.4887V13.186H72.1166V12.814ZM72.1166 15.0465H72.4887V15.4186H72.1166V15.0465ZM72.4887 14.6744H72.8608V15.0465H72.4887V14.6744ZM72.4887 14.3023H72.8608V14.6744H72.4887V14.3023ZM72.4887 13.9302H72.8608V14.3023H72.4887V13.9302ZM72.4887 15.0465H72.8608V15.4186H72.4887V15.0465ZM71.3725 15.4186H71.7445V15.7907H71.3725V15.4186ZM71.3725 15.7907H71.7445V16.1628H71.3725V15.7907ZM71.3725 16.1628H71.7445V16.5349H71.3725V16.1628ZM71.3725 16.5349H71.7445V16.907H71.3725V16.5349ZM71.3725 16.907H71.7445V17.2791H71.3725V16.907ZM71.3725 17.2791H71.7445V17.6512H71.3725V17.2791ZM71.7445 17.2791H72.1166V17.6512H71.7445V17.2791ZM72.1166 17.2791H72.4887V17.6512H72.1166V17.2791ZM72.4887 17.2791H72.8608V17.6512H72.4887V17.2791ZM72.4887 16.907H72.8608V17.2791H72.4887V16.907ZM72.4887 16.5349H72.8608V16.907H72.4887V16.5349ZM72.4887 16.1628H72.8608V16.5349H72.4887V16.1628ZM72.4887 15.7907H72.8608V16.1628H72.4887V15.7907ZM72.4887 15.4186H72.8608V15.7907H72.4887V15.4186ZM72.1166 15.4186H72.4887V15.7907H72.1166V15.4186ZM72.1166 15.7907H72.4887V16.1628H72.1166V15.7907ZM72.1166 16.1628H72.4887V16.5349H72.1166V16.1628ZM72.1166 16.5349H72.4887V16.907H72.1166V16.5349ZM72.1166 16.907H72.4887V17.2791H72.1166V16.907ZM71.7445 16.907H72.1166V17.2791H71.7445V16.907ZM71.7445 16.5349H72.1166V16.907H71.7445V16.5349ZM71.7445 16.1628H72.1166V16.5349H71.7445V16.1628ZM71.7445 15.7907H72.1166V16.1628H71.7445V15.7907ZM71.7445 15.4186H72.1166V15.7907H71.7445V15.4186ZM69.8841 19.1395H70.2562V19.5116H69.8841V19.1395ZM69.8841 18.7674H70.2562V19.1395H69.8841V18.7674ZM70.2562 18.7674H70.6283V19.1395H70.2562V18.7674ZM70.2562 19.1395H70.6283V19.5116H70.2562V19.1395ZM69.8841 18.3953H70.2562V18.7674H69.8841V18.3953ZM70.2562 18.3953H70.6283V18.7674H70.2562V18.3953ZM70.2562 18.0233H70.6283V18.3953H70.2562V18.0233ZM70.2562 17.6512H70.6283V18.0233H70.2562V17.6512ZM69.8841 18.0233H70.2562V18.3953H69.8841V18.0233ZM69.8841 17.6512H70.2562V18.0233H69.8841V17.6512ZM68.7678 17.6512H69.1399V18.0233H68.7678V17.6512ZM68.0236 17.6512H68.3957V18.0233H68.0236V17.6512ZM68.3957 17.6512H68.7678V18.0233H68.3957V17.6512ZM67.6515 17.6512H68.0236V18.0233H67.6515V17.6512ZM67.6515 18.3953H68.0236V18.7674H67.6515V18.3953ZM67.6515 18.0233H68.0236V18.3953H67.6515V18.0233ZM68.0236 18.0233H68.3957V18.3953H68.0236V18.0233ZM68.3957 18.0233H68.7678V18.3953H68.3957V18.0233ZM68.7678 18.0233H69.1399V18.3953H68.7678V18.0233ZM68.7678 18.3953H69.1399V18.7674H68.7678V18.3953ZM68.3957 18.3953H68.7678V18.7674H68.3957V18.3953ZM68.0236 18.3953H68.3957V18.7674H68.0236V18.3953ZM71.3725 19.1395H71.7445V19.5116H71.3725V19.1395ZM71.3725 18.7674H71.7445V19.1395H71.3725V18.7674ZM71.3725 18.3953H71.7445V18.7674H71.3725V18.3953ZM71.3725 18.0233H71.7445V18.3953H71.3725V18.0233ZM71.3725 17.6512H71.7445V18.0233H71.3725V17.6512ZM71.7445 17.6512H72.1166V18.0233H71.7445V17.6512ZM72.1166 17.6512H72.4887V18.0233H72.1166V17.6512ZM72.4887 17.6512H72.8608V18.0233H72.4887V17.6512ZM72.4887 18.0233H72.8608V18.3953H72.4887V18.0233ZM72.4887 18.3953H72.8608V18.7674H72.4887V18.3953ZM72.4887 18.7674H72.8608V19.1395H72.4887V18.7674ZM72.4887 19.1395H72.8608V19.5116H72.4887V19.1395ZM72.1166 19.1395H72.4887V19.5116H72.1166V19.1395ZM71.7445 19.1395H72.1166V19.5116H71.7445V19.1395ZM71.7445 18.7674H72.1166V19.1395H71.7445V18.7674ZM71.7445 18.3953H72.1166V18.7674H71.7445V18.3953ZM71.7445 18.0233H72.1166V18.3953H71.7445V18.0233ZM72.1166 18.0233H72.4887V18.3953H72.1166V18.0233ZM72.1166 18.3953H72.4887V18.7674H72.1166V18.3953ZM72.1166 18.7674H72.4887V19.1395H72.1166V18.7674ZM71.3725 19.5116H71.7445V19.8837H71.3725V19.5116ZM71.3725 19.8837H71.7445V20.2558H71.3725V19.8837ZM71.7445 19.8837H72.1166V20.2558H71.7445V19.8837ZM71.7445 19.5116H72.1166V19.8837H71.7445V19.5116ZM72.8608 12.4419H73.2329V12.814H72.8608V12.4419ZM73.2329 12.4419H73.605V12.814H73.2329V12.4419ZM72.8608 12.814H73.2329V13.186H72.8608V12.814ZM73.605 12.0698H73.9771V12.4419H73.605V12.0698ZM72.1166 12.0698H72.4887V12.4419H72.1166V12.0698ZM73.2329 12.0698H73.605V12.4419H73.2329V12.0698ZM68.0236 12.4419H68.3957V12.814H68.0236V12.4419ZM68.0236 12.814H68.3957V13.186H68.0236V12.814ZM68.3957 12.4419H68.7678V12.814H68.3957V12.4419ZM68.3957 12.814H68.7678V13.186H68.3957V12.814ZM68.7678 12.814H69.1399V13.186H68.7678V12.814ZM68.7678 13.186H69.1399V13.5581H68.7678V13.186ZM68.3957 13.186H68.7678V13.5581H68.3957V13.186ZM68.0236 13.186H68.3957V13.5581H68.0236V13.186ZM67.6515 13.5581H68.0236V13.9302H67.6515V13.5581ZM70.2562 12.4419H70.6283V12.814H70.2562V12.4419ZM70.2562 12.814H70.6283V13.186H70.2562V12.814ZM69.8841 12.814H70.2562V13.186H69.8841V12.814ZM67.6515 12.814H68.0236V13.186H67.6515V12.814ZM67.6515 13.186H68.0236V13.5581H67.6515V13.186ZM67.6515 11.6977H68.0236V12.0698H67.6515V11.6977ZM67.6515 12.0698H68.0236V12.4419H67.6515V12.0698ZM68.0236 12.0698H68.3957V12.4419H68.0236V12.0698ZM67.2794 11.6977H67.6515V12.0698H67.2794V11.6977ZM66.9073 11.6977H67.2794V12.0698H66.9073V11.6977ZM66.9073 12.0698H67.2794V12.4419H66.9073V12.0698ZM67.2794 12.0698H67.6515V12.4419H67.2794V12.0698ZM66.5352 12.0698H66.9073V12.4419H66.5352V12.0698ZM66.5352 11.6977H66.9073V12.0698H66.5352V11.6977ZM67.6515 12.4419H68.0236V12.814H67.6515V12.4419ZM67.2794 12.4419H67.6515V12.814H67.2794V12.4419ZM66.9073 12.4419H67.2794V12.814H66.9073V12.4419ZM66.5352 12.4419H66.9073V12.814H66.5352V12.4419ZM69.512 13.186H69.8841V13.5581H69.512V13.186ZM69.512 13.5581H69.8841V13.9302H69.512V13.5581ZM69.1399 13.5581H69.512V13.9302H69.1399V13.5581ZM70.6283 12.0698H71.0004V12.4419H70.6283V12.0698ZM71.0004 11.6977H71.3725V12.0698H71.0004V11.6977ZM71.0004 12.0698H71.3725V12.4419H71.0004V12.0698ZM71.3725 12.0698H71.7445V12.4419H71.3725V12.0698ZM71.3725 12.4419H71.7445V12.814H71.3725V12.4419ZM73.605 11.6977H73.9771V12.0698H73.605V11.6977ZM70.2562 20.2558H70.6283V20.6279H70.2562V20.2558ZM69.8841 20.2558H70.2562V20.6279H69.8841V20.2558ZM69.8841 20.6279H70.2562V21H69.8841V20.6279ZM70.2562 20.6279H70.6283V21H70.2562V20.6279ZM70.2562 19.8837H70.6283V20.2558H70.2562V19.8837ZM70.2562 19.5116H70.6283V19.8837H70.2562V19.5116ZM69.8841 19.5116H70.2562V19.8837H69.8841V19.5116ZM69.8841 19.8837H70.2562V20.2558H69.8841V19.8837ZM69.512 20.2558H69.8841V20.6279H69.512V20.2558ZM69.512 20.6279H69.8841V21H69.512V20.6279ZM69.1399 20.6279H69.512V21H69.1399V20.6279ZM69.1399 20.2558H69.512V20.6279H69.1399V20.2558ZM68.7678 18.7674H69.1399V19.1395H68.7678V18.7674ZM68.7678 19.1395H69.1399V19.5116H68.7678V19.1395ZM68.7678 19.5116H69.1399V19.8837H68.7678V19.5116ZM68.7678 20.6279H69.1399V21H68.7678V20.6279ZM68.7678 21H69.1399V21.3721H68.7678V21ZM68.7678 20.2558H69.1399V20.6279H68.7678V20.2558ZM68.7678 19.8837H69.1399V20.2558H68.7678V19.8837ZM68.3957 20.2558H68.7678V20.6279H68.3957V20.2558ZM68.3957 19.8837H68.7678V20.2558H68.3957V19.8837ZM68.3957 19.5116H68.7678V19.8837H68.3957V19.5116ZM68.0236 19.1395H68.3957V19.5116H68.0236V19.1395ZM68.0236 18.7674H68.3957V19.1395H68.0236V18.7674ZM67.6515 18.7674H68.0236V19.1395H67.6515V18.7674ZM67.6515 19.1395H68.0236V19.5116H67.6515V19.1395ZM67.6515 19.8837H68.0236V20.2558H67.6515V19.8837ZM67.6515 20.2558H68.0236V20.6279H67.6515V20.2558ZM67.6515 20.6279H68.0236V21H67.6515V20.6279ZM67.6515 21H68.0236V21.3721H67.6515V21ZM68.0236 21H68.3957V21.3721H68.0236V21ZM68.0236 20.6279H68.3957V21H68.0236V20.6279ZM68.3957 20.6279H68.7678V21H68.3957V20.6279ZM68.3957 19.1395H68.7678V19.5116H68.3957V19.1395ZM68.3957 18.7674H68.7678V19.1395H68.3957V18.7674ZM68.0236 19.5116H68.3957V19.8837H68.0236V19.5116ZM68.0236 19.8837H68.3957V20.2558H68.0236V19.8837ZM68.0236 20.2558H68.3957V20.6279H68.0236V20.2558ZM67.6515 19.5116H68.0236V19.8837H67.6515V19.5116ZM67.6515 22.8605H68.0236V23.2326H67.6515V22.8605ZM67.6515 22.4884H68.0236V22.8605H67.6515V22.4884ZM67.6515 22.1163H68.0236V22.4884H67.6515V22.1163ZM67.6515 21.3721H68.0236V21.7442H67.6515V21.3721ZM67.6515 21.7442H68.0236V22.1163H67.6515V21.7442ZM68.0236 22.4884H68.3957V22.8605H68.0236V22.4884ZM68.3957 22.1163H68.7678V22.4884H68.3957V22.1163ZM68.7678 21.7442H69.1399V22.1163H68.7678V21.7442ZM68.7678 21.3721H69.1399V21.7442H68.7678V21.3721ZM68.3957 21.3721H68.7678V21.7442H68.3957V21.3721ZM68.3957 21.7442H68.7678V22.1163H68.3957V21.7442ZM68.3957 21H68.7678V21.3721H68.3957V21ZM68.0236 21.3721H68.3957V21.7442H68.0236V21.3721ZM68.0236 21.7442H68.3957V22.1163H68.0236V21.7442ZM68.0236 22.1163H68.3957V22.4884H68.0236V22.1163ZM72.1166 19.5116H72.4887V19.8837H72.1166V19.5116ZM71.3725 20.2558H71.7445V20.6279H71.3725V20.2558ZM71.0004 20.2558H71.3725V20.6279H71.0004V20.2558ZM70.6283 20.2558H71.0004V20.6279H70.6283V20.2558ZM70.6283 20.6279H71.0004V21H70.6283V20.6279ZM71.0004 20.6279H71.3725V21H71.0004V20.6279ZM70.6283 19.8837H71.0004V20.2558H70.6283V19.8837ZM71.0004 19.8837H71.3725V20.2558H71.0004V19.8837ZM71.0004 19.5116H71.3725V19.8837H71.0004V19.5116ZM69.8841 13.186H70.2562V13.5581H69.8841V13.186ZM69.1399 13.9302H69.512V14.3023H69.1399V13.9302ZM70.6283 12.4419H71.0004V12.814H70.6283V12.4419ZM67.2794 12.814H67.6515V13.186H67.2794V12.814ZM66.9073 12.814H67.2794V13.186H66.9073V12.814ZM67.2794 13.186H67.6515V13.5581H67.2794V13.186ZM66.5352 12.814H66.9073V13.186H66.5352V12.814ZM66.9073 13.186H67.2794V13.5581H66.9073V13.186ZM67.2794 13.5581H67.6515V13.9302H67.2794V13.5581ZM69.1399 13.186H69.512V13.5581H69.1399V13.186ZM66.1632 12.0698H66.5352V12.4419H66.1632V12.0698ZM65.7911 12.4419H66.1632V12.814H65.7911V12.4419ZM66.1632 12.4419H66.5352V12.814H66.1632V12.4419ZM65.419 12.0698H65.7911V12.4419H65.419V12.0698ZM65.0469 12.0698H65.419V12.4419H65.0469V12.0698ZM65.0469 11.6977H65.419V12.0698H65.0469V11.6977ZM65.419 12.4419H65.7911V12.814H65.419V12.4419ZM65.7911 12.814H66.1632V13.186H65.7911V12.814ZM66.1632 12.814H66.5352V13.186H66.1632V12.814Z" fill="#A00A10"/>
</svg>
